<svg xmlns="http://www.w3.org/2000/svg" viewBox="0 0 208.92 307.28"><defs><style>.cls-1{fill:#9c2231;}.cls-2{fill:#72403a;}.cls-3{fill:#c62d2e;}.cls-4{fill:#925e3f;}.cls-5{fill:#393232;}.cls-6{fill:#a0d52e;}.cls-7{fill:#d84f55;}.cls-8{fill:#f1771b;}.cls-9{fill:#5b7cec;}.cls-10{fill:#506230;}.cls-11{fill:#79c838;}.cls-12{fill:#e55818;}.cls-13{fill:#fefefe;}.cls-14{fill:none;}</style></defs><title>cursorddddArtboard 1</title><g id="Layer_1" data-name="Layer 1"><path class="cls-1" d="M50.28,256.51c-2.18-4.2-3.36-8.75-4.57-13.28A122.79,122.79,0,0,1,42,222a84.56,84.56,0,0,1,.42-20.36c.6.66.17,1.48.33,2.2,0,.2.1.47.24.55.3.19.52-.07.64-.31a2.68,2.68,0,0,1,1.82-1.66c.35,1.09.59,1.47.91,1.5,1.55.1,2.18.9,1.41,2.12-.58.91-.18,1,.45,1.39a9.7,9.7,0,0,1,1.62,1.75c-.68.32-.49.61,0,.89.32-1,1.57.79,1.73-.59A5.91,5.91,0,0,0,50.16,205a3.85,3.85,0,0,1-.94-3.51,2.39,2.39,0,0,0-.25-2.36,17.46,17.46,0,0,1-1.2-2.31,1.3,1.3,0,0,1,.71-1.64c.41-.22.9.51.9,1.05,0,1.23,1.55,2.18.65,3.57-.05.08.07.33.17.43,1.27,1.11,1.6,2.93,3,4,.39.3.67.87.5,1.12-.95,1.4.35,1.53,1.07,2.23.09-1.37-1-2.37-.45-3.58,1.23.78,1.08,2.22,1.62,3.32a2.37,2.37,0,0,1-.38,2.83,2.24,2.24,0,0,0-.52,2.24c.22.84.19,1.71.39,2.6,1.75-1.05,1.52.18,1.49,1.17l-.07.12.07-.13c.33-.08.5-.93.82-.42s1,.21.84,1a9.07,9.07,0,0,0,0,2l.23,0,.26-1.13c.63,1.48.33,3.07,1.24,4.33a.62.62,0,0,1-.24,1c-.79.27-1,.76-.48,1.33s1.82,1,2.09.7c1.17-1.27,1.57.19,1.69.55.39,1.27,1.17,1.57,2.41,1.33a3.35,3.35,0,0,0,.72,3.81l.31.3.33.33s.05.09.07.15A2.42,2.42,0,0,0,69.38,233c.47,0,.43-1.19.67-1.82l.6.15.21.14-.14-.21c1-1,1.24-.31,1.31.61s-.06,1.86.87,2.46a3,3,0,0,0,1.7,1.27l.22.13-.13-.22c-.13-1-1.13-.83-1.65-1.3-.26-.68-.54-1.36.35-1.81.36-.18.42-.4.24-.78a65.74,65.74,0,0,0-3.28-6.69c-.12-.19-.23-.76-.65-.46-1,.73-1.13-.36-1.59-.75v-1.91l.26-.06h0l.31.31v0a.67.67,0,0,0,.3.73c.41.72.94.75,1.75.61.51-.09.1,1.39,1.2,1.28a14.51,14.51,0,0,0-.33-3.66l-.39-1.5c1.69-.24.74-2.09,1.7-2.77.48-.07.2,1.06.8.59.32-.25.59-1.2.34-1.27-1.55-.4-.17-1-.12-1.41.06-.68,1-1.77-.23-1.9s-1-.88-1.12-1.61c0-.19.07-.38.11-.58,1.3-.73.67,1.1,1.43,1.09,1.41-2.13,1.52-3.06.78-6.71a1.75,1.75,0,0,0-.3-1.23c-.67-1,0-1.48.77-1.66,1.07-.25,2.15-.24,1.85,1.57a21.53,21.53,0,0,1,1.63-4.27c-.59-.39-.94.39-1.48.08a1.73,1.73,0,0,0-.3-1.63c-.23-.24-.69-.55-.79-.23-.36,1.21-1.74,1.81-1.94,2.91a10,10,0,0,0-.33,4.43c-.3.74.52,2.16-1.23,2-.28-1.76.69-3.52.08-5.39-.4.39-.07.89-.48,1.12-.28-.53.17-1.16-.3-1.78-.54,1-1,2.38-.28,2.7s.52.72.43.93c-.42.89-.17,1.84-.35,2.75-1.36.11-.52,1.46-1.08,2.07l-.41-.77-.07-.38,0-.15c.15-.15.3-.3,0-.43v-.38a1.41,1.41,0,0,0,0-.2c.16-.78-.23-1.62.32-2.35.33-.43-.22-.81-.36-.91-.48-.35-.23.31-.43.44s-.38.45-.66.18a.37.37,0,0,1,0-.57c.46-.33.26-1.31,1.25-1.16.58.09.6-.47.6-.92l.1-.22-.21.12c-.29-.08-.28-.67-.7-.48s-.21.55-.24.85h0c-.26-.06-.54-.12-.52-.49.11-1.41.23-2.82.33-4.15.81-.06.18,1.17,1,.8.52-.23,0-.71,0-1.1-.17-1.09.5-1.56,1.5-1.65l0,0a2,2,0,0,1,.27,2.22,3,3,0,0,0,.39,3.14c-.57-2.22,2-3.26,1.66-5.4.49.13.08.68.58.74-.09-.92.85-1.51.75-2.45,0-.17.06-.26.25-.11.88.67.59.07.57-.47,0-.87,0-1.79,1.13-2,.41-.08.89-.48,1.17.06s0,.8-.48,1-.38.81-.31,1.42l1.1-.85c.24.56-.47,1-.07,1.41,2.2-.51,1.74-3.1,3.32-4.11a.33.33,0,0,0,0-.3c-1.37-1.35,0-2.58.15-3.86a1.72,1.72,0,0,1,1.43,2.24c-.24.62-.65,1.18.31,1.3s.9-.63.88-1.25c0-1.29.21-2.59-.31-3.88.7.07.63.51.65.87,0,.58.38.74.88.72s.79.12,1-.33c.27-.61-.62-.07-.66-.69s-1-2.48-.91-2.9c1.57,0,1.91,1.21,2.3,2.34.49,1.41,1.3,2.33,2.93,2.26a3.35,3.35,0,0,1,1.45.14,4.36,4.36,0,0,0,5-.6c.86-.74,1.83-1.89,3.49-1a3.33,3.33,0,0,0,3-.28,3.25,3.25,0,0,1,4.43,1.45,2.72,2.72,0,0,0,1.64,1.66,1.91,1.91,0,0,1,1,.85c1.51,2.9,3.93,4,7.08,3.67.71-.06,1.5-.22,1.39-1s-1-.4-1.42-.31c-2.55.5-4.23-.85-5.78-2.55-.19-.21-.41-.48-.13-.7.93-.72,1-1.71,1-2.77s1.55-1.55,2.77-1-.16,1.05-.23,1.6c-.11.83-1.21,1.57-.24,2.66.42-1.14.91-1.91,2.21-2a2.58,2.58,0,0,0,1.86-1.05c.5-1-.15-1.7-1.08-2.21a2.15,2.15,0,0,1-1.26-2.21c.21-1,1.21-1.11,2.15-1a10.44,10.44,0,0,0,1.48,0c.76,0,1.07-.58.63-1.08-1-1.12-.12-1.6.63-1.94s1-1.71,2.24-1.19c1.84.8,1.43-.39,1.21-1.37a1.92,1.92,0,0,0-1.2-1.46c-.61-.24-.72-.72-.73-1.32a3.62,3.62,0,0,1,.47-1.85c.13-.26-.73-.84.19-.91.62-.06,1.36-.33,1.85.29,1.24,1.57,2.93,1.77,4.75,1.67a3.45,3.45,0,0,0,3.59,2.3l.31.29,0,0,1.33,1.27.31,0c0,1.64-1.25,3.33.19,4.94.07.08-.1.39-.16.59a5.09,5.09,0,0,1-1.26,2.06,1.2,1.2,0,0,0-.05,1.94l.35,1c-.08.07-.21.13-.24.22-.7,2.07-.54,4.32-1.7,6.34-.57,1-.74,2.37-1.35,3.46-.46.82-1.12,1.59-2.24.88-.63-.4-1.19.45-1.82.08,0,0-.38.24-.42.41-.1.37.22.44.5.44,1.62,0,1.46,1.09,1.3,2.19-.18,1.25-2,1.74-1.57,3.27-.27,0-.58.16-.78.06-.67-.31-1,0-1.53.4a5.57,5.57,0,0,0-1.9,2.52c-.55,1.22-1.85,2.11-2.31,3.34a14.63,14.63,0,0,1-4,5.38c-.24-.55-.48-1.1-.73-1.64a15.12,15.12,0,0,0-28.5,3.05A17.17,17.17,0,0,0,89.82,226c-.44,0-.7.2-.71.66h0c-1,.19-.86,1.17-.87,1.71,0,1.17-.39,1.67-2.13,1.19.94.93,1.81,1.57.51,2.2-.23.11-.22.63,0,.9s.47,0,.7-.12c.91-.41,2-.41,2.49-1.61.2-.51,1.11-.55,1.3-.4,1.08.89,1.2-.22,1.64-.68,1.06.75,2.09,1.56,3.2,2.23,3.17,1.92,6.68,2,10.25,1.84-.06.28-.16.6-.47.59-1.09,0-1,.66-1.26,1.45a2.51,2.51,0,0,0,.66,2.5c1.56,1.93,1.46,2.53-.28,4.24-.81.8-2.3,1.64-2.34,2.34-.12,2.06-1.15,3.47-2.05,5.15-.49.9-.95,1.77-1.74,1.91-1.28.23-2.06,1.16-3.15,1.59-.94.38-1,1.57-1.85,2-.37.16-.6.83-1.09.46s-.07-.77.15-1.14.33-1.16,0-1.13c-1.37.11-1.67-1.33-2.76-1.67s-2-1.75-3.6-1.28c-.41.12-.54-.57-.72-1s-.72-.82-1-.38c-.61.93-1.76.95-2.49,1.76a2,2,0,0,1-3.42-1.14c-.08-.39.32-1.1-.53-1.13-.65,0-1.21-.06-1.67.69-1,1.64-2.14,1.62-2.9-.25s-1.62-1.67-3-1c-.5.25-1.38.56-1.49-.2-.16-1.14-.66-.92-1.34-.67a1.31,1.31,0,0,1-1.48-.4c-.53-.55-1.08-1.08-1.63-1.6-.77-.74-3-.8-3.21-.05a8.78,8.78,0,0,0-.39,3.27,3.54,3.54,0,0,1-1.9,4.18c-.43.25-.37.6-.43,1-.25,1.56-.55,1.71-1.93,1-.23-.07-.71-.13-.48-.43,1-1.27.33-2.4-.17-3.56a2.31,2.31,0,0,1,1.22.29c1.12.84,1.41.23,1.35-.83a4.57,4.57,0,0,0-.31-1.06l.24-.36-.12-.08-.13.43-2.27,1c-.48-1-2.22-2.19.37-2.81.27-.07.3-.47.18-.72-.24-.51-.47-.12-.74,0-.61.33-.91.15-1.2-.53-.71-1.68-1.64-3.29-.49-5.14-.7-.21-.73.48-1.12.42A10.36,10.36,0,0,1,51.89,238c1.7-.47.81-1.86,1-2.83,1.41,1,1.5,2.27.56,3.92,1.74-.74,2.07.07,2.08,1.3,0,1-.24,2.08,1.26,2.52.65-3.37-.57-6-2.78-8.25-.24-.24-.47-.76-.9-.55s-.17.7-.21,1.06c-.85-.11-1.09-1-1.7-1.35-1.13.73-.49,2.26-1.08,2.87-1.55,1.6-.53,2.93,0,4.38.15.43.35,1-.11,1.19-1.49.56-1.44,1,0,1.62.34.14-.07.43-.13.66-.39,1.61.92,3.25-.06,4.87,0,.05.27.23.29.37C50.4,252,51.66,254.23,50.28,256.51Zm25.35-20.34a.36.36,0,0,0,0,.11s.06,0,.09,0l-.13-.14a.54.54,0,0,0-.07-.13s-.06,0-.1,0ZM73.32,228l.15.14-.14-.15-.12-.42-.13.08Zm-.66-1.65c.1.11-.14.45.25.36l-.24-.36c-.07-.29.08-.66-.3-.82-.05,0-.22.07-.22.12C72.09,226,72.4,226.14,72.66,226.3ZM46.9,206.08c-.4-.15-.79-.32-1.2-.46-1.73-.55-2-.14-1.83,1.71.22,2.24,1.86,3.91,2.17,6,.16,1.13,1.41,1.7,1.26,2.93,0,.33-.85.66,0,1a.54.54,0,0,0,.71-.23c.23-.37.57-.8.16-1.19-.94-.91-.3-2.58-1.63-3.3-.11-.06-.14-.42-.09-.62a6.29,6.29,0,0,0-.56-3.8C45.44,207.1,45.52,206.39,46.9,206.08Zm15,19.4A9.55,9.55,0,0,1,61,227.3c-.22.25-.11,1,.32.78,1.15-.57,1.13.67,1.74,1C63.45,227.66,62.49,226.8,61.86,225.48Zm1.63,6.61a2.45,2.45,0,0,0,.79-1.7c.12-.52-.55-.61-.8-.54-.69.2-.69.86-.65,1.44C62.85,231.68,63,232,63.49,232.09Zm-3.81,13.39c-.33.19-.81.27-.8.85,0,.28,0,.58.39.61.59,0,.68-.47.82-.86S60.1,245.54,59.68,245.48Zm16.51-40.8-.32-1.46C75.61,203.77,75.47,204.31,76.19,204.68ZM64.89,232l-.15-.25a.67.67,0,0,0-.19.14s0,.12.06.12A.89.89,0,0,0,64.89,232Zm13.48-33.8s-.06.09-.05.13.11.15.18,0a.19.19,0,0,0,0-.13S78.4,198.25,78.37,198.24ZM75.23,198l-.08-.11-.09.09a1.49,1.49,0,0,0,.12.14Z"/><path class="cls-2" d="M148.62,261.44c0,.15.2.38.14.44-2.24,2.61-3.19,6-5.34,8.69-1.71,2.12-3.19,4.43-5,6.48-1.07,1.25-2.87,1.46-4.31,2.19a19,19,0,0,0-2.27.23c-1.8.17-3.27,1.75-5.25,1.17-.34-.11-1,.43-1.12-.17-.21-.81.68-.41,1-.68s1-.07.91-.7-.66-.45-1.1-.5c-1.62-.2-2.86.77-4.27,1.28-.78.29-1.43.37-1.1,1.5.13.46-.2,1.3-.76,1.27-1.3-.05-1.89.13-2.19,1.69-.12.65-.71,1.25-.26,2.05a9.41,9.41,0,0,1-2.93,1.12c-1.19.63-2.14-.64-3.39-.35.28-.95,1-1.39,1.56-2,.19-.19.49-.39.69-.07,1.07,1.68,1.65.09,1.92-.46a5,5,0,0,1,2.63-2.49c.61-.28.59-.35-.12-.82a.62.62,0,0,1-.3-.69c.09-.38.38-.23.64-.24A1.7,1.7,0,0,0,120,278a1.69,1.69,0,0,1,.71-2.46,15.19,15.19,0,0,0,4.43-4.71c.54-1,.24-2.35,2.06-1.68.34.12.84-.4,1.06-.9s.57-1.06.86-1.58c.16-.31.63-.66,0-.87-.41-.13-.85,0-.83.51a1.67,1.67,0,0,1-1.65,1.59c-1.33-1-2.45.26-3.65.14h0c.82-1-.29-2.29.31-3.25.94-1.48,1.5-2.93.69-4.63h0c.33-.21.31-.44,0-.67a2.73,2.73,0,0,1,.21-.93c.48-1.47,1.61-2.67,1.73-4.26,0-.55.22-1.28-.72-1.38-.64-.06-1,.15-1.37.79a5.9,5.9,0,0,0-.59,2.82c-1,.69-2.76,1.19-3,2.11-.45,1.54-1.71,1.79-2.57,2.85-.42-1-.48-1.94-1.21-2.52-.58.26.25,1.14-.56,1.15-1.6,0-1,1.16-1.13,2-1.93.79-2.25,2.73-2.93,4.32s-1.45,3-2.22,4.46c-.94,1.78-2.34,3.32-3.21,5.2-.32.7-.16,1.47-1.14,2.12a13,13,0,0,0-2.38,2.77,1.27,1.27,0,0,0,.29,1.77c1.1.84,1.09,1.93,1,3.09l-.94,1.52c-.54-.4-.06-1.08-.73-1.4a3.39,3.39,0,0,1-2.89,1.25c-.84,0-1.45.82-1.73,1.52-.21.55.79.56,1.07,1l-1.3.06-1.76.06-.38-.34,1.4-.17c-1.14-.57-.92-1.09-.3-1.73a5.3,5.3,0,0,0,1.54-2.07c.29-1.14.72-1.85,2.45-1.83-2.13-1-1.3-3.23-2.86-4.12-.3-.18,0-1.12-.67-1.09a1.46,1.46,0,0,0-1.37,1.23,2.19,2.19,0,0,1-.51,1,4.39,4.39,0,0,0,.53,5.82c-.68.41-2.27,0-1.45,1.75.19.38-.47.53-.62.88-4.16-.53-7.67-2.66-11.24-4.61a.77.77,0,0,0,.78-1c-.11-.95.45-1.32,1.08-2,1.15-1.19,2.58-1.56,3.89-2.29a2.58,2.58,0,0,1,1.34,1.48,2.27,2.27,0,0,0,2.67,1.35,2,2,0,0,0,1.5-2.08,1.82,1.82,0,0,1,1.16-1.77A2.28,2.28,0,0,0,96.33,276a1.58,1.58,0,0,0,.72-.56c1.63-1.78,2.17-4.19,3.59-6.07h0L101,269c0-.55.33-.87.64-1.26a17.74,17.74,0,0,0,2.54-4.23,32.41,32.41,0,0,1,6-9.29c.86-.09.63-.76.68-1.28l0,0a1.68,1.68,0,0,0,1.3-1.61l0,0c.89-.49,1.77-1,2.68-1.48a1.62,1.62,0,0,1,1.57,0,1,1,0,0,1,.21,1.33,6.07,6.07,0,0,0-1,2.69c-.39,1.3-1.52,2.63-.59,4.35.82-1.76,1.69-3.31,2.28-5,.49-1.37.95-1.74,2.29-1.15.57.25,1.44.5,1.53-.15.15-1,1-1.83.83-2.9.77-1.76,1.52-3.51,2.3-5.26.13-.28.2-.51-.06-.72-1.65-1.37-.38-2.5.39-3.56,1-1.33,1.7-2.82,2.63-4.19.65-.95,1.07-1.49,2.14-1.42.86,0,1-.39,1.18-1.15a18.43,18.43,0,0,0,.64-4.49c0-1,.55-1.85,1.8-1.18a1.24,1.24,0,0,0,1.9-.63c.64-1.63,1.67-3.17,1.54-5,.87-.12.6-.8.64-1.33h0c1.23-.29.33-1.66,1.15-2.26a1,1,0,0,0-.19-1.55c-.7-.38-1.08.32-1.41.75-.2.26-.15.72-.2,1.08a2.93,2.93,0,0,0-1.69,1.46c-1.3,2-2.42,4-3.66,6-.63,1-1.18,2.28-2.11,2.81-3.41,1.92-5,5-6.36,8.44-.81.15-.93,1-1.41,1.42-.3.28-.55.83-1,.64a1.27,1.27,0,0,1-.86-1.24c0-.37,0-.74,0-1.12,0-1.58,1.17-2.81,1.4-4.38a23,23,0,0,1,1.55-5.84,58.09,58.09,0,0,0,2.93-9.07,60.46,60.46,0,0,1,3.09-8.35c1-2.3,2.3-4.44,2.88-6.91a1.91,1.91,0,0,1,1.3-1,3.52,3.52,0,0,1,3.61.19c1.43,1.14,2.79,2.36,4.27,3.45a1.51,1.51,0,0,1,.54,2c-1,1.77-.3,3.55-.48,5.39,1-.17,1.16-1.12,1.95-1.15l.78-.21a1.49,1.49,0,0,1,1.55.18c.54.54-.05.95-.2,1.44a7.37,7.37,0,0,0,.28,4.33c.09.27.6.45.61.31.08-1.24,1.82-1.28,1.8-2.53a5.2,5.2,0,0,1,1.06-2.56c.68-1.28,2-2.1,2.35-3.57l.12-.17-.16.13c-.84.22-1.33-.64-2.13-.67s-1.17-.35-.25-1a1,1,0,0,0,0-1.49c-.43-.39-.83.11-1.11.57a7.29,7.29,0,0,1-.72.86,1.06,1.06,0,0,1-1.32.34c-.6-.24-.21-.71-.17-1.11.08-.7.07-1.41.1-2.11-.3-2.65,1.4-4.86,1.61-7.5.19-2.34.72-4.4-.94-6.34,0-.32,0-.69-.28-.88-1-.57-.47-.92.11-1.4a9.66,9.66,0,0,0,1.91-2.38,10.52,10.52,0,0,1,3.54-3.84c1.32.63,1.28,1.83,1.3,3a3.92,3.92,0,0,0,3.68,4.18c.46,0,.89.06.87.68-.15.07-.37.09-.43.2-.52,1-.64,2.77-2.34,1a.33.33,0,0,0-.54.14c-.2,1-1.15,2.39-.36,3.07,1.22,1,1.27,2.46,1.49,3.61.32,1.71,1.18,3.77-.78,5.26-.45.35-.29.91-.21,1.39.06.32.33.4.62.4.53,0,.54-.44.66-.79.44-1.22,1.95-.8,2.66-1.73.21-.28.9.27,1.11.73a2.33,2.33,0,0,1,.05,2.07c-.87,1.17,0,1.36.72,1.73,0,.27,0,.66-.14.77-2,1.38-3.05,3.53-4.76,5.11-1.5,1.38-2.62,3.12-4.28,4.33h0l.68-1.62.33-.32.43-.44-.2-.14-.29.52-.32.33c-.89.05-1.35,1.34-2.49.88-.16-.07-.87.55-.34,1.07.22.22.46.33.15.58-1,.84-.07,1.07.42,1.46h0c-.71.12-1,1.74-2.15.59-.05-.05-1.59-.45-1.29.94.07.32-.29.45-.56.4-1.18-.19-1.42.66-1.44,1.46-.05,1.18-.81,2.51.5,3.51l2,.32c.36,2.67,2.51,3.6,4.52,4.68l0,1.24c.07.33,0,.71.31,1a3.18,3.18,0,0,0-.52,4.42,11.5,11.5,0,0,1,.9,2.57l-.07,4c-.21.43-.84.76-.31,1.36l.33.21,0,0v.16c-.95,0-1.3.72-1.58,1.46a10.08,10.08,0,0,0-2.93,5.11,42.12,42.12,0,0,1-4.28,6.76c-.9.24-1.14,1.11-1.58,1.76s0,.79.54.86c0,0-1.34,2.46-1.34,2.48,0,.66-.46.76-1,.85a1.27,1.27,0,0,0-.93,2c.58,1.07.59,1.72-.5,2.37a.83.83,0,0,0-.1,1.19c.46.5.75-.09,1-.38a1.67,1.67,0,0,1,1.06-.63,14.17,14.17,0,0,0,5.15-2.53c.82-.58,1-1.44-.08-2-.37-.2-.7-.31-.62-.79s.6-.5,1-.55,1.41.23,1.42-.41C146.21,261.18,147.48,261.47,148.62,261.44Zm-10.93-10.32c.08-1,.42-1.9.14-2.15-1.53-1.37-.92-3.15-.39-4.36.59-1.36-.26-2.55.21-3.78.13-.33-.5-.82-1-1a2.5,2.5,0,0,0-2.53.72c-.58.54-.25,1.25,0,2,.45,1.45,1,2.88-.55,4.23a3.48,3.48,0,0,0,0,5c1.29-1.25.62-3.34,2-4.61C136.47,248.2,136.49,249.74,137.69,251.12Zm-10.24,10.42a.94.94,0,0,0-.77.5,11.08,11.08,0,0,1-1.23,1.88c-.46.48-.45.85-.06,1.25s.88.28,1.32,0a6.07,6.07,0,0,1,1.36-.88c.6-.21,1.13-1,.9-1.07C128.17,262.83,128,261.93,127.45,261.54Zm-13.52-1.36c.09-.38,0-.55-.26-.58s-.49.17-.51.47,0,.63.34.57C113.69,260.62,113.84,260.29,113.93,260.18Zm-10.46,24.69c0-.08-.08-.21-.14-.22s-.17.05-.26.08l.19.3Zm22.61-18.35c.09,0,.2.12.26.1s.09-.17.13-.26-.2-.13-.27-.1S126.12,266.42,126.08,266.52Zm23.83-54.47c.09,0,.22-.06.24-.13s0-.17-.07-.26l-.32.17ZM147,217.2c-.08.05-.21.08-.23.15s.06.17.09.25l.31-.19Zm-29.71,41.31-.07-.1-.1.08.13.13Z"/><path class="cls-3" d="M131.22,202c-.58,2.47-1.92,4.61-2.88,6.91a60.46,60.46,0,0,0-3.09,8.35,58.09,58.09,0,0,1-2.93,9.07,23,23,0,0,0-1.55,5.84c-.23,1.57-1.35,2.8-1.4,4.38-1.21,1.51-1.42,3.4-1.93,5.18-.12.42.24.7.7.7s1,.16,1.13-.4c.32-1.14,1.32-1.69,2-2.48a3.76,3.76,0,0,0,1.34-2.7c1.32-3.41,2.95-6.52,6.36-8.44.93-.53,1.48-1.81,2.11-2.81,1.24-2,2.36-4.07,3.66-6a2.93,2.93,0,0,1,1.69-1.46c0,.74.84,1.19.65,2h0c-.87.13-.6.81-.64,1.33.13,1.87-.9,3.41-1.54,5a1.24,1.24,0,0,1-1.9.63c-1.25-.67-1.79.16-1.8,1.18a18.43,18.43,0,0,1-.64,4.49c-.19.76-.32,1.2-1.18,1.15-1.07-.07-1.49.47-2.14,1.42-.93,1.37-1.66,2.86-2.63,4.19-.77,1.06-2,2.19-.39,3.56.26.21.19.44.06.72-.78,1.75-1.53,3.5-2.3,5.26-1.36.76-2.85,2-4.27.51s-2.52-.85-3.88-.05c-.79.47-1.75.64-1.69,1.84l0,0c-1.25-.12-1.39.65-1.3,1.61l0,0c-.93.05-.6.78-.68,1.28a32.41,32.41,0,0,0-6,9.29,17.74,17.74,0,0,1-2.54,4.23c-.31.39-.69.71-.64,1.26l-.34.36h0c-.41,0-.64.3-1,.54-2,1.61-3.28,4.09-5.64,5.37a.6.6,0,0,0-.06-.11l-.09,0,.14.14c.09,1.21-1.44,1-1.67,2-.45.09-.94-.1-1.27.48a3.06,3.06,0,0,1-2.92,1.55c-1.31.73-2.74,1.1-3.89,2.29-.63.66-1.19,1-1.08,2a.77.77,0,0,1-.78,1,33.06,33.06,0,0,1-4.34-2.05c-.34-.92-.87-1.76-.36-2.87.43-.93-.33-1.09-1.09-1s-1.59.77-2.51.67c-.75,0-1.6-.2-1.69-1-.14-1.23-.77-1.16-1.67-1-1.46.2-2.47-.95-3.68-1.46-1-.41.65-1,.2-1.61-.27-.38.13-.92-.32-1.19-.2-.12-.76-.51-.64.08s.26.85-.39.83-.54-.61-.52-1a5,5,0,0,1,.16-2c.66.3.84,1.56,1.58.86a1.05,1.05,0,0,0-.52-1.81.93.93,0,0,1-.49-.59c-.11-.53-.24-1.28.56-1.25,2.42.08,2.05-1.5,1.94-3-1.28.53-2.42,1.67-3.94.69-.37-.25-.59.16-.74.42a.83.83,0,0,0,0,1.06c.18.21.7.14.56.66-.79.34-1,0-1.13-.78a2,2,0,0,0-2-2.09c-1.05-.09-1.78-.92-1.15-1.79,1-1.36.14-2.33-.25-3.45-.56-1.62-2.13-2.36-3.13-3.61v-1.27c1.38.74,1.68.59,1.93-1,.06-.37,0-.72.43-1a3.54,3.54,0,0,0,1.9-4.18,8.78,8.78,0,0,1,.39-3.27c.2-.75,2.44-.69,3.21.05.55.52,1.1,1,1.63,1.6a1.31,1.31,0,0,0,1.48.4c.68-.25,1.18-.47,1.34.67.11.76,1,.45,1.49.2,1.37-.67,2.27-.76,3,1s1.89,1.89,2.9.25c.46-.75,1-.72,1.67-.69.85,0,.45.74.53,1.13a2,2,0,0,0,3.42,1.14c.73-.81,1.88-.83,2.49-1.76.29-.44.82-.07,1,.38s.31,1.09.72,1c1.59-.47,2.4.91,3.6,1.28s1.39,1.78,2.76,1.67c.33,0,.25.73,0,1.13s-.64.77-.15,1.14.72-.3,1.09-.46c.88-.4.91-1.59,1.85-2,1.09-.43,1.87-1.36,3.15-1.59.79-.14,1.25-1,1.74-1.91.9-1.68,1.93-3.09,2.05-5.15,0-.7,1.53-1.54,2.34-2.34,1.74-1.71,1.84-2.31.28-4.24a2.51,2.51,0,0,1-.66-2.5c.22-.79.17-1.5,1.26-1.45.31,0,.41-.31.47-.59a16.51,16.51,0,0,0,5.66-2.53c5.54-3.89,7.55-9.79,5.92-17.19a14.63,14.63,0,0,0,4-5.38c.46-1.23,1.76-2.12,2.31-3.34a5.57,5.57,0,0,1,1.9-2.52c.54-.38.86-.71,1.53-.4.2.1.51,0,.78-.06-.39-1.53,1.39-2,1.57-3.27.16-1.1.32-2.16-1.3-2.19-.28,0-.6-.07-.5-.44,0-.17.37-.44.42-.41.63.37,1.19-.48,1.82-.08,1.12.71,1.78-.06,2.24-.88.61-1.09.78-2.45,1.35-3.46,1.16-2,1-4.27,1.7-6.34,0-.09.16-.15.24-.22.62.08.69.5.76,1,.48,3.34-1.3,6-2.62,8.79-.91,1.92-2.46,3.48-3.21,5.55C130.49,201.38,130.86,201.56,131.22,202ZM62.14,264.45l.13.08-.13-.08c0-.2,0-.44-.3-.49-.06,0-.19.13-.18.18C61.69,264.42,61.94,264.41,62.14,264.45Zm9.38-15.21c-1.3-.36-1.73.28-2.25,1C70.27,250.39,70.64,249.65,71.52,249.24Z"/><path class="cls-3" d="M86.14,181.92c0,.42.87,2.28.91,2.9s.93.08.66.69c-.21.45-.64.31-1,.33s-.85-.14-.88-.72c0-.36,0-.8-.65-.87.52,1.29.26,2.59.31,3.88,0,.62,0,1.35-.88,1.25s-.55-.68-.31-1.3a1.72,1.72,0,0,0-1.43-2.24c-.63-.5-.22-1.53-1-1.94-.63-.33-.68-.77-.21-1.32a.74.74,0,0,0-.1-1.15c-.46-.34-.9,0-1.14.31a1.7,1.7,0,0,1-1.74.85c.23-1.52,2.09-1.85,2.2-3.51.07-1.07-.19-2.23-1.27-2s-1.34-.45-1.55-1.26-.37-1.34-.58-2.1c-.3.14-.48.24-.67.32-.9.34-1.94.82-2.74.29-1-.64-.87-1.76-.5-2.84a2.54,2.54,0,0,0-.09-1.94c-.93.89-1.66,1.79-3,1.75-.49,0-1.47.44-.53,1.3.35.33.24.74-.07.68-1.06-.23-2,.87-2.18,1.08a5.35,5.35,0,0,1-3.53,2.27l-1.52.05a1.64,1.64,0,0,0-1.74.87,21.65,21.65,0,0,0-2,3.62l-.67.77h0c-1.21,0-1.33,1.29-2.17,1.8-1.53.91-1.8,2.53-1.78,4.19,0,.77.25,1.09.91.37s1-.39,1,.43-.27,1.57.6,2.05c-.11.3-.36.33-.62.35-.74-.31-.74-1.14-1.15-1.71a2.88,2.88,0,0,0-.59.56c-.37.63.51,4.57,1.12,5.15v.51c-.21.6-.64,1.21,0,1.81v1.65l0,3.86c-.11,0-.26,0-.31-.09-.9-1.29-.31-3.12-1.57-4.34-.33-.31.24-.66.61-.94s.33-.68-.18-.65a1.25,1.25,0,0,1-1.32-1.48,5.28,5.28,0,0,0-.73-2.59c0,.83-.4,1.38-.2,2.09.85,3,1.09,6.15,2.42,9h0c-.56,1.21.54,2.21.45,3.58-.72-.7-2-.83-1.07-2.23.17-.25-.11-.82-.5-1.12-1.36-1-1.69-2.86-3-4-.1-.1-.22-.35-.17-.43.9-1.39-.64-2.34-.65-3.57,0-.54-.49-1.27-.9-1.05a1.3,1.3,0,0,0-.71,1.64,17.46,17.46,0,0,0,1.2,2.31,2.39,2.39,0,0,1,.25,2.36,3.85,3.85,0,0,0,.94,3.51,5.91,5.91,0,0,1,1.44,4.49c-.16,1.38-1.41-.38-1.73.59-.52-.28-.71-.57,0-.89a9.7,9.7,0,0,0-1.62-1.75c-.63-.42-1-.48-.45-1.39.77-1.22.14-2-1.41-2.12-.32,0-.56-.41-.91-1.5a2.68,2.68,0,0,0-1.82,1.66c-.12.24-.34.5-.64.31-.14-.08-.2-.35-.24-.55-.16-.72.27-1.54-.33-2.2A50.47,50.47,0,0,1,43.1,194c.46-4.25.39-8.6,1.27-12.76a97.21,97.21,0,0,1,3.6-13.8l.24.37.09-.11c.8-1.3.42-2.92,1.06-4.31,1.37,1,1.38,1,3.1.26.29-.13.56-.15.72.12,1,1.59,1,.56,1.18-.38a1.21,1.21,0,0,1,.53-.78c1.49-.72.66-2.84,2.16-3.56a1.63,1.63,0,0,0-.25-.53c-.34-.38-.24-.82-.25-1.25s0-1,.44-1.14c.7-.22.5.54.73.83s.29.95.88,1.16a4.25,4.25,0,0,1,1.23-2.55c.75-.71.58-1.16-.15-1.45-1.21-.47-1.16-.91-.21-1.62.71-.52,1.09-1,.32-2-.51-.64-1.6-1.31-.95-2.5v0l.36-.3c1.75-1.12,3.1-2.74,4.94-3.76a6.68,6.68,0,0,1,4.92-.83c.3.58.83.63,1.4.62,1.58,0,3.13-.35,4.67-.51a81.31,81.31,0,0,1,10.59-.1c.74,0,2,.37,2,1.26a15.55,15.55,0,0,1-.62,4.64c-.22.61-.58,1.12-1.23.34l-.06-.06V147.7c-.8,0-1.11,1.41-2.14.58-.16-.13-.49.31-.4.57.39,1.1,0,2.26.43,3.39.73,1.89.11,4,.58,5.91a5.35,5.35,0,0,1-.18,3.77c.5.59,1.5-.51,1.64.68a15,15,0,0,0,.77,3.21c.57.91-.12,1.62-.5,2.24-.26.42-.64-.32-1-.46-.83-.33.29-1.79-.78-1.59-.75.14.18,1.45-.59,2.09-.29.23-.18.92-.31,1.4s-.06.7.4.9c1.13.5,1,1,0,1.56-.31.17-.56.41-.5.77.35,2.08-.69,4.21.49,6.31a6.18,6.18,0,0,1,.82,2.56c0,.62-.28,1.6.48,1.73s.16-1.17.83-1.45ZM56.88,169.73c.66,0,.65-.52.65-1a.65.65,0,0,0,.66-.59c.13-.83.54-.94,1.06-.31,1.18,1.46,1.52-.13,1.83-.64s-.15-1.33-.62-1.6c-.63-.38-.94.16-1,.82a.59.59,0,0,1-.59.65c-.48,0-.64-.25-.72-.69-.22-1.18-1.52-1.2-2.19-1.95-.52-.59-.73.12-.76.66,0,.38.13,1.27-.2,1-1.14-.79-1.28,1-2.11.64l-.13-.08.13.08c-.07.56-.36.86-.85.45s-.56-.19-.8.08-.46.75-.07,1,.16,1.11.92,1.26c.6-1.67,2.17-2.15,3.61-2.93-.55.73-.68,1.34,0,1.87.55-.23.29-1.12,1-1s.73.69.74,1.25c-.67,0-.65.52-.66,1l-.52.23.12.2ZM49,193.43c-.17-.64.37-1.71-.73-1.87-.86-.13-.57.75-.57,1.22,0,.71,0,1.54,1,1.56C49.37,194.36,48.94,193.78,49,193.43Zm12.34-44.2-.37.43c-.36.4-.62.82,0,1.19.29.17.66.59,1,.21s-.29-.69-.41-1.06S61.42,149.54,61.34,149.23ZM52,192c-.28-1-.18-1.93-.88-2.92C51,190.33,50.65,191.27,52,192Z"/><path class="cls-4" d="M151,214.81l-.68,1.62c-.33,0-.63.12-.6.54,0,.07.12.2.16.19.38-.09.39-.42.44-.73,1.66-1.21,2.78-3,4.28-4.33,1.71-1.58,2.81-3.73,4.76-5.11.15-.11.1-.5.14-.77.5-1,2.17-1.1,2-2.62.94,0,2.43-.28.91,1.39-.2.22-.33.51-.06.7s.82.36.88.28c1-1.37,1.36-.7,1.78.4a.68.68,0,0,0,1,.16c-1.24-1-.39-2.05-.23-3.24,1.3,1.89,2.27-.19,3.44,0a2.59,2.59,0,0,1-2.87-1.37c-.21-.42-1.26-.39-.71-1s1.22-1.18,1.8-.86c1.63.92,1.91-.16,2.36-1.26.3-.75.77-1.41.12-2.25a1.06,1.06,0,0,1,.28-1.47,1.84,1.84,0,0,0,.55-1.64c.51,0,.53.8,1.12.76.54-.73-.25-1.91.84-2.43a88.67,88.67,0,0,1-.72,14.85c-.39,2.58-1.7,5-2.87,7.37-.59,1.2-1.37,2.41-1.06,3.94.22,1-1.17,1.2-1.45,2.19-.66,2.3-1.62,4.51-2.46,6.75-1.33-.55-2.82-.59-4.12-1.29-.56-.3-1.52-.18-1.31.51.25.85-1.34,2,.12,2.29,1.29.24,1.92.7,2.22,1.85-.11.23-.22.46-.32.69-.63.23-1.39.09-1.89.68-.38.3-1.09.43-.54,1.2.2.28.28.79-.15,1s-.52-.26-.56-.61a.83.83,0,0,0-.87-.8c-.62,0-.62.67-.52,1,.17.54,0,.52-.42.53s-1.2.1-1,.71,1.19,1.14,1.63.84c.87-.57,1.64-.17,2.45-.22l1.17.6.2.65c-.06.14-.11.27-.16.41a2,2,0,0,1-1.84,0c-.31-.16-.78-.46-.91.15s-.27,1.1.36,1.44c.31.17.78-.1,1,.33-3.34,2.07-3.34,2.07-6.27,1.48a3.4,3.4,0,0,0,2-.82l-3.43.43a11.5,11.5,0,0,0-.9-2.57,3.18,3.18,0,0,1,.52-4.42c.21-.42.5-.86-.31-1,0-.41,0-.83,0-1.24.86.23,1.63.83,2.61.59a.78.78,0,0,1,.58.21c.94.92,2,.57,2.89-.56s.47-2.15.44-3.25c.72-.65.76-1.15-.2-1.69a9.31,9.31,0,0,0-3.67-1c-.11-.07-.36,0-.24-.27,0,0,.1,0,.15,0,.83,0,1-.64,1.46-1.66-.77.6-1.31-.29-1.82.6-.36.64-1.06.35-1.57,0s-.48-.84-.07-1.36.19-1,.14-1.57c.22-1-.88-1.94-2.28-2-.49-.39-1.46-.62-.42-1.46.31-.25.07-.36-.15-.58-.53-.52.18-1.14.34-1.07,1.14.46,1.6-.83,2.49-.88Zm3.63,22.62c-.57.23-1.69-.37-1.71.84,0,1,1.11.6,1.62.7s1.57-.27,1.59-1C156.11,237.11,155.17,237.61,154.6,237.43Zm2.87-7.77c.73,0,1.45.33,2.13-.07a.51.51,0,0,0-.09-.4C158.75,228.76,158.1,229.2,157.47,229.66Zm-5.41,5.76a1.65,1.65,0,0,0-.08.45c0,.21,0,.68.4.36S152.35,235.67,152.06,235.42Zm-.49-1.61c0-.14-.07-.32-.18-.4a.17.17,0,0,0-.3.15.77.77,0,0,0,.23.38A1.49,1.49,0,0,0,151.57,233.81Z"/><path class="cls-3" d="M172.64,191.79c-1.09.52-.3,1.7-.84,2.43-.59,0-.61-.73-1.12-.76-1.9-1.63-3.17-3.8-4.87-5.59-.67-.7-1.21-.85-2.05-.11a12.62,12.62,0,0,0-2.31,2.7l-2,0h0l-1.69-2c-1.77-2.17-3.94-4.06-4.86-6.84.39-.1.85-.15.84-.71,0-.09-.21-.23-.33-.24-.41,0-.47.31-.56.61-.55.13-1.08.23-1-.64.75-1,1-2.25,2.22-2.94.54-.3.86-.5,1.15.11s1,1.14,1.56.68.1-1.31-.33-1.81c-.7-.81-1.88-1.22-1.85-2.54-.71.25-.7,1.49-1.4,1-.9-.59.06-1,.42-1.5s.08-.69-.32-1c-.77-.65-1.93-.48-2.56-1.26a3.54,3.54,0,0,0-3.41-1.21c-1.56.18-3.09.67-4.69.3-.21-.05-.5.2-.72.35-1.49,1-2.64,2.42-4.33,3.11-.58.24-.38,1-.25,1.14,1.38,2,.2,3.86-.18,5.8-.23,1.17-1.58,2-1.07,3.33v0h-.63a1.2,1.2,0,0,1,.05-1.94,5.09,5.09,0,0,0,1.26-2.06c.06-.2.23-.51.16-.59-1.44-1.61-.15-3.3-.19-4.94,0-.15.08-.38-.18-.4,0,0-.09.23-.13.36l-1.33-1.27c1.24-.58,1.85-1.35.84-2.65-.13-.16-.33-.47-.27-.54.95-1.3.08-2-.87-2.62-.26-.18-.43-.74.05-.7,1.89.14,1.88-1.32,2.23-2.48.09-.31,0-.68.41-.81a.77.77,0,0,1,1,.3c.59,1.2,1.4.06,1.37-.08-.19-1.21.39-.85,1-.56,1,.49,1.47.23,1.56-1,.07-.93,1.64-1.58,2.1-.86.82,1.31,2,1.09,3.15,1.31.82.15,1.64-.06,2.62.18-1.76.71-1.51,2.17-1.62,3.53,1,.07,1.81-.7,2.79-.79.5,0,.72,0,.78.48h0a.57.57,0,0,0-.65.67v.95c.06.24.16.29.31.06h.65c.21,1,.83,1.9,1.08,2.79.51,1.85.64,2,2.46,1.29,1.25-.46,2-1.67,3.36-1.82l0,.68c0,.8-.51,1.9,1,2l0,.63a.71.71,0,0,0-1.05.58c.27,1-.56,1.37-.95,1.76-.54.58-.48,1.13-.77,1.86,2.27-.7,2.81-2.26,2.8-4.16l.69-.1,1.24.19a5.49,5.49,0,0,0,3.33-.8l.3-.29,0,0c1,.53,2.24.41,3,1.44a.5.5,0,0,0,.73.05c.61-.81,1,.2,1.51.14l.1.37,0,.62,0,.05-.32.32a2.44,2.44,0,0,0-1,2.41c0,.35-.34.77.18,1a.8.8,0,0,0,.89-.27c1.29-1.2,1.5-.05,1.55.8.1,1.74,0,3.5,0,5.25.07,2.19-.67,4.38,0,6.56Zm-5-16.68a.5.5,0,0,0-.28-.65c-.41-.19-.55.14-.7.45-.22.47-.57.48-.9.14s-.74-.53-1.13-.19-.09.78,0,1.2c.1.67.66,1.09.63,1.91s1.18.6,1.3.29C167,177.33,167.78,176.57,167.67,175.11Zm-6.29,2.78c2-.47,1.33-1.65,1.39-2.58,0-.29-.13-.61-.43-.57-.85.1-1.26.73-1.56,1.47a.69.69,0,0,1-.3.35c-.63.25-1.08.71-.85,1.36s.81.28,1.27.17c.14,0,.43,0,.43.09.15,1.87,1,.35,1.71.46C162.67,178.13,162.29,178.12,161.38,177.89Zm-16.59-11c1,0,2.26-1.19,2.16-2a.74.74,0,0,0-.75-.71c-.35,0-2.38,2.09-2.26,2.36S144.41,167,144.79,166.89Z"/><path class="cls-5" d="M97.52,138.54a123.14,123.14,0,0,1-1.24-17.16c0-.63.06-1,.79-1.13,3.45-.47,6.9-1,10.34-1.46.81-.12,1,.27.78.95-.15.52-.63,1-.38,1.55.7,1.51,0,2.78-.68,4-1.77,3-1.24,6.26-1.15,9.46,0,1.92.18,3.82.27,5.73a2.9,2.9,0,0,0-2,3,34.62,34.62,0,0,0,.51,6.64c.44,2.25,1.34,4.35,1.69,6.6.32,2.05,1.38,3.89,1.16,6.16s0,4.43-.43,6.63c-.11.66-.37,1.55-1,1.57a3.73,3.73,0,0,1-1.8-.52c-.71-.45.44-1,.24-1.56-2,.45-2.08.36-2.69-1.73s-1.19-4.05-1.79-6.07a1.58,1.58,0,0,0,0-.31c0-.46.22-.94-.27-1.28l-.34-3v-4.89c-.28.31-.44.58-.82.63l.08-.92c.78-2.78.07-5.65.52-8.47.12-.69-.64-1.39-.34-2.25C99.68,138.83,99.62,138.78,97.52,138.54Zm9.54,23.54-.26-.12c0,.09-.12.19-.09.25s.15.09.24.12S107,162.16,107.06,162.08Z"/><path class="cls-4" d="M159.49,170.06c-1.35.15-2.11,1.36-3.36,1.82-1.82.68-1.95.56-2.46-1.29-.25-.89-.87-1.79-1.08-2.79a6.36,6.36,0,0,1,.49-.84c.29-.37,1.37,0,1-.88-.23-.55-.86.15-1.33,0a2.67,2.67,0,0,0-.49,0c-.06-.49-.28-.53-.78-.48-1,.09-1.77.86-2.79.79.11-1.36-.14-2.82,1.62-3.53-1-.24-1.8,0-2.62-.18-1.16-.22-2.33,0-3.15-1.31-.46-.72-2-.07-2.1.86-.09,1.2-.53,1.46-1.56,1-.58-.29-1.16-.65-1,.56,0,.14-.78,1.28-1.37.08a.77.77,0,0,0-1-.3c-.4.13-.32.5-.41.81-.35,1.16-.34,2.62-2.23,2.48-.48,0-.31.52-.05.7,1,.67,1.82,1.32.87,2.62-.06.07.14.38.27.54,1,1.3.4,2.07-.84,2.65l0,0c0-.14,0-.29-.08-.43l-.23.14a3.45,3.45,0,0,1-3.59-2.3c.2,0,.56,0,.58,0,.27-1.18-.08-2.47.64-3.57-.89-.29.3-2.3-1.63-1.91a30.22,30.22,0,0,0,3.35-1.75c0,.13.06.37.11.37.28,0,.19-.22.23-.37l.13-.14-.14.13h-.32c0-1-1.15-.33-1.47-1l.6-.95a5,5,0,0,0,1-3c0-.9-1.42-.65-.93-1.58-.57,0-.7.53-.88.86-.47.84-1.16.4-1.74.38-.79,0-1.55-.37-2.25.42-.11.12-1.29,1.62-1.83-.07-.08-.24-.34,0-.51.12-.77.66-1.49.3-2.19-.16,1.43-1.86,3.16-3.54,3.33-6.12,0-.62.57-.2.9-.13l0,.39,0,.24.37-.26a4,4,0,0,1,1.28,2.87c0,.61.11,1.1.76,1.27s.45-.65.79-.81c.7-.32.31-1.4,1.15-1.59,1.09-.24,1.78-.79,1.59-2l.65.34c.17.41,1.22.39.59,1.19-.79,1,.48,1.26.81,1.67a2.11,2.11,0,0,0,2.1.3c1-1.78,1.89-.15,3-.08-.66-.9-.66-1.66.38-2.12h0c0,.73.1,1.56,1,1.67.62.09,1-.57,1.24-1.11A1.72,1.72,0,0,1,146,153c.49.09,1.7.32,1.55-.77-.13-.94.24-.64.72-.63a4.76,4.76,0,0,0,1.93-.1,10,10,0,0,1,4.3-1.16c.89,0,.44-.83.1-1.33l.65,0c1.79.3,2.69,1.82,3.94,2.87-.11.3-.37.64-.31.91.28,1.32-.88,1.91-1.54,2.43s-1-.84-1.62-1.18a1.8,1.8,0,0,0-.47-.12l-.18-.71s-.11,0-.12.09a.55.55,0,0,0,.25.66c0,2.7-2.44,1.88-4,2.63.38.19.62.24.74.38.53.66,1.66.26,2,1,1.18,2.32,2.21,2.94,4.63,2.6.41,0,.93-.22,1.13.33s-.35.6-.62.83c-.57.5-1.6.72-1.08,1.86a.34.34,0,0,1-.29.48c-1.33.23-1,1.19-.88,2,0,.05-.09.1-.13.16l.16-.13,2.35,0c-.47.77-.8,1.57-2,1.72-.91.11-.55,1.25-.83,1.9-.13.28.57.34.76.17,1.17-1,3.05-1.63,2.24-3.8.28-.08.85-.33.8,0C160.05,167.46,160.52,168.92,159.49,170.06Zm-4-5.62-.13.17a1.09,1.09,0,0,0,.17-.13l.13-.16Zm-.5.94c-.35-.08-.42.07-.42.24s.11.43.38.44.47-.08.4-.34S155.1,165.44,155,165.38Z"/><path class="cls-4" d="M123,268.07c1.2.12,2.32-1.12,3.65-.14a1.67,1.67,0,0,0,1.65-1.59c0-.49.42-.64.83-.51.67.21.2.56,0,.87-.29.52-.61,1-.86,1.58s-.72,1-1.06.9c-1.82-.67-1.52.7-2.06,1.68a15.19,15.19,0,0,1-4.43,4.71A1.69,1.69,0,0,0,120,278a1.7,1.7,0,0,1-1.61,2.38c-.26,0-.55-.14-.64.24a.62.62,0,0,0,.3.69c.71.47.73.54.12.82a5,5,0,0,0-2.63,2.49c-.27.55-.85,2.14-1.92.46-.2-.32-.5-.12-.69.07-.55.58-1.28,1-1.56,2,1.25-.29,2.2,1,3.39.35-1.58,1-3.47,1.07-5.17,1.75-1.28.51-2.43,1.42-3.94,1.46a1.14,1.14,0,0,0-.93,1.58,4.28,4.28,0,0,1-.23,2.69,22.08,22.08,0,0,1-.72-3.07c0-.74-.32-1.79-1.63-1.68-.93.08-1.91-.38-1.18,1.35a7.26,7.26,0,0,1,.28,3.79c-1.1-.69-.3-2.11-1.31-2.64v0c.54-.66,0-1.42.23-2.16.18-.54-.69-.46-1.14-.52s-1,.42-1.4-.28l1.31-.06c.62.1.91-.88,1.6-.53,1.93,1,4,.43,6,.57.72.05,1-.36.92-1s.55-1.88-.5-2.06c-.87-.15-.75-.52-.8-1a11,11,0,0,1,.67-4.47v-.58c.83,0,.74,1.61,1.81,1a1.59,1.59,0,0,0,.82-1.74c.57-1.38.71-2.88,1.34-4.26,1.07-2.34.46-5.11,2-7.4,1.17-1.71,1.55-3.9,2.92-5.54a.41.41,0,0,0,0-.58c-.34-.43-.69-.11-1,0,.1-.81-.47-2,1.13-2,.81,0,0-.89.56-1.15.73.58.79,1.55,1.21,2.52.86-1.06,2.12-1.31,2.57-2.85.27-.92,2-1.42,3-2.11,0,.26,0,.63-.12.77-1.38,1.24-2.61,2.48-2.68,4.58,0,.61-.61,1.21,0,1.85a.8.8,0,0,0,.88.29c.91-.36.58-1.18.64-1.84.09-1.24.53-2.12,2-2,.81,1.7.25,3.15-.69,4.63-.6,1,.51,2.22-.31,3.25-.24,0-.52,0-.5.4,0,0,.07.1.1.1C123,268.59,123,268.31,123,268.07Z"/><path class="cls-1" d="M85.83,181.87c-.67.28.06,1.6-.83,1.45s-.46-1.11-.48-1.73A6.18,6.18,0,0,0,83.7,179c-1.18-2.1-.14-4.23-.49-6.31-.06-.36.19-.6.5-.77,1-.52,1.13-1.06,0-1.56-.46-.2-.51-.47-.4-.9s0-1.17.31-1.4c.77-.64-.16-2,.59-2.09,1.07-.2,0,1.26.78,1.59.36.14.74.88,1,.46.38-.62,1.07-1.33.5-2.24a15,15,0,0,1-.77-3.21c-.14-1.19-1.14-.09-1.64-.68a5.35,5.35,0,0,0,.18-3.77c-.47-1.94.15-4-.58-5.91-.44-1.13,0-2.29-.43-3.39-.09-.26.24-.7.4-.57,1,.83,1.34-.59,2.14-.58v1.61l-.12.18.18-.12c.65.78,1,.27,1.23-.34a15.55,15.55,0,0,0,.62-4.64c0-.89-1.25-1.24-2-1.26a81.31,81.31,0,0,0-10.59.1c-1.54.16-3.09.48-4.67.51-.57,0-1.1,0-1.4-.62,4.45.2,8.86-.63,13.31-.66a11.38,11.38,0,0,1,6.21,1.26c2.42,1.41,5.2,2.21,7.12,4.42a5.31,5.31,0,0,0-.56,2.65c.08,1.63.15,3.38,1.85,4.36.3,1.85-.79,3.49-.72,5.37,0,1.69,1.18,3.16.72,4.87-4.19,1.77-8.42,3.47-11.8,6.67-.38,0-.67.2-.64.59.19,2.8-.81,5.78,1.26,8.29A.81.81,0,0,1,85.83,181.87Z"/><path class="cls-2" d="M97,165.39c.46-1.71-.67-3.18-.72-4.87-.07-1.88,1-3.52.72-5.37a2,2,0,0,0,1.79-2.83c.38,0,.54-.32.82-.63v4.89c-.47-.31-.13-1-.48-1.43-.76.92,0,1.81-.34,2.75a8.26,8.26,0,0,0-.09,5.72c.15.46.28.53.58.58s.31-.3.36-.54c.19-.83.4-1.66.59-2.49.6,2,1.2,4.05,1.79,6.07s.73,2.18,2.69,1.73c.2.59-1,1.11-.24,1.56a3.73,3.73,0,0,0,1.8.52c.59,0,.85-.91,1-1.57.38-2.2.23-4.44.43-6.63s-.84-4.11-1.16-6.16c-.35-2.25-1.25-4.35-1.69-6.6a34.62,34.62,0,0,1-.51-6.64,2.9,2.9,0,0,1,2-3c.93,1.47-.07,3.29.91,4.81.31.48-.54,1-.87,1.44s-.61.91-.52,1.27c.14.54.72.16,1.12.18a5.53,5.53,0,0,1,1.23.35c-.63,1.08.3,6,1.35,7.07.81.57,1.54,1.43,2.66.6.21.63.73.73,1.3.72h0c.23.36.45.3.67,0l.16,0h.16l.37.34,0,.32c-.93.24-1.41,1.42-2.66,1.12-.52-.13-.59.54-.53,1.11a10.32,10.32,0,0,1-1.39,6.43c.08.81,1.92.14,1.09,1.63-.14.24.29.46.69.26.67-.35,1.38,0,2.06.05.39,0,1,.21.71.95-.51,1.38.42,1.34,1.33,1.28a4.29,4.29,0,0,1-.8,3.21c-.38.56-.79.77-1.28.14a3.29,3.29,0,0,0-2-1.1c-.72-.2.59-1.54-.13-2.39l-1.76.75c.3.19.54.25.64.4.54.85.71,2.24.14,2.56a1.67,1.67,0,0,1-2.38-1.24,7.45,7.45,0,0,0-.92-1.56,18.29,18.29,0,0,1-1.12,1.52c-.56.6-.55,1,.24,1.34s1.25.88.71,1.65-1.19.2-1.82-.12-.54-1-.71-1.52c.08-.13.16-.25.23-.38s-.08-.06-.12-.1l-.16.44c-1.19-.33-1.24.83-1.74,1.56-.37-2.49-.37-2.49-2.67-4a.8.8,0,0,1-.36-.81c0-2.25,0-2.24-2-1.33a1,1,0,0,1-.35,0c0-.74-.64-1.43-.36-2.2.36-1,1.58,0,2.08-.78C98.88,165.54,98.47,164.17,97,165.39Zm3.13-.14s.09,0,.1-.07,0-.08,0-.13l-.16.09Z"/><path class="cls-5" d="M134.82,152.66l-.65-.34c-.08-.49-.06-.85-.89-.69-1.34.25-3,.82-3.53-1.35-.06-.27-.64-.39-.87-.67-.63-.73-1.41-1.41-.67-2.55.86-1.32.87-1.42-.52-2.24-1.65-1-3.41-1.54-5.33-.65a1.84,1.84,0,0,1-2,0c4.49-1.93,9.31-1.48,14-1.86,1.62-.14,3.27,0,4.9-.12a4.58,4.58,0,0,1,2,.6c3.71,1.45,7.42,2.91,11.11,4.43a2.72,2.72,0,0,1,1.59,1.08l-.08.09c-.51.38-1.78-.48-1.64,1h0c-.41-.24-1.1.22-1.32-.58-.13-.47-.56-.48-.93-.21s-.4.61,0,.94.67.37.17.69a.71.71,0,0,1-1-.11c-.18-.25-.16-.66-.35-.89-.37-.44-.82-1.13-1.46-.68-.8.56.24.92.36,1.4a2.93,2.93,0,0,1-.77.29c-2,.17-3.48.84-3.91,3-.13.66-.82.34-1.26.43h0c-.1-.37.5-.88-.13-1.13s-.67.42-1,.67,0,1.34-.91,1-2.08-.12-2.7-1.38C136.58,151.92,135.58,152.24,134.82,152.66Z"/><path class="cls-2" d="M56.92,254.92v1.27c-1.3,1.72-.93,3.2,1.07,4.38.79-.75-1.17-1.41-.09-2.23,1.24,1.71,1.26,2,.24,3.3-.48.6-.09,3,.58,3,1.07.1,1.21.85,1.43,1.59.09.3,0,.67.35.86.91.52,1,.57.17,1.42-1.08,1.14.06,1.58.59,2.25.9,1.12.81-.55,1.3-.49,1.11,1.32.7,3.11,1.54,4.48-3.44-2.92-6-6.61-8.66-10.17a43.69,43.69,0,0,1-5.16-8.11c1.38-2.28.12-4.49-.21-6.72,0-.14-.31-.32-.29-.37,1-1.62-.33-3.26.06-4.87.06-.23.47-.52.13-.66-1.4-.61-1.45-1.06,0-1.62.46-.18.26-.76.11-1.19-.49-1.45-1.51-2.78,0-4.38.59-.61,0-2.14,1.08-2.87.61.35.85,1.24,1.7,1.35h0c-.23,1,.66,2.36-1,2.83a10.36,10.36,0,0,0,1.36,3.56c.39.06.42-.63,1.12-.42-1.15,1.85-.22,3.46.49,5.14.29.68.59.86,1.2.53.27-.14.5-.53.74,0,.12.25.09.65-.18.72-2.59.62-.85,1.8-.37,2.81,0,.2,0,.4,0,.6.5,1.16,1.12,2.29.17,3.56C56.21,254.79,56.69,254.85,56.92,254.92Zm-.35,9c.21-.53.69-1,.18-1.59a.28.28,0,0,0-.29,0A1.22,1.22,0,0,0,56.57,263.93Z"/><path class="cls-2" d="M156.85,166.1c-.08-.84-.45-1.8.88-2a.34.34,0,0,0,.29-.48c-.52-1.14.51-1.36,1.08-1.86.27-.23.8-.33.62-.83s-.72-.38-1.13-.33c-2.42.34-3.45-.28-4.63-2.6-.36-.74-1.49-.34-2-1-.12-.14-.36-.19-.74-.38,1.56-.75,4,.07,4-2.63l.05,0a1.8,1.8,0,0,1,.47.12c.62.34,1,1.69,1.62,1.18s1.82-1.11,1.54-2.43c-.06-.27.2-.61.31-.91a20.59,20.59,0,0,1,5.21,6.34c-.26.28,0,.24.16.25l-.08,0c.1.14.2.29.31.43l0,0c-.56,1.52-2,2.19-3.23,2.8a3.91,3.91,0,0,0-2.45,3.66c.35-.39.76-.82,1.26-.29.7.74,1,.1,1.62-.21,1-.54,1.54-2.08,3.09-1.45.12.05.44-.15.52-.3.49-.91.88,0,1.3,0l0-.07a2.29,2.29,0,0,1-2.21,2.65c-1.54.24-3,.6-2.41,3-.73-.68,0-1.91-1-1.74s-.23,1.12-.35,1.66c-.16.76,1,2.69-1.36,2.17l0-.68c1-1.14.56-2.6.75-3.91,0-.34-.52-.09-.8,0h-.21l-2.35,0Z"/><path class="cls-1" d="M148.62,261.44c-1.14,0-2.41-.26-2.42,1.62,0,.64-.91.34-1.42.41s-.92-.06-1,.55.25.59.62.79c1.09.59.9,1.45.08,2a14.17,14.17,0,0,1-5.15,2.53,1.67,1.67,0,0,0-1.06.63c-.24.29-.53.88-1,.38a.83.83,0,0,1,.1-1.19c1.09-.65,1.08-1.3.5-2.37a1.27,1.27,0,0,1,.93-2c.51-.09,1-.19,1-.85,0,0,1.34-2.47,1.34-2.48.52-.48,1.34-.62,1.61-1.38a98,98,0,0,1,9.38-7.36c.29-.2.54-.6,1-.24C151.77,255.59,150.93,258.88,148.62,261.44Z"/><path class="cls-1" d="M58.84,148c-.65,1.19.44,1.86.95,2.5.77,1,.39,1.46-.32,2-.95.71-1,1.15.21,1.62.73.29.9.74.15,1.45a4.25,4.25,0,0,0-1.23,2.55c-.59-.21-.59-.79-.88-1.16s0-1.05-.73-.83c-.49.16-.46.7-.44,1.14s-.09.87.25,1.25a1.63,1.63,0,0,1,.25.53c-1.5.72-.67,2.84-2.16,3.56a1.21,1.21,0,0,0-.53.78c-.17.94-.22,2-1.18.38-.16-.27-.43-.25-.72-.12-1.72.73-1.73.72-3.1-.26-.64,1.39-.26,3-1.06,4.31l-.09.11-.24-.37c.53-3.71,1.88-7.21,2.78-10.83A1.46,1.46,0,0,1,51,156c1.2.39,1.49-.7,2-1.29C54.8,152.38,56.89,150.25,58.84,148ZM50.3,160.55c0,.51-.06,1,.24,1.32s.5,1,1.2.94a1.27,1.27,0,0,0,1.09-.86c.33-.84-.54-.51-.81-.78s-.36-.53-.28-.7c.36-.85.12-1.13-.78-1.12C49.84,159.37,50.54,160.22,50.3,160.55Z"/><path class="cls-1" d="M64.1,274.79c-.84-1.37-.43-3.16-1.54-4.48-.49-.06-.4,1.61-1.3.49-.53-.67-1.67-1.11-.59-2.25.8-.85.74-.9-.17-1.42-.35-.19-.26-.56-.35-.86-.22-.74-.36-1.49-1.43-1.59-.67-.06-1.06-2.44-.58-3,1-1.27,1-1.59-.24-3.3-1.08.82.88,1.48.09,2.23-2-1.18-2.37-2.66-1.07-4.38,1,1.25,2.57,2,3.13,3.61.39,1.12,1.23,2.09.25,3.45-.63.87.1,1.7,1.15,1.79a2,2,0,0,1,2,2.09c.08.78.34,1.12,1.13.78.14-.52-.38-.45-.56-.66a.83.83,0,0,1,0-1.06c.15-.26.37-.67.74-.42,1.52,1,2.66-.16,3.94-.69.11,1.53.48,3.11-1.94,3-.8,0-.67.72-.56,1.25a.93.93,0,0,0,.49.59,1.05,1.05,0,0,1,.52,1.81c-.74.7-.92-.56-1.58-.86a5,5,0,0,0-.16,2c0,.4-.12,1,.52,1s.49-.3.39-.83.44-.2.64-.08c.45.27,0,.81.32,1.19.45.6-1.17,1.2-.2,1.61,1.21.51,2.22,1.66,3.68,1.46.9-.12,1.53-.19,1.67,1,.09.79.94,1,1.69,1l-.95.35A77.61,77.61,0,0,1,64.1,274.79Z"/><path class="cls-1" d="M109.47,155.59c-1-1.11-2-6-1.35-7.07.08-.28.27-.3.5-.24l1.42-.08H110c1.39-.63,3.43.16,4.19-1.88h.07a2.63,2.63,0,0,0,2-.28,1.29,1.29,0,0,1,1.39-.22,5.93,5.93,0,0,0,5.41,0,2,2,0,0,1,1.59.12,4.72,4.72,0,0,1,3.25,4c-1.49,0-2.74-1-4.23-.92-1.1.38-2.3.33-3.39.88a2,2,0,0,1-2.11-.09,1.8,1.8,0,0,0-2.11.19,13.74,13.74,0,0,1-1.45-.68c-.5-.3-.76-.08-.81.35-.2,1.77-1.72,2.47-2.88,3.29A2.7,2.7,0,0,0,109.47,155.59Z"/><path class="cls-5" d="M159.52,170.74c2.31.52,1.2-1.41,1.36-2.17.12-.54-.64-1.5.35-1.66s.25,1.06,1,1.74c-.6-2.37.87-2.73,2.41-3a2.29,2.29,0,0,0,2.21-2.65,57.26,57.26,0,0,1,3.38,9.05c-.21-.07-.56-.1-.6-.22-.46-1.6-1.34-1.37-2.41-.62-.19.14-.52.1-.79.13-.75.1-1.6-1.37-2-.37a8.73,8.73,0,0,1-2,2.46l-1.24-.19a.6.6,0,0,0-.68-.57C159,172.64,159.56,171.54,159.52,170.74Z"/><path class="cls-6" d="M151,239.83l3.43-.43a3.4,3.4,0,0,1-2,.82c2.93.59,2.93.59,6.27-1.48-.24-.43-.71-.16-1-.33-.63-.34-.47-.94-.36-1.44s.6-.31.91-.15a2,2,0,0,0,1.84,0,46,46,0,0,1-2.55,6.57c-1,1.81-1.89,3.69-2.82,5.55-.3-.86-.28-2-1.75-1.74-.38.06-.83-.38-.7-1,.23-1.22-.5-1-1.25-.8l0,0,0-.36,0-1.21Z"/><path class="cls-4" d="M117.73,286.38c-.45-.8.14-1.4.26-2.05.3-1.56.89-1.74,2.19-1.69.56,0,.89-.81.76-1.27-.33-1.13.32-1.21,1.1-1.5,1.41-.51,2.65-1.48,4.27-1.28.44.05,1,0,1.1.5s-.61.45-.91.7-1.2-.13-1,.68c.16.6.78.06,1.12.17,2,.58,3.45-1,5.25-1.17a19,19,0,0,1,2.27-.23c-4,2.65-8.64,3.94-12.93,6A10.9,10.9,0,0,1,117.73,286.38Z"/><path class="cls-2" d="M127.91,150a4.72,4.72,0,0,0-3.25-4,2,2,0,0,0-1.59-.12,5.93,5.93,0,0,1-5.41,0,1.29,1.29,0,0,0-1.39.22,2.63,2.63,0,0,1-2,.28,25.66,25.66,0,0,1,6.14-2.18,1.84,1.84,0,0,0,2,0c1.92-.89,3.68-.33,5.33.65,1.39.82,1.38.92.52,2.24-.74,1.14,0,1.82.67,2.55.23.28.81.4.87.67.55,2.17,2.19,1.6,3.53,1.35.83-.16.81.2.89.69.19,1.24-.5,1.79-1.59,2-.84.19-.45,1.27-1.15,1.59-.34.16-.08,1-.79.81s-.78-.66-.76-1.27a4,4,0,0,0-1.28-2.87l-.35,0c0-.13,0-.26,0-.39C128.64,151.41,128.92,150.6,127.91,150Z"/><path class="cls-6" d="M153.08,252.53c-.44-.36-.69,0-1,.24a98,98,0,0,0-9.38,7.36c-.42-.31-.35-.84-.57-1.24a41.77,41.77,0,0,0,4.28-6.77c.47-.14,1,.44,1.4,0,1.81-1.63,4.29-1.19,6.34-2.07C153.8,250.91,153.44,251.72,153.08,252.53Z"/><path class="cls-5" d="M93.67,289.17c.15-.35.81-.5.62-.88-.82-1.7.77-1.34,1.45-1.75a4.39,4.39,0,0,1-.53-5.82,2.19,2.19,0,0,0,.51-1,1.46,1.46,0,0,1,1.37-1.23c.71,0,.37.91.67,1.09,1.56.89.73,3.15,2.86,4.12-1.73,0-2.16.69-2.45,1.83a5.3,5.3,0,0,1-1.54,2.07c-.62.64-.84,1.16.3,1.73l-1.4.17a4.13,4.13,0,0,0-1.68,0Z"/><path class="cls-4" d="M154.17,250.1c-2,.88-4.53.44-6.34,2.07-.44.39-.93-.19-1.4,0a10.14,10.14,0,0,1,2.92-5.1c.15,1.23.87,1.06,1.73.76,1.27-.45.23-.95.07-1.44-.09-.26-.14-.52-.21-.78v-.16c.75-.25,1.48-.42,1.25.8-.13.65.32,1.09.7,1,1.47-.22,1.45.88,1.75,1.74Z"/><path class="cls-5" d="M166.88,163.1c-.42,0-.81-1-1.3,0-.08.15-.4.35-.52.3-1.55-.63-2.11.91-3.09,1.45-.58.31-.92.95-1.62.21-.5-.53-.91-.1-1.26.29a3.91,3.91,0,0,1,2.45-3.66c1.25-.61,2.67-1.28,3.23-2.8a8.35,8.35,0,0,0,1.66,2.31C167.18,161.69,166.6,162.48,166.88,163.1Z"/><path class="cls-6" d="M161,230.25c-.3-1.15-.93-1.61-2.22-1.85-1.46-.27.13-1.44-.12-2.29-.21-.69.75-.81,1.31-.51,1.3.7,2.79.74,4.12,1.29.2,1.92-.76,3.34-2,4.68C161.73,231.15,162.37,229.83,161,230.25Z"/><path class="cls-7" d="M98.77,152.32A2,2,0,0,1,97,155.15c-1.7-1-1.77-2.73-1.85-4.36a5.31,5.31,0,0,1,.56-2.65l2.61,1.61c0,.62,0,1.24.55,1.65Z"/><path class="cls-2" d="M98.85,151.4c-.6-.41-.57-1-.55-1.65.58-.5.26-1.15.13-1.66-.78-3.14-.5-6.38-.9-9.55,2.09.24,2.15.29,1.5,2.14-.3.86.46,1.56.34,2.25C98.92,145.75,99.63,148.62,98.85,151.4Z"/><path class="cls-2" d="M172.69,191.1c-.69-2.18.05-4.37,0-6.56,0-1.75.06-3.51,0-5.25,0-.85-.26-2-1.55-.8a.8.8,0,0,1-.89.27c-.52-.24-.15-.66-.18-1a2.44,2.44,0,0,1,1-2.41c.46.24.26-.17.32-.32l0-.05c.31-.18.33-.39,0-.62,0-.13-.07-.25-.1-.37l0-.3c.51,0,.87.1,1,.79C173.26,180,173,185.55,172.69,191.1Z"/><path class="cls-8" d="M73.18,279.66l.95-.35c.92.1,1.65-.56,2.51-.67s1.52.07,1.09,1c-.51,1.11,0,1.95.36,2.87Z"/><path class="cls-1" d="M171.34,173.68l0,.3c-.51.06-.9-.95-1.51-.14a.5.5,0,0,1-.73-.05c-.74-1-2-.91-3-1.44l.32-1c.27,0,.6,0,.79-.13,1.07-.75,2-1,2.41.62,0,.12.39.15.6.22C170.58,172.62,171,173.15,171.34,173.68Z"/><path class="cls-9" d="M93.85,289.55a4.13,4.13,0,0,1,1.68,0l.38.34c.35,1.45.38,2.81-1,3.77-.14.09-.27.44-.45.09-.08-.16,0-.41,0-.63.78-1.55-.22-1.71-1.37-1.77C93.3,290.7,93.26,290,93.85,289.55Z"/><path class="cls-6" d="M158.78,231.62c.5-.59,1.26-.45,1.88-.68a.3.3,0,0,1,.16,0s.11.06.11.09c0,.52-.72.63-.65,1.22.59.1,1.17.47,1.76,0-.81,1.32-.83,3-1.87,4.2-.07-.21-.13-.43-.2-.65.21-.73-.59-.83-.81-1.29a.37.37,0,0,1,0-.29c.89-.71.75-1.25-.28-1.64Z"/><path class="cls-4" d="M100,292.73c-.26.73-1.51.75-1.24,1.89a5.64,5.64,0,0,1-.86-2.61c0-.39-.42-1,.23-1.06a.77.77,0,0,1,.88.9c-.07.78.07,1.27,1,.9Z"/><path class="cls-2" d="M110,148.2l-1.42.08c1.66-1.17,3.69-1.32,5.53-2-.76,2-2.8,1.25-4.19,1.88Z"/><path class="cls-10" d="M93.08,291.31c1.15.06,2.15.22,1.37,1.77-.36-.25-.46.12-.57.29a.81.81,0,0,1-1,.33c-.38-.17,0-.55,0-.84Z"/><path class="cls-11" d="M162,232.24c-.59.51-1.17.14-1.76,0-.07-.59.66-.7.65-1.22,0,0-.07-.07-.11-.09a.3.3,0,0,0-.16,0l.33-.69c1.38-.42.74.9,1.14,1.32Z"/><path class="cls-5" d="M155.25,149l-.65,0c-.39-.07-1.33.41-.7-.69l.08-.09A1.62,1.62,0,0,1,155.25,149Z"/><path class="cls-5" d="M164.56,158.47c-.17,0-.42,0-.16-.25A.29.29,0,0,1,164.56,158.47Z"/><path class="cls-5" d="M164.79,158.87c-.11-.14-.21-.29-.31-.43C164.58,158.58,164.68,158.73,164.79,158.87Z"/><path class="cls-1" d="M59.19,147.71l-.36.3Z"/><path class="cls-7" d="M56.2,191.1c.26,0,.51,0,.62-.35,1-1.74.38-3.7.68-5.55.18-1.12,1.12-2.07.71-3.29h0c.57.05.67-.32.67-.77a21.65,21.65,0,0,1,2-3.62,1.64,1.64,0,0,1,1.74-.87c-.22.62-.72,1.25.23,1.75.63.33.26.75,0,1.17-1,1.6-2.23,3.14-1.74,5.24-1,.78-1.84,1.66-1.46,3.12.07.24-1,.19-.2.68.52.32.62-.05.77-.45a12.67,12.67,0,0,0,1-3.23,3.76,3.76,0,0,0,.78-1.34c.29-1.25,1.45-2.19,1.48-3.59,1.58,0,.69-1.48.62-1.51-1.17-.67-.1-1.28,0-1.89a5.35,5.35,0,0,0,3.53-2.27c.14-.21,1.12-1.31,2.18-1.08.31.06.42-.35.07-.68-.94-.86,0-1.31.53-1.3,1.36,0,2.09-.86,3-1.75a2.54,2.54,0,0,1,.09,1.94c-.37,1.08-.45,2.2.5,2.84.8.53,1.84,0,2.74-.29.19-.08.37-.18.67-.32.21.76.41,1.43.58,2.1s.34,1.48,1.55,1.26,1.34,1,1.27,2c-.11,1.66-2,2-2.2,3.51a1.7,1.7,0,0,0,1.74-.85c.24-.31.68-.65,1.14-.31a.74.74,0,0,1,.1,1.15c-.47.55-.42,1,.21,1.32.81.41.4,1.44,1,1.94-.15,1.28-1.52,2.51-.15,3.86a.33.33,0,0,1,0,.3c-1.58,1-1.12,3.6-3.32,4.11-.4-.42.31-.85.07-1.41l-1.1.85c-.07-.61-.29-1.17.31-1.42s.7-.61.48-1S78.36,191,78,191c-1.15.23-1.17,1.15-1.13,2,0,.54.31,1.14-.57.47-.19-.15-.27-.06-.25.11.1.94-.84,1.53-.75,2.45-.5-.06-.09-.61-.58-.74.39,2.14-2.23,3.18-1.66,5.4a3,3,0,0,1-.39-3.14,2,2,0,0,0-.27-2.22.52.52,0,0,0,.25-.65s-.08-.06-.12-.09l-.16.72c-1,.09-1.67.56-1.5,1.65.06.39.54.87,0,1.1-.82.37-.19-.86-1-.8-.1,1.33-.22,2.74-.33,4.15,0,.37.26.43.52.49l.14.07L70,202c0-.3-.12-.69.24-.85s.41.4.7.48l.11.1c0,.45,0,1-.6.92-1-.15-.79.83-1.25,1.16a.37.37,0,0,0,0,.57c.28.27.44,0,.66-.18s0-.79.43-.44c.14.1.69.48.36.91-.55.73-.16,1.57-.32,2.35-.46-.3-.72-.64-.45-1.23.14-.3.15-.68-.31-.74s-.5.29-.55.63,0,.67-.41.67c0-2.35-.7-4.73.33-7,.23-.94,0-2.23.43-2.78,1-1.4.83-2.09-.61-2.66-.18,1.6-1,3.13-.78,4.82-.49-.22-.94-.62-1.33.23s-.85.57-1.38,0c-.21-.2,0-1-.66-.6-.41.23-.33.61-.24,1a3,3,0,0,1-.16,1.43,5,5,0,0,0,.19,3.44l0,0c-.71.93.4,2-.1,2.84-1,1.8.24,3.62-.14,5.41,0,.18.09.49.49.67.78.34,1.12,2.26.45,2.55-.46.21-.4.41-.35.61a42.45,42.45,0,0,0,2.5,7.75c.11.22.28.58.58.32s.15-.5.21-.76c.46.39.56,1.48,1.59.75.42-.3.53.27.65.46a65.74,65.74,0,0,1,3.28,6.69c.18.38.12.6-.24.78-.89.45-.61,1.13-.35,1.81l-.14.12c-.93-.6-.8-1.55-.87-2.46s-.32-1.62-1.31-.61l-.07.07-.6-.15c-.45-.64-.93-1.08-1.62-.26l-.07.07-.29,0c-.29-.74-.83-.38-1.3-.27l-.34,0a3.35,3.35,0,0,1-.72-3.81c-1.24.24-2-.06-2.41-1.33-.12-.36-.52-1.82-1.69-.55-.27.29-1.56-.1-2.09-.7s-.31-1.06.48-1.33a.62.62,0,0,0,.24-1c-.91-1.26-.61-2.85-1.24-4.33l-.26,1.13-.23,0a9.07,9.07,0,0,1,0-2c.19-.79-.6-.61-.84-1s-.49.34-.82.42h0c0-1,.26-2.22-1.49-1.17-.2-.89-.17-1.76-.39-2.6a2.24,2.24,0,0,1,.52-2.24,2.37,2.37,0,0,0,.38-2.83c-.54-1.1-.39-2.54-1.62-3.32h0c.23-.14.47-.41.68-.38.57.07.56.12.6-.64l0-3.86a.69.69,0,0,0,0-1.16c0-.17,0-.33,0-.49-.05-.6.71-1.21,0-1.81v-.51A9.57,9.57,0,0,0,56.2,191.1Zm3,.34a7.18,7.18,0,0,0,.62-2.22c-1,.62-1,.62-.62,2.21-.24.09-.45.2-.45.5,0,0,.09.08.13.07C59.2,192,59.15,191.67,59.18,191.44ZM62.9,208.5c0-1.44-.47-3.12.12-4.25.69-1.3-.34-2.22,0-3.38s1-2.65.66-4C61.68,200.55,61.81,204.49,62.9,208.5Zm-5.53-4.26c-.18.6-.87,1.06-.49,1.77a.54.54,0,0,0,.41.1A2.22,2.22,0,0,0,57.37,204.24ZM78.46,190s-.1,0-.11,0,0,.09,0,.14l.19,0Z"/><path class="cls-2" d="M85.83,181.87a.81.81,0,0,0,0-.93c-2.07-2.51-1.07-5.49-1.26-8.29,0-.39.26-.56.64-.59v5.6c1.29-.37,1.31-.4,2.38.4.37.27.61.61,1.1.2,1.22-1,1.87.91,3,.61.05,1-1,1.14-1.51,1.7a1.61,1.61,0,0,1-1.08.68c-.28,0-.49.18-.34.56.43,1.13.51,2.58,2.46,2,.56-.16,1.14.1,1.3-.76a.77.77,0,0,1,1.21-.42c1.34.87,2.1-.08,2.87-.84,1.25-1.23,3.18-1.22,4.39-2.5.08-.09.33-.07.48,0,1.28.38,2.57,1,3.61-.48.12-.18.4,0,.56.16a.85.85,0,0,0,1.3,0c.51-.46,1-.26,1.49,0,1,.5,3.72-.27,4-1.29.33-1.38,1.29-1.1,2-.95,1.28.26,2.45.46,3.55-.45.49-.4.76.11,1.11.34s.75.51,1.21.24a.76.76,0,0,0,.3-1.13c-.31-.51.46-1.05-.1-1.51-.11,0-.25,0-.31.09a2,2,0,0,1-2.78.12,1.34,1.34,0,0,1,.17-2.29c.28-.18,0-1.23-.53-1.23s-.47-.67-.87-.78c-.48-.91-.56-2-1.59-2.7.52-.24,1.28-.27,1.12-1.06-.07-.33-.31-1-.39-1-.54.57-1.64.23-1.94,1.28,0-1.87,1.43-3.69-.23-5.48.54.34,1.56-.64,1.5.67,0,.66.34.38.6.33,1.42-.3,1.66.54,1.64,1.66-.72,1.71,1,2.68,1.22,4.09.11.64.46.78,1,.76a.82.82,0,0,0,.84-1c-.4-1.31.3-2.56.08-3.84,1,1,1,2.69,2.45,3.4.35.17.41.94,1.06.77s.44-.78.49-1.24c0-.31-.07-.84.28-.83a1.83,1.83,0,0,1,1.22.62c.32.38.26,1.06.81,1.22.9-1.56,3-2.43,2.63-4.65L129,163l-.08.13c-.64-1.85-.91-2.2-2-2.6-.57-.21-1.29-.7-1,.6.07.32-.1.72-.53.63-.59-.11-.06-.56-.12-.67-.29-.49-.4-1.18-1.31-1.12a5.28,5.28,0,0,1-2.11-.46c-.69-.25.18-.39.11-.63.75.29,1.36-.14,2-.41.7.46,1.42.82,2.19.16.17-.15.43-.36.51-.12.54,1.69,1.72.19,1.83.07.7-.79,1.46-.45,2.25-.42.58,0,1.27.46,1.74-.38.18-.33.31-.87.88-.86-.49.93.91.68.93,1.58a5,5,0,0,1-1,3l-.6.95c.32.67,1.47,0,1.47,1h0a30.22,30.22,0,0,1-3.35,1.75c1.93-.39.74,1.62,1.63,1.91-.72,1.1-.37,2.39-.64,3.57,0,.06-.38,0-.58,0-1.82.1-3.51-.1-4.75-1.67-.49-.62-1.23-.35-1.85-.29-.92.07-.06.65-.19.91a3.62,3.62,0,0,0-.47,1.85c0,.6.12,1.08.73,1.32a1.92,1.92,0,0,1,1.2,1.46c.22,1,.63,2.17-1.21,1.37-1.21-.52-1.46.84-2.24,1.19s-1.63.82-.63,1.94c.44.5.13,1-.63,1.08a10.44,10.44,0,0,1-1.48,0c-.94-.07-1.94.06-2.15,1a2.15,2.15,0,0,0,1.26,2.21c.93.51,1.58,1.24,1.08,2.21a2.58,2.58,0,0,1-1.86,1.05c-1.3.07-1.79.84-2.21,2-1-1.09.13-1.83.24-2.66.07-.55,1.3-1.06.23-1.6s-2.67-.08-2.77,1-.12,2-1,2.77c-.28.22-.06.49.13.7,1.55,1.7,3.23,3,5.78,2.55.46-.09,1.33-.33,1.42.31s-.68.93-1.39,1c-3.15.29-5.57-.77-7.08-3.67a1.91,1.91,0,0,0-1-.85,2.72,2.72,0,0,1-1.64-1.66,3.25,3.25,0,0,0-4.43-1.45,3.33,3.33,0,0,1-3,.28c-1.66-.91-2.63.24-3.49,1a4.36,4.36,0,0,1-5,.6,3.35,3.35,0,0,0-1.45-.14c-1.63.07-2.44-.85-2.93-2.26-.39-1.13-.73-2.36-2.3-2.34ZM131.64,159c.4.48.64.93,1.25.72.08,0,.16-.3.11-.4C132.77,158.87,132.35,158.82,131.64,159Zm-2.41,3.38.12-.06s-.07-.08-.11-.08-.08,0-.12.05Z"/><path class="cls-12" d="M135.51,184.21h.63l.15.13-.14-.15c-.51-1.37.84-2.16,1.07-3.33.38-1.94,1.56-3.79.18-5.8-.13-.19-.33-.9.25-1.14,1.69-.69,2.84-2.14,4.33-3.11.22-.15.51-.4.72-.35,1.6.37,3.13-.12,4.69-.3a3.54,3.54,0,0,1,3.41,1.21c.63.78,1.79.61,2.56,1.26.4.34.67.57.32,1s-1.32.91-.42,1.5c.7.45.69-.79,1.4-1,0,1.32,1.15,1.73,1.85,2.54.43.5,1.05,1.24.33,1.81s-1.21,0-1.56-.68-.61-.41-1.15-.11c-1.2.69-1.47,2-2.22,2.94a3.27,3.27,0,0,1-1.35-.48c-.54-.24-1.27-.61-1.56.4-1.5-.42-2.05.72-2.63,1.69-1.18,1.94-3.21,3.54-2.65,6.22-.87,2.3-3,3.5-4.51,5.25-.11.13-.47.24-.56.17-1.46-1.17-1.82.5-2.73.85.43.58,1.37,0,1.4.78a1.44,1.44,0,0,1-.94,1.25,8.58,8.58,0,0,0-3.86,4.18,1.91,1.91,0,0,0-1.3,1c-.36-.4-.73-.58-.43-1.4.75-2.07,2.3-3.63,3.21-5.55,1.32-2.78,3.1-5.45,2.62-8.79-.07-.54-.14-1-.76-1C135.74,184.86,135.63,184.54,135.51,184.21Zm8.7-7.08a2.76,2.76,0,0,0-2.33,2.29,5.27,5.27,0,0,0,2.52,1.77,2.33,2.33,0,0,0,1.84-1.83C146.53,178.49,145.15,177.13,144.21,177.13Z"/><path class="cls-4" d="M69,199.31c-1,2.27-.37,4.65-.33,7,.39,0,.37-.37.41-.67s.09-.7.55-.63.45.44.31.74c-.27.59,0,.93.45,1.23a1.41,1.41,0,0,1,0,.2c-.19.13-.28.25,0,.36V208l0,.15c-.13.06-.38.13-.38.19,0,.29.28.16.45.19l.41.77c.56-.61-.28-2,1.08-2.07a4.31,4.31,0,0,1-1.22,3.94.31.31,0,0,1,0-.19c0-.19.11-.4-.13-.53l-.2.39c-.25,0-.58.07-.5.43,0,.11.34.16.52.23l.35,0,.3.65h-.63c-1.67.2-2,.62-1.65,2.05,0,.22.08.46.35.44s.34-.13.35-.5c0-.52-.16-1.42.9-1.35l.65.3c0,.18.17.55.25.42.51-.76,1.32-1.37,1.39-2.39.08.73-.23,1.47,1.12,1.61s.29,1.22.23,1.9c0,.46-1.43,1,.12,1.41.25.07,0,1-.34,1.27-.6.47-.32-.66-.8-.59l-.71-2.91c-.71,1.29-1.66,2.48-1.49,4.11a1.48,1.48,0,0,1-.1,1.08c-.88,1.37-.65,1.71,1,2a14.51,14.51,0,0,1,.33,3.66c-1.1.11-.69-1.37-1.2-1.28-.81.14-1.34.11-1.75-.61,0-.29,0-.59-.3-.73v0l-.31-.31h0c.28-2.34-1.45-4.36-1.09-6.73,0-.32-.37-.66-.78-.71-.11,0-.35.23-.33.25.4.72-.14,1.55.27,2.28.88,1.55,1,3.36,1.67,5v1.91c-.06.26,0,.62-.21.76s-.47-.1-.58-.32a42.45,42.45,0,0,1-2.5-7.75c0-.2-.11-.4.35-.61.67-.29.33-2.21-.45-2.55-.4-.18-.53-.49-.49-.67.38-1.79-.9-3.61.14-5.41.5-.87-.61-1.91.1-2.84l.12-.16-.16.12a5,5,0,0,1-.19-3.44,3,3,0,0,0,.16-1.43c-.09-.4-.17-.78.24-1,.66-.36.45.4.66.6.53.53,1,.69,1.38,0s.84-.45,1.33-.23A1,1,0,0,0,69,199.31Zm1.09,18.14c.16-.1.39-.15.48-.3a.18.18,0,0,0-.24-.24c-.15.08-.21.31-.31.48l-.12.19Zm-4.42-9.36c-.7-2.54,1.77-4.6,1-7.32C65.48,203.22,64.62,205.52,65.64,208.09Zm0,.67s-.1,0-.12,0,0,.1,0,.15l.2,0Z"/><path class="cls-3" d="M89.82,226l3,3.85c-.44.46-.56,1.57-1.64.68-.19-.15-1.1-.11-1.3.4-.45,1.2-1.58,1.2-2.49,1.61-.23.1-.45.4-.7.12s-.26-.79,0-.9c1.3-.63.43-1.27-.51-2.2,1.74.48,2.1,0,2.13-1.19,0-.54-.13-1.52.87-1.71l.14.08-.14-.08C89.12,226.17,89.38,226,89.82,226Z"/><path class="cls-3" d="M46.9,206.08c-1.38.31-1.46,1-1.06,2.11a6.29,6.29,0,0,1,.56,3.8c0,.2,0,.56.09.62,1.33.72.69,2.39,1.63,3.3.41.39.07.82-.16,1.19a.54.54,0,0,1-.71.23c-.8-.36,0-.69,0-1,.15-1.23-1.1-1.8-1.26-2.93-.31-2.14-1.95-3.81-2.17-6-.18-1.85.1-2.26,1.83-1.71C46.11,205.76,46.5,205.93,46.9,206.08Z"/><path class="cls-7" d="M74.05,204.9a10,10,0,0,1,.33-4.43c.2-1.1,1.58-1.7,1.94-2.91.1-.32.56,0,.79.23a1.73,1.73,0,0,1,.3,1.63c.54.31.89-.47,1.48-.08a21.53,21.53,0,0,0-1.63,4.27c.3-1.81-.78-1.82-1.85-1.57-.78.18-1.44.69-.77,1.66a1.75,1.75,0,0,1,.3,1.23Z"/><path class="cls-2" d="M52.94,235.18c0-.36-.16-.87.21-1.06s.66.31.9.55c2.21,2.27,3.43,4.88,2.78,8.25-1.5-.44-1.24-1.55-1.26-2.52,0-1.23-.34-2-2.08-1.3.94-1.65.85-2.93-.56-3.92Z"/><path class="cls-4" d="M74.05,204.9l.89,0c.74,3.65.63,4.58-.78,6.71-.76,0-.13-1.82-1.43-1.09l.09-3.66C74.57,207.06,73.75,205.64,74.05,204.9Z"/><path class="cls-7" d="M72.82,206.89l-.09,3.66c0,.2-.08.39-.11.58-.07,1-.88,1.63-1.39,2.39-.08.13-.2-.24-.25-.42l0-.93-.3-.65c0-.12,0-.23,0-.35h0a4.31,4.31,0,0,0,1.22-3.94c.18-.91-.07-1.86.35-2.75.09-.21.31-.59-.43-.93s-.26-1.74.28-2.7c.47.62,0,1.25.3,1.78.41-.23.08-.73.48-1.12C73.51,203.37,72.54,205.13,72.82,206.89Z"/><path class="cls-7" d="M71.64,221c-1.64-.28-1.87-.62-1-2a1.48,1.48,0,0,0,.1-1.08c-.17-1.63.78-2.82,1.49-4.11l.71,2.91c-1,.68,0,2.53-1.7,2.77Z"/><path class="cls-7" d="M68.11,221.76c-.7-1.61-.79-3.42-1.67-5-.41-.73.13-1.56-.27-2.28,0,0,.22-.26.33-.25.41.05.83.39.78.71-.36,2.37,1.37,4.39,1.09,6.73Z"/><path class="cls-4" d="M68.43,230.87c.69-.82,1.17-.38,1.62.26-.24.63-.2,1.86-.67,1.82a2.42,2.42,0,0,1-2.24-1.56c0-.06,0-.1-.07-.15h0c.37,0,.75.05,1-.33l.29,0,.2.13Z"/><path class="cls-7" d="M61.86,225.48c.63,1.32,1.59,2.18,1.15,3.61-.61-.34-.59-1.58-1.74-1-.43.22-.54-.53-.32-.78A9.55,9.55,0,0,0,61.86,225.48Z"/><path class="cls-3" d="M56.27,250.93c0-.2,0-.4,0-.6l2.27-1h0a4.57,4.57,0,0,1,.31,1.06c.06,1.06-.23,1.67-1.35.83A2.31,2.31,0,0,0,56.27,250.93Z"/><path class="cls-7" d="M63.49,232.09c-.5-.05-.64-.41-.66-.8,0-.58,0-1.24.65-1.44.25-.07.92,0,.8.54A2.45,2.45,0,0,1,63.49,232.09Z"/><path class="cls-3" d="M59.68,245.48c.42.06.51.32.41.6s-.23.9-.82.86c-.34,0-.39-.33-.39-.61C58.87,245.75,59.35,245.67,59.68,245.48Z"/><path class="cls-7" d="M73,234.16c.52.47,1.52.33,1.65,1.3l-.09.09a3,3,0,0,1-1.7-1.27Z"/><path class="cls-7" d="M76.19,204.68c-.72-.37-.58-.91-.32-1.46Z"/><path class="cls-4" d="M72.66,226.3c-.26-.16-.57-.31-.51-.7,0,0,.17-.14.22-.12.38.16.23.53.3.82Z"/><path class="cls-7" d="M64.89,232a.89.89,0,0,1-.28,0s-.08-.11-.06-.12a.67.67,0,0,1,.19-.14Z"/><path class="cls-4" d="M72.67,226.3l.24.36c-.39.09-.15-.25-.25-.36Z"/><path class="cls-7" d="M68.72,222c.33.14.33.44.3.73A.67.67,0,0,1,68.72,222Z"/><path class="cls-4" d="M73.32,228l-.24-.35.13-.08.12.42Z"/><path class="cls-3" d="M58.52,249.32l.13-.43.12.08-.24.36Z"/><path class="cls-12" d="M136.48,174.64c0-.13.1-.36.13-.36.26,0,.15.25.18.4Z"/><path class="cls-3" d="M134.82,173.06l.23-.14c0,.14.06.29.08.43C135,173.25,134.93,173.15,134.82,173.06Z"/><path class="cls-7" d="M70.43,208.52c-.17,0-.43.1-.45-.19,0-.06.25-.13.38-.19C70.39,208.26,70.41,208.39,70.43,208.52Z"/><path class="cls-7" d="M78.37,198.24s.09,0,.1,0a.19.19,0,0,1,0,.13c-.07.13-.14.12-.18,0S78.35,198.29,78.37,198.24Z"/><path class="cls-7" d="M75.23,198l0,.12a1.49,1.49,0,0,1-.12-.14l.09-.09Z"/><path class="cls-7" d="M56.88,216.1l-.07.13.07-.12Z"/><path class="cls-7" d="M68.4,221.71l.31.31Z"/><path class="cls-7" d="M74.69,235.46l.13.22-.22-.13Z"/><path class="cls-7" d="M75.63,236.17l-.17-.14s.08,0,.1,0a.54.54,0,0,1,.07.13Z"/><path class="cls-7" d="M75.63,236.17l.13.14s-.07,0-.09,0a.36.36,0,0,1,0-.11Z"/><path class="cls-7" d="M70.36,207.54c-.29-.11-.2-.23,0-.36Z"/><path class="cls-4" d="M73.33,227.94l.14.15-.15-.14Z"/><path class="cls-7" d="M70.38,208v-.43C70.68,207.69,70.53,207.84,70.38,208Z"/><path class="cls-4" d="M66.43,230.61l.34,0a2.44,2.44,0,0,0,0,.27h0Z"/><path class="cls-4" d="M67.07,231.24l-.33-.33h0l.32.33Z"/><path class="cls-7" d="M70.72,231.21l.14.21-.21-.14Z"/><path class="cls-7" d="M71,201.59l.21-.12-.1.22Z"/><path class="cls-3" d="M132.52,200.93a8.58,8.58,0,0,1,3.86-4.18,1.44,1.44,0,0,0,.94-1.25c0-.81-1-.2-1.4-.78.91-.35,1.27-2,2.73-.85.09.07.45,0,.56-.17,1.49-1.75,3.64-2.95,4.51-5.24.87.1.66,1.85,2,1.29,1.66,1.94,1.13,4,.94,6.34-.21,2.64-1.91,4.85-1.61,7.5-.56.08-.55.49-.66.93-.52,2.15-.33,4.51-2,6.32-.79,0-1,1-1.95,1.15.18-1.84-.52-3.62.48-5.39a1.51,1.51,0,0,0-.54-2c-1.48-1.09-2.84-2.31-4.27-3.45A3.52,3.52,0,0,0,132.52,200.93Z"/><path class="cls-10" d="M161.47,203.6c.17,1.52-1.5,1.63-2,2.62-.71-.37-1.59-.56-.72-1.73a2.33,2.33,0,0,0-.05-2.07c-.21-.46-.9-1-1.11-.73-.71.93-2.22.51-2.66,1.73-.12.35-.13.78-.66.79-.29,0-.56-.08-.62-.4-.08-.48-.24-1,.21-1.39,2-1.49,1.1-3.55.78-5.26-.22-1.15-.27-2.57-1.49-3.61-.79-.68.16-2,.36-3.07a.33.33,0,0,1,.54-.14c1.7,1.77,1.82,0,2.34-1,.06-.11.28-.13.43-.2a3.52,3.52,0,0,0,2.65,1.33h0l0,.64a1,1,0,0,0,.48.8c.87.7,2,1.32-.13,2-.93.28-1.17,2.28-.47,2.43,1.39.31,1.37,1.25,1.45,2.33.12,1.54-.57,3.14.31,4.63l.34.34Z"/><path class="cls-3" d="M114.77,262.11c.35-.08.7-.4,1,0a.41.41,0,0,1,0,.58c-1.37,1.64-1.75,3.83-2.92,5.54-1.57,2.29-1,5.06-2,7.4-.63,1.38-.77,2.88-1.34,4.26-.94,0-2.17-1.1-2.63.7v.58a2.17,2.17,0,0,0-1.33,2.34c0,1.8,0,3.59,0,5.39a4.38,4.38,0,0,1-1.22-2,5.81,5.81,0,0,1-.15-1.12c.08-1.16.09-2.25-1-3.09a1.27,1.27,0,0,1-.29-1.77,13,13,0,0,1,2.38-2.77c1-.65.82-1.42,1.14-2.12.87-1.88,2.27-3.42,3.21-5.2.77-1.45,1.57-2.92,2.22-4.46S112.84,262.9,114.77,262.11Z"/><path class="cls-11" d="M150.94,220.73c.05.53.23,1.12-.14,1.57s-.55,1,.07,1.36,1.21.61,1.57,0c.51-.89,1.05,0,1.82-.6-.47,1-.63,1.65-1.46,1.66-.05,0-.14,0-.15,0-.12.26.13.2.24.27a2,2,0,0,1-.42,1.62c1.59-.06,2.8,1,4.29,1,0,1.1.39,2.16-.44,3.25s-1.95,1.48-2.89.56a.78.78,0,0,0-.58-.21c-1,.24-1.75-.36-2.61-.59-2-1.08-4.16-2-4.52-4.68a11.15,11.15,0,0,1,2.76.18.84.84,0,0,0,1.06-.55c.18-.49,0-.79-.56-1-.91-.3-1.25-1.5-.93-1.84A5.84,5.84,0,0,1,150.94,220.73Z"/><path class="cls-4" d="M142.41,210.84c1.62-1.81,1.43-4.17,2-6.32.11-.44.1-.85.66-.93,0,.7,0,1.41-.1,2.11,0,.4-.43.87.17,1.11a1.06,1.06,0,0,0,1.32-.34,7.29,7.29,0,0,0,.72-.86c.28-.46.68-1,1.11-.57a1,1,0,0,1,0,1.49c-.92.64-.59,1,.25,1s1.29.89,2.13.67l0,0c-.35,1.47-1.67,2.29-2.35,3.57a5.2,5.2,0,0,0-1.06,2.56c0,1.25-1.72,1.29-1.8,2.53,0,.14-.52,0-.61-.31a7.37,7.37,0,0,1-.28-4.33c.15-.49.74-.9.2-1.44a1.49,1.49,0,0,0-1.55-.18Z"/><path class="cls-10" d="M137.69,251.12c-1.2-1.38-1.22-2.92-2.18-4-1.37,1.27-.7,3.36-2,4.61a3.48,3.48,0,0,1,0-5c1.6-1.35,1-2.78.55-4.23-.21-.71-.54-1.42,0-2a2.5,2.5,0,0,1,2.53-.72c.47.15,1.1.64,1,1-.47,1.23.38,2.42-.21,3.78-.53,1.21-1.14,3,.39,4.36C138.11,249.22,137.77,250.16,137.69,251.12Z"/><path class="cls-1" d="M104.19,285.84a5.81,5.81,0,0,0,.15,1.12,4.38,4.38,0,0,0,1.22,2c0-1.8,0-3.59,0-5.39a2.17,2.17,0,0,1,1.33-2.34,11,11,0,0,0-.67,4.47c.05.52-.07.89.8,1,1,.18.37,1.34.5,2.06s-.2,1.05-.92,1c-2-.14-4.08.4-6-.57-.69-.35-1,.63-1.6.53-.29-.44-1.29-.45-1.08-1,.28-.7.89-1.54,1.73-1.52a3.39,3.39,0,0,0,2.89-1.25c.67.32.19,1,.73,1.4Z"/><path class="cls-6" d="M150.94,220.73a5.84,5.84,0,0,0-2.89,2.07c-.32.34,0,1.54.93,1.84.54.17.74.47.56,1a.84.84,0,0,1-1.06.55,11.15,11.15,0,0,0-2.76-.18l-2-.32c.11-1.91,1.91-2.74,2.72-4.22.31-.57,1-1.13,1.8-.33a.54.54,0,0,0,.85-.11.61.61,0,0,0,0-.88,1.07,1.07,0,0,1-.42-1.36h0C150.06,218.79,151.16,219.74,150.94,220.73Z"/><path class="cls-4" d="M145.69,189.75c-1.31.56-1.1-1.19-2-1.29-.56-2.69,1.47-4.29,2.65-6.23.58-1,1.13-2.11,2.63-1.69a3.21,3.21,0,0,1,2,.71,10.52,10.52,0,0,0-3.54,3.84,9.66,9.66,0,0,1-1.91,2.38c-.58.48-1.07.83-.11,1.4C145.73,189.06,145.67,189.43,145.69,189.75Z"/><path class="cls-1" d="M112.18,251.31c-.06-1.2.9-1.37,1.69-1.84,1.36-.8,2.43-1.47,3.88.05s2.91.25,4.27-.51c.15,1.07-.68,1.87-.83,2.9-.09.65-1,.4-1.53.15-1.34-.59-1.8-.22-2.29,1.15-.59,1.66-1.46,3.21-2.28,5-.93-1.72.2-3.05.59-4.35a6.07,6.07,0,0,1,1-2.69,1,1,0,0,0-.21-1.33,1.62,1.62,0,0,0-1.57,0C114,250.3,113.07,250.82,112.18,251.31Z"/><path class="cls-1" d="M124,260.19c-1.45-.11-1.89.77-2,2-.06.66.27,1.48-.64,1.84a.8.8,0,0,1-.88-.29c-.63-.64,0-1.24,0-1.85.07-2.1,1.3-3.34,2.68-4.58.15-.14.09-.51.12-.77a5.9,5.9,0,0,1,.59-2.82c.4-.64.73-.85,1.37-.79.94.1.76.83.72,1.38-.12,1.59-1.25,2.79-1.73,4.26a2.73,2.73,0,0,0-.21.93c0,.22,0,.45,0,.67Z"/><path class="cls-4" d="M88.18,279.3a3.06,3.06,0,0,0,2.92-1.55c.33-.58.82-.39,1.27-.48,1.46,0,2.61-.95,4-1.25a2.28,2.28,0,0,1-1.48,2.26,1.82,1.82,0,0,0-1.16,1.77,2,2,0,0,1-1.5,2.08,2.27,2.27,0,0,1-2.67-1.35A2.58,2.58,0,0,0,88.18,279.3Z"/><path class="cls-1" d="M151,181.25a3.21,3.21,0,0,0-2-.71c.29-1,1-.64,1.56-.4a3.27,3.27,0,0,0,1.35.48c-.12.87.41.77,1,.64,0,.11,0,.23,0,.34.92,2.78,3.09,4.67,4.86,6.84l1.69,2a3.52,3.52,0,0,1-2.65-1.33c0-.62-.41-.63-.87-.68a3.92,3.92,0,0,1-3.68-4.18C152.25,183.08,152.29,181.88,151,181.25Z"/><path class="cls-4" d="M148.65,218.75a1.07,1.07,0,0,0,.42,1.36.61.61,0,0,1,0,.88.54.54,0,0,1-.85.11c-.79-.8-1.49-.24-1.8.33-.81,1.48-2.61,2.31-2.72,4.22-1.31-1-.55-2.33-.5-3.51,0-.8.26-1.65,1.44-1.46.27,0,.63-.08.56-.4-.3-1.39,1.24-1,1.29-.94C147.62,220.49,147.94,218.87,148.65,218.75Z"/><path class="cls-7" d="M96.33,276c-1.35.3-2.5,1.28-4,1.25.23-.93,1.76-.75,1.67-2h0c2.36-1.28,3.59-3.76,5.64-5.37.31-.24.54-.53,1-.54-1.42,1.88-2,4.29-3.59,6.07A1.58,1.58,0,0,1,96.33,276Z"/><path class="cls-1" d="M122.65,236.81a3.76,3.76,0,0,1-1.34,2.7c-.72.79-1.72,1.34-2,2.48-.16.56-.71.39-1.13.4s-.82-.28-.7-.7c.51-1.78.72-3.67,1.93-5.18,0,.38,0,.75,0,1.12a1.27,1.27,0,0,0,.86,1.24c.45.19.7-.36,1-.64C121.72,237.77,121.84,237,122.65,236.81Z"/><path class="cls-4" d="M127.45,261.54c.55.39.72,1.29,1.52,1.65.23.11-.3.86-.9,1.07a6.07,6.07,0,0,0-1.36.88c-.44.31-.9.46-1.32,0s-.4-.77.06-1.25a11.08,11.08,0,0,0,1.23-1.88A.94.94,0,0,1,127.45,261.54Z"/><path class="cls-1" d="M137.12,220c.19-.79-.66-1.24-.65-2,.05-.36,0-.82.2-1.08.33-.43.71-1.13,1.41-.75a1,1,0,0,1,.19,1.55C137.45,218.38,138.35,219.75,137.12,220Z"/><path class="cls-8" d="M150.94,245.56c.07.26.12.52.21.78.16.49,1.2,1-.07,1.44-.86.3-1.58.47-1.73-.76C149.64,246.28,150,245.59,150.94,245.56Z"/><path class="cls-4" d="M142.15,258.89c.22.4.15.93.57,1.24-.27.76-1.09.9-1.61,1.38-.53-.07-.88-.36-.54-.86S141.25,259.13,142.15,258.89Z"/><path class="cls-1" d="M110.86,253c-.09-1,0-1.73,1.3-1.61A1.68,1.68,0,0,1,110.86,253Z"/><path class="cls-4" d="M113.93,260.18c-.09.11-.24.44-.43.46-.36.06-.36-.3-.34-.57s.17-.51.51-.47S114,259.8,113.93,260.18Z"/><path class="cls-1" d="M110.16,254.26c.08-.5-.25-1.23.68-1.28C110.79,253.5,111,254.17,110.16,254.26Z"/><path class="cls-1" d="M136.48,221.37c0-.52-.23-1.2.64-1.33C137.08,220.57,137.35,221.25,136.48,221.37Z"/><path class="cls-8" d="M150.9,243.8c0,.41,0,.81,0,1.21l-.36.15C150.06,244.56,150.69,244.23,150.9,243.8Z"/><path class="cls-11" d="M150.28,231.89c.81.09.52.53.31,1C150.25,232.6,150.35,232.22,150.28,231.89Z"/><path class="cls-1" d="M103.47,284.87l-.21.16-.19-.3c.09,0,.19-.1.26-.08S103.42,284.79,103.47,284.87Z"/><path class="cls-4" d="M126.08,266.51c0-.09.06-.22.12-.25s.18.06.27.1-.06.23-.13.26S126.17,266.55,126.08,266.51Z"/><path class="cls-4" d="M149.91,212.05l-.15-.22.32-.17c0,.09.1.2.07.26S150,212,149.91,212.05Z"/><path class="cls-4" d="M147,217.2l.17.21-.31.19c0-.08-.11-.18-.09-.25S147,217.25,147,217.2Z"/><path class="cls-4" d="M151.24,214.43l.29-.52.2.14-.43.44Z"/><path class="cls-4" d="M124,260.18c0-.22,0-.45,0-.67C124.3,259.74,124.32,260,124,260.18Z"/><path class="cls-4" d="M117.32,258.51l0,.11-.13-.13.1-.08Z"/><path class="cls-4" d="M151.3,214.49l-.33.32-.05-.05.32-.33Z"/><path class="cls-7" d="M100.62,269.4,101,269Z"/><path class="cls-4" d="M150.6,208.19l.16-.13-.12.17Z"/><path class="cls-4" d="M150.59,245.16,151,245l0,.36Z"/><path class="cls-1" d="M71.52,249.24c-.88.41-1.25,1.15-2.25,1C69.79,249.52,70.22,248.88,71.52,249.24Z"/><path class="cls-1" d="M62.14,264.45c-.2,0-.45,0-.48-.31,0-.05.12-.18.18-.18.27.05.26.29.3.49Z"/><path class="cls-7" d="M94,275.31l-.14-.14.09,0a.6.6,0,0,1,.06.11Z"/><path class="cls-1" d="M62.14,264.45l.13.08-.13-.08Z"/><path class="cls-1" d="M52.93,166.77c.83.31,1-1.43,2.11-.64.33.23.17-.66.2-1,0-.54.24-1.25.76-.66.67.75,2,.77,2.19,1.95.08.44.24.71.72.69a.59.59,0,0,0,.59-.65c0-.66.33-1.2,1-.82.47.27.9,1.14.62,1.6s-.65,2.1-1.83.64c-.52-.63-.93-.52-1.06.31a.65.65,0,0,1-.66.59h0c0-.56,0-1.15-.74-1.25s-.46.78-1,1c-.73-.53-.6-1.14,0-1.87-1.44.78-3,1.26-3.61,2.93-.76-.15-.43-.95-.92-1.26s-.21-.68.07-1,.43-.38.8-.08.78.11.85-.45Z"/><path class="cls-1" d="M58.21,181.91c.41,1.22-.53,2.17-.71,3.29-.3,1.85.31,3.81-.68,5.55-.87-.48-.53-1.33-.6-2.05s-.35-1.18-1-.43-.9.4-.91-.37c0-1.66.25-3.28,1.78-4.19C56.88,183.2,57,181.9,58.21,181.91Z"/><path class="cls-1" d="M55.54,202.93c0,.76,0,.71-.6.64-.21,0-.45.24-.68.38-1.33-2.87-1.57-6-2.42-9-.2-.71.15-1.26.2-2.09a5.28,5.28,0,0,1,.73,2.59,1.25,1.25,0,0,0,1.32,1.48c.51,0,.62.33.18.65s-.94.63-.61.94c1.26,1.22.67,3.05,1.57,4.34C55.28,202.91,55.43,202.9,55.54,202.93Z"/><path class="cls-1" d="M61.1,184.81c-.49-2.1.73-3.64,1.74-5.24.25-.42.62-.84,0-1.17-.95-.5-.45-1.13-.23-1.75l1.52-.05c-.1.61-1.17,1.22,0,1.89.07,0,1,1.55-.62,1.51,0,1.4-1.19,2.34-1.48,3.59a3.76,3.76,0,0,1-.78,1.34Z"/><path class="cls-1" d="M56.2,191.1a9.57,9.57,0,0,1-.62,4c-.61-.58-1.49-4.52-1.12-5.15a2.88,2.88,0,0,1,.59-.56C55.46,190,55.46,190.79,56.2,191.1Z"/><path class="cls-1" d="M49,193.43c-.06.35.37.93-.3.91-1,0-1-.85-1-1.56,0-.47-.29-1.35.57-1.22C49.37,191.72,48.83,192.79,49,193.43Z"/><path class="cls-1" d="M61.34,149.23c.08.31.14.54.21.77s.84.56.41,1.06-.7,0-1-.21c-.62-.37-.36-.79,0-1.19Z"/><path class="cls-1" d="M52,192c-1.31-.77-1-1.71-.88-2.92C51.78,190.11,51.68,191,52,192Z"/><path class="cls-1" d="M55.58,195.61c.72.6,0,1.21,0,1.81C54.94,196.82,55.37,196.21,55.58,195.61Z"/><path class="cls-1" d="M56.88,169.73c0-.47,0-1,.66-1h0c0,.47,0,.95-.65,1Z"/><path class="cls-1" d="M55.58,197.91a.69.69,0,0,1,0,1.16C55.57,198.68,55.57,198.29,55.58,197.91Z"/><path class="cls-1" d="M56.88,169.73l-.4.43-.12-.2.52-.23Z"/><path class="cls-1" d="M58.87,181.14c0,.45-.1.82-.67.77Z"/><path class="cls-1" d="M52.93,166.77l-.13-.08.13.08Z"/><path class="cls-2" d="M161.14,203.27c-.88-1.49-.19-3.09-.31-4.63-.08-1.08-.06-2-1.45-2.33-.7-.15-.46-2.15.47-2.43,2.17-.64,1-1.26.13-2a1,1,0,0,1-.48-.8c.64-.25,1.62.51,1.95-.66a12.62,12.62,0,0,1,2.31-2.7c.84-.74,1.38-.59,2.05.11,1.7,1.79,3,4,4.87,5.59a1.84,1.84,0,0,1-.55,1.64,1.06,1.06,0,0,0-.28,1.47c.65.84.18,1.5-.12,2.25-.45,1.1-.73,2.18-2.36,1.26-.58-.32-1.38.41-1.8.86s.5.55.71,1a2.59,2.59,0,0,0,2.87,1.37c-1.17-.18-2.14,1.9-3.44,0-.16,1.19-1,2.26.23,3.24a.68.68,0,0,1-1-.16c-.42-1.1-.82-1.77-1.78-.4-.06.08-.63-.1-.88-.28s-.14-.48.06-.7c1.52-1.67,0-1.35-.91-1.39h0Zm3.85-1.61c-.05-.09-.09-.21-.15-.23s-.17,0-.26.09l.2.31Z"/><path class="cls-8" d="M158.78,231.62c0,.31.07.63.1.95.2.53-.18,1.15.28,1.64a.37.37,0,0,0,0,.29c-.31.13-.32.42-.36.69-.81.05-1.58-.35-2.45.22-.44.3-1.43-.2-1.63-.84s.52-.68,1-.71.59,0,.42-.53c-.1-.3-.1-1,.52-1a.83.83,0,0,1,.87.8c0,.35.18.74.56.61s.35-.67.15-1C157.69,232.05,158.4,231.92,158.78,231.62Z"/><path class="cls-6" d="M156.76,227.64c-1.49,0-2.7-1.1-4.29-1a2,2,0,0,0,.42-1.62,9.31,9.31,0,0,1,3.67,1C157.52,226.49,157.48,227,156.76,227.64Z"/><path class="cls-8" d="M154.6,237.43c.57.18,1.51-.32,1.5.56,0,.71-1.07,1.08-1.59,1s-1.64.35-1.62-.7C152.91,237.06,154,237.66,154.6,237.43Z"/><path class="cls-6" d="M157.47,229.66c.63-.46,1.28-.9,2-.47a.51.51,0,0,1,.09.4C158.92,230,158.2,229.65,157.47,229.66Z"/><path class="cls-11" d="M158.8,235.19c0-.27,0-.56.36-.69.22.46,1,.56.81,1.29Z"/><path class="cls-2" d="M152.06,235.42c.29.25.56.6.32.81s-.36-.15-.4-.36A1.65,1.65,0,0,1,152.06,235.42Z"/><path class="cls-2" d="M151.57,233.81a1.49,1.49,0,0,1-.25.13.77.77,0,0,1-.23-.38.17.17,0,0,1,.3-.15C151.5,233.49,151.52,233.67,151.57,233.81Z"/><path class="cls-2" d="M150.29,216.43c0,.31-.06.64-.44.73,0,0-.16-.12-.16-.19,0-.42.27-.5.6-.54Z"/><path class="cls-1" d="M167.67,175.11c.11,1.46-.72,2.22-1.1,3.15-.12.31-1.34.6-1.3-.29s-.53-1.24-.63-1.91c-.07-.42-.37-.86,0-1.2s.78-.17,1.13.19.68.33.9-.14c.15-.31.29-.64.7-.45A.5.5,0,0,1,167.67,175.11Z"/><path class="cls-1" d="M161.38,177.89c.91.23,1.29.24,1.66.75-.7-.11-1.56,1.41-1.71-.46,0-.05-.29-.12-.43-.09-.46.11-1,.45-1.27-.17s.22-1.11.85-1.36a.69.69,0,0,0,.3-.35c.3-.74.71-1.37,1.56-1.47.3,0,.45.28.43.57C162.71,176.24,163.34,177.42,161.38,177.89Z"/><path class="cls-2" d="M166.41,171.37l-.32,1,0,0-.3.29a5.49,5.49,0,0,1-3.33.8,8.73,8.73,0,0,0,2-2.46C164.81,170,165.66,171.47,166.41,171.37Z"/><path class="cls-1" d="M160.5,173.37c0,1.9-.53,3.46-2.8,4.16.29-.73.23-1.28.77-1.86.39-.39,1.22-.81.95-1.76a.71.71,0,0,1,1.05-.58Z"/><path class="cls-4" d="M144.79,166.89c-.38.06-.71,0-.85-.34s1.91-2.39,2.26-2.36a.74.74,0,0,1,.75.71C147.05,165.7,145.79,166.84,144.79,166.89Z"/><path class="cls-2" d="M152.27,166.11a2.67,2.67,0,0,1,.49,0c.47.12,1.1-.58,1.33,0,.36.88-.72.51-1,.88a6.36,6.36,0,0,0-.49.84h-.65l-.31-.06c0-.32,0-.64,0-1a.63.63,0,0,0,.65-.66Z"/><path class="cls-1" d="M161.45,190.46c-.33,1.17-1.31.41-1.95.66l0-.64Z"/><path class="cls-12" d="M152.92,181.6c0-.11,0-.23,0-.34.09-.3.15-.64.56-.61.12,0,.32.15.33.24C153.77,181.45,153.31,181.5,152.92,181.6Z"/><path class="cls-1" d="M160.51,172.7a.6.6,0,0,1,.68.57l-.69.1,0,0C160.48,173.12,160.5,172.91,160.51,172.7Z"/><path class="cls-4" d="M152.27,166.11a.63.63,0,0,1-.65.66A.57.57,0,0,1,152.27,166.11Z"/><path class="cls-1" d="M171.34,175c-.06.15.14.56-.32.32Z"/><path class="cls-1" d="M171.41,174.35c.29.23.27.44,0,.62C171.38,174.76,171.4,174.56,171.41,174.35Z"/><path class="cls-1" d="M165.76,172.66l.3-.29Z"/><path class="cls-4" d="M151.63,167.73l.31.06C151.79,168,151.69,168,151.63,167.73Z"/><path class="cls-4" d="M100.21,161.17c-.19.83-.4,1.66-.59,2.49-.05.24.07.61-.36.54s-.43-.12-.58-.58a8.26,8.26,0,0,1,.09-5.72c.37-.94-.42-1.83.34-2.75.35.46,0,1.12.48,1.43.11,1,.23,2,.34,3,0,.43-.09.91.27,1.28A1.58,1.58,0,0,1,100.21,161.17Z"/><path class="cls-2" d="M107.06,162.08c0,.08-.07.17-.11.25s-.22-.05-.24-.12.06-.16.09-.25Z"/><path class="cls-2" d="M100.2,160.86c-.36-.37-.22-.85-.27-1.28C100.42,159.92,100.24,160.4,100.2,160.86Z"/><path class="cls-7" d="M124,158.49c-.64.27-1.25.7-2,.41a1,1,0,0,0-.3-.08c0-.1-.14-.27-.11-.3,1.49-1.43,1.4-3.76,2.93-5.17a.58.58,0,0,0-.06-.57c-.71-.45-.07-1-.13-1.47l.13-.13-.14.12c-.64-.63-.07-1.6-.62-2.26,1.49-.07,2.74,1,4.23.92,1,.64.73,1.45.3,2.28-.33-.07-.86-.49-.9.13C127.14,155,125.41,156.63,124,158.49Z"/><path class="cls-2" d="M153.9,148.36c-.63,1.1.31.62.7.69.34.5.79,1.35-.1,1.33a10,10,0,0,0-4.3,1.16,4.76,4.76,0,0,1-1.93.1c-.48,0-.85-.31-.72.63.15,1.09-1.06.86-1.55.77a1.72,1.72,0,0,0-2.07,1.14c-.26.54-.62,1.2-1.24,1.11-.86-.11-.93-.94-1-1.67.44-.09,1.13.23,1.26-.43.43-2.17,1.95-2.84,3.91-3a2.93,2.93,0,0,0,.77-.29c-.12-.48-1.16-.84-.36-1.4.64-.45,1.09.24,1.46.68.19.23.17.64.35.89a.71.71,0,0,0,1,.11c.5-.32,0-.5-.17-.69s-.37-.66,0-.94.8-.26.93.21c.22.8.91.34,1.32.58.12.14.19.43.43.13l-.43-.12C152.12,147.88,153.39,148.74,153.9,148.36Zm-8,2.61-.07-.11-.08.19s.08,0,.1,0S145.91,151,145.93,151Zm5.76-.86-.11,0,0,.17a.42.42,0,0,0,.12,0S151.69,150.15,151.69,150.11Z"/><path class="cls-2" d="M134.82,152.66c.76-.42,1.76-.74,2.18.09.62,1.26,1.79,1,2.7,1.38s.55-.7.91-1,.47-.87,1-.67,0,.76.13,1.13c-1,.46-1,1.22-.38,2.12-1.14-.07-2.06-1.7-3,.08a2.11,2.11,0,0,1-2.1-.3c-.33-.41-1.6-.65-.81-1.67C136,153.05,135,153.07,134.82,152.66Z"/><path class="cls-3" d="M159.23,166.15h.21c.81,2.17-1.07,2.8-2.24,3.8-.19.17-.89.11-.76-.17.28-.65-.08-1.79.83-1.9C158.43,167.72,158.76,166.92,159.23,166.15Z"/><path class="cls-2" d="M155,165.38c.07.06.32.17.36.34s-.17.35-.4.34-.38-.2-.38-.44S154.68,165.3,155,165.38Z"/><path class="cls-2" d="M155.2,154a.55.55,0,0,1-.25-.66s.08-.06.12-.09l.18.71Z"/><path class="cls-7" d="M128.25,152.63l.35,0-.37.26Z"/><path class="cls-2" d="M134.51,163.48c0,.15.05.4-.23.37-.05,0-.07-.24-.11-.37h.34Z"/><path class="cls-2" d="M134.5,163.47l.14-.13-.13.14Z"/><path class="cls-2" d="M156.88,166.13l-.16.13c0-.06.09-.11.13-.16Z"/><path class="cls-2" d="M155.57,164.48l-.17.13.13-.17Z"/><path class="cls-2" d="M155.53,164.44l.17-.12a1.83,1.83,0,0,0-.13.16Z"/><path class="cls-1" d="M106.89,280.62c.46-1.8,1.69-.71,2.63-.7a1.59,1.59,0,0,1-.82,1.74C107.63,282.23,107.72,280.59,106.89,280.62Z"/><path class="cls-2" d="M123,268.07c0,.24,0,.52-.4.5,0,0-.1-.06-.1-.1,0-.36.26-.36.5-.4Z"/><path class="cls-5" d="M116.11,170.09c.4.11.17.78.87.78s.81,1,.53,1.23a1.34,1.34,0,0,0-.17,2.29,2,2,0,0,0,2.78-.12c.06-.07.2-.06.31-.09.56.46-.21,1,.1,1.51a.76.76,0,0,1-.3,1.13c-.46.27-.86,0-1.21-.24s-.62-.74-1.11-.34c-1.1.91-2.27.71-3.55.45-.73-.15-1.69-.43-2,.95-.25,1-3,1.79-4,1.29-.53-.26-1-.46-1.49,0a.85.85,0,0,1-1.3,0c-.16-.15-.44-.34-.56-.16-1,1.51-2.33.86-3.61.48-.15-.05-.4-.07-.48,0-1.21,1.28-3.14,1.27-4.39,2.5-.77.76-1.53,1.71-2.87.84a.77.77,0,0,0-1.21.42c-.16.86-.74.6-1.3.76-2,.58-2-.87-2.46-2-.15-.38.06-.54.34-.56a1.61,1.61,0,0,0,1.08-.68c.51-.56,1.56-.66,1.51-1.7-1.1.3-1.75-1.62-3-.61-.49.41-.73.07-1.1-.2-1.07-.8-1.09-.77-2.38-.4v-5.6c3.38-3.2,7.61-4.9,11.8-6.67,1.49-1.22,1.9.15,2.52,1.07-.5.8-1.72-.21-2.08.78-.28.77.31,1.46.36,2.2a1,1,0,0,0,.35,0c1.94-.91,2-.92,2,1.33a.8.8,0,0,0,.36.81c2.3,1.48,2.3,1.48,2.67,4,.5-.73.55-1.89,1.74-1.56l0,0c.17.53,0,1.17.71,1.52s1.25.91,1.82.12,0-1.33-.71-1.65-.8-.74-.24-1.34a18.29,18.29,0,0,0,1.12-1.52,7.45,7.45,0,0,1,.92,1.56,1.67,1.67,0,0,0,2.38,1.24c.57-.32.4-1.71-.14-2.56-.1-.15-.34-.21-.64-.4l1.76-.75c.72.85-.59,2.19.13,2.39a3.29,3.29,0,0,1,2,1.1c.49.63.9.42,1.28-.14a4.29,4.29,0,0,0,.8-3.21Zm-5,5.55c.16-.18.3-.27.32-.38s-.08-.24-.13-.37c-.11.09-.26.17-.31.28S111,175.41,111.08,175.64Zm-.79-.4a2,2,0,0,0-.22-.14s-.12.07-.11.09a.64.64,0,0,0,.1.24Z"/><path class="cls-3" d="M85.85,149.37l-.18.12.12-.18Z"/><path class="cls-4" d="M116.11,170.09l0,.29c-.91.06-1.84.1-1.33-1.28.27-.74-.32-.94-.71-.95-.68,0-1.39-.4-2.06-.05-.4.2-.83,0-.69-.26.83-1.49-1-.82-1.09-1.63a10.32,10.32,0,0,0,1.39-6.43c-.06-.57,0-1.24.53-1.11,1.25.3,1.73-.88,2.66-1.12.61,1.11,1.21,1.84,2.31.38a1.16,1.16,0,0,1,1.8-.32c1.19.81,2.67-.48,2.54-2.11-.53.23-1,1.78-1.71.15,0-.09-1.7-1-2.19.52-.15.49-.81.2-1.18.14-.53-.07-.3-.63-.27-1,.14-1.41.31.29.66,0,.89-.68.58-1.56.65-2.4l0,0c.93-.3,1.2-.95.7-1.75-.35-.55-.53-1.77-1.7-.8-.23.19-.29-.17-.34-.37a1.8,1.8,0,0,1,2.11-.19,2,2,0,0,0,2.11.09c1.09-.55,2.29-.5,3.39-.88.55.66,0,1.63.62,2.26h0c.06.48-.58,1,.13,1.47a.58.58,0,0,1,.06.57c-1.53,1.41-1.44,3.74-2.93,5.17,0,0,.07.2.11.3l-.9.06a37.78,37.78,0,0,0-4,5c0-1.12-.22-2-1.64-1.66-.26,0-.63.33-.6-.33.06-1.31-1-.33-1.5-.67,1.66,1.79.22,3.61.23,5.48.3-1,1.4-.71,1.94-1.28.08-.08.32.62.39,1,.16.79-.6.82-1.12,1.06C115.55,168.05,115.63,169.18,116.11,170.09Z"/><path class="cls-7" d="M116.07,150c.05.2.11.56.34.37,1.17-1,1.35.25,1.7.8.5.8.23,1.45-.7,1.75l-.16-.13.14.15c-.07.84.24,1.72-.65,2.4-.35.28-.52-1.42-.66,0,0,.33-.26.89.27,1,.37.06,1,.35,1.18-.14.49-1.51,2.15-.61,2.19-.52.75,1.63,1.18.08,1.71-.15.13,1.63-1.35,2.92-2.54,2.11a1.16,1.16,0,0,0-1.8.32c-1.1,1.46-1.7.73-2.31-.38l0-.32c.26-.51-.2-.28-.37-.34h-.16l-.16,0-.67,0h0c0-.75-.28-.91-1.3-.72-1.12.83-1.85,0-2.66-.6a2.7,2.7,0,0,1,1.46-2.61c1.16-.82,2.68-1.52,2.88-3.29,0-.43.31-.65.81-.35A13.74,13.74,0,0,0,116.07,150Zm-.33,7.7-.15-.27c0,.08-.15.17-.15.26s.09.18.13.27C115.63,157.9,115.68,157.81,115.74,157.72Z"/><path class="cls-4" d="M112.13,156.19c1-.19,1.31,0,1.3.72C112.86,156.92,112.34,156.82,112.13,156.19Z"/><path class="cls-5" d="M100.11,165.25l-.07-.11.16-.09s0,.1,0,.13S100.14,165.23,100.11,165.25Z"/><path class="cls-5" d="M104.87,174l.16-.44s.13.09.12.1-.15.25-.23.38Z"/><path class="cls-4" d="M113.45,156.92l.67,0C113.9,157.22,113.68,157.28,113.45,156.92Z"/><path class="cls-4" d="M114.44,156.89c.17.06.63-.17.37.34Z"/><path class="cls-1" d="M56.57,263.93a1.22,1.22,0,0,1-.11-1.58.28.28,0,0,1,.29,0C57.26,262.9,56.78,263.4,56.57,263.93Z"/><path class="cls-3" d="M50.3,160.55c.24-.33-.46-1.18.66-1.2.9,0,1.14.27.78,1.12-.08.17.11.54.28.7s1.14-.06.81.78a1.27,1.27,0,0,1-1.09.86c-.7.07-.87-.55-1.2-.94S50.31,161.06,50.3,160.55Z"/><path class="cls-13" d="M110,148.2h0Z"/><path class="cls-11" d="M159.16,234.21c-.46-.49-.08-1.11-.28-1.64C159.91,233,160.05,233.5,159.16,234.21Z"/><path class="cls-1" d="M62.9,208.5c-1.09-4-1.22-7.95.8-11.65.36,1.37-.26,2.73-.66,4s.67,2.08,0,3.38C62.43,205.38,62.9,207.06,62.9,208.5Z"/><path class="cls-1" d="M69,199.31a1,1,0,0,1-1-.62c-.23-1.69.6-3.22.78-4.82,1.44.57,1.66,1.26.61,2.66C69,197.08,69.2,198.37,69,199.31Z"/><path class="cls-1" d="M61.24,184.93a12.67,12.67,0,0,1-1,3.23c-.15.4-.25.77-.77.45-.82-.49.27-.44.2-.68-.38-1.46.43-2.34,1.46-3.12Z"/><path class="cls-2" d="M59.18,191.43c-.35-1.59-.35-1.59.62-2.21a7.18,7.18,0,0,1-.62,2.22Z"/><path class="cls-1" d="M57.37,204.24a2.22,2.22,0,0,1-.08,1.87.54.54,0,0,1-.41-.1C56.5,205.3,57.19,204.84,57.37,204.24Z"/><path class="cls-1" d="M67.08,231.23l-.32-.33a2.44,2.44,0,0,1,0-.27c.47-.11,1-.47,1.3.27C67.83,231.28,67.45,231.23,67.08,231.23Z"/><path class="cls-2" d="M59.18,191.44c0,.23,0,.52-.32.56,0,0-.13,0-.13-.07,0-.3.21-.41.45-.5Z"/><path class="cls-1" d="M72.32,195.37l.16-.72s.11,0,.12.09a.52.52,0,0,1-.25.65Z"/><path class="cls-1" d="M78.46,190l.05.13-.19,0s0-.1,0-.14S78.42,190,78.46,190Z"/><path class="cls-1" d="M70,202l.13.07L70,202Z"/><path class="cls-5" d="M120.78,158.88l.9-.06a1,1,0,0,1,.3.08c.07.24-.8.38-.11.63A5.28,5.28,0,0,0,124,160c.91-.06,1,.63,1.31,1.12.06.11-.47.56.12.67.43.09.6-.31.53-.63-.29-1.3.43-.81,1-.6,1.06.4,1.33.75,2,2.6h0c.38,2.22-1.73,3.09-2.63,4.65-.55-.16-.49-.84-.81-1.22a1.83,1.83,0,0,0-1.22-.62c-.35,0-.25.52-.28.83,0,.46.19,1.06-.49,1.24s-.71-.6-1.06-.77c-1.47-.71-1.42-2.43-2.45-3.4a3.11,3.11,0,0,0,.79-3.2A7.09,7.09,0,0,1,120.78,158.88Z"/><path class="cls-7" d="M120.78,158.88a7.09,7.09,0,0,0,0,1.78,3.11,3.11,0,0,1-.79,3.2c.22,1.28-.48,2.53-.08,3.84a.82.82,0,0,1-.84,1c-.55,0-.9-.12-1-.76-.23-1.41-1.94-2.38-1.22-4.09A37.78,37.78,0,0,1,120.78,158.88Z"/><path class="cls-4" d="M131.64,159c.71-.2,1.13-.15,1.36.32.05.1,0,.38-.11.4C132.28,160,132,159.5,131.64,159Z"/><path class="cls-5" d="M129.23,162.4l-.11-.09s.09-.06.12-.05.07.05.11.08Z"/><path class="cls-5" d="M128.91,163.15,129,163l-.08.13Z"/><path class="cls-4" d="M144.21,177.13c.94,0,2.32,1.36,2,2.23a2.33,2.33,0,0,1-1.84,1.83,5.27,5.27,0,0,1-2.52-1.77A2.76,2.76,0,0,1,144.21,177.13Z"/><path class="cls-3" d="M136.15,184.19l.14.15-.15-.13Z"/><path class="cls-7" d="M65.64,208.09c-1-2.57-.16-4.87,1-7.32C67.41,203.49,64.94,205.55,65.64,208.09Z"/><path class="cls-7" d="M70.33,212.8c-1.06-.07-.88.83-.9,1.35,0,.37-.07.49-.35.5s-.3-.22-.35-.44c-.36-1.43,0-1.85,1.65-2.05C70.36,212.38,70.34,212.59,70.33,212.8Z"/><path class="cls-1" d="M70.33,212.8c0-.21,0-.42,0-.64H71l0,.93Z"/><path class="cls-7" d="M70.36,211.49c-.18-.07-.5-.12-.52-.23-.08-.36.25-.38.5-.43l.33.14a.31.31,0,0,0,0,.19h0Z"/><path class="cls-7" d="M70,217.38c.1-.16.16-.39.31-.47a.18.18,0,0,1,.24.24c-.09.15-.32.2-.48.3Z"/><path class="cls-1" d="M70.67,211l-.33-.14.2-.39C70.78,210.57,70.66,210.78,70.67,211Z"/><path class="cls-7" d="M65.64,208.76l0,.14-.2,0c0-.05,0-.11,0-.15S65.6,208.77,65.64,208.76Z"/><path class="cls-7" d="M70.06,217.45l-.19.13.12-.19Z"/><path class="cls-1" d="M70.36,211.49l.33-.32c0,.12,0,.23,0,.35Z"/><path class="cls-7" d="M64.43,204.24l.16-.12-.12.16Z"/><path class="cls-1" d="M89.11,226.63l.14.08-.14-.08Z"/><path class="cls-7" d="M68.43,230.87l.13.2-.2-.13Z"/><path class="cls-4" d="M161.14,203.27l.34.34Z"/><path class="cls-4" d="M165,201.66l-.21.17-.2-.31c.09,0,.19-.11.26-.09S164.94,201.57,165,201.66Z"/><path class="cls-4" d="M124.3,151.3l.14-.12-.13.13Z"/><path class="cls-5" d="M145.93,151s0,.08-.05.1-.07,0-.1,0l.08-.19Z"/><path class="cls-5" d="M152.26,149.34l.43.12c-.24.3-.31,0-.43-.13Z"/><path class="cls-5" d="M151.69,150.11s0,.09,0,.1a.42.42,0,0,1-.12,0l0-.17Z"/><path class="cls-2" d="M111.08,175.64c-.07-.23-.16-.37-.12-.47s.2-.19.31-.28c0,.13.15.26.13.37S111.24,175.46,111.08,175.64Z"/><path class="cls-2" d="M110.29,175.24l-.23.19a.64.64,0,0,1-.1-.24s.08-.1.11-.09A2,2,0,0,1,110.29,175.24Z"/><path class="cls-4" d="M115.74,157.72c-.06.09-.11.18-.17.26,0-.09-.13-.18-.13-.27s.1-.18.15-.26Z"/><path class="cls-4" d="M117.39,153l-.14-.15.16.13Z"/></g><g id="Layer_2" data-name="Layer 2"><rect class="cls-14" width="208.92" height="307.28"/></g></svg>