<svg xmlns="http://www.w3.org/2000/svg" viewBox="0 0 208.92 307.28"><defs><style>.cls-1{fill:#d84f55;}.cls-2{fill:#9c2231;}.cls-3{fill:#506230;}.cls-4{fill:#c62d2e;}.cls-5{fill:#79c838;}.cls-6{fill:#a0d52e;}.cls-7{fill:#393232;}.cls-8{fill:#58982f;}.cls-9{fill:#72403a;}.cls-10{fill:#925e3f;}.cls-11{fill:none;}</style></defs><title>cursoredArtboard 1</title><g id="Layer_1" data-name="Layer 1"><path class="cls-1" d="M83,280.77c-.94.08-1.38-1-2.25-1,.07-.13.12-.37.21-.39.55-.1,1.52.44,1.48-.52,0-.68-1-1.18-1.72-1.22a1.47,1.47,0,0,0-1.6,1.08c-2.06-1-3.75-2.65-6-3.27-.27-.08-.48-.44-.67-.7A151.23,151.23,0,0,1,61,256.4a1.87,1.87,0,0,1-.34-1.24c1-1.07,1.8-.07,2.66.24h0a2,2,0,0,1,1,2.2c-.1.38.07,1,.66.85,1-.33,1.36.35,1.81.95.2.27.33.8.81.28A15.27,15.27,0,0,1,68.9,263c-.09.3-.08.76-.28.89-1.25.84-.55,1.86,0,2.46s1.8,1.11,2.28.37a2.27,2.27,0,0,0,.12-2.78c-1.65-2.13-1.41-4.81-2.07-7.22-.23-.85-.29-1.7-1.07-2.25,0-.63-.45-.79-1-.85.08.61-.6.82-.71,1.28-.06.26.42.18.67.24v1.29c-.32-.07-.86-.08-.91-.23-.61-2.18-2.61-2.5-4.25-3.42-1.28-.73-1.6-.12-2.08.73a59.1,59.1,0,0,1-3.18-7.93l1.3,1.18c-.21-1.07.4-1.38,1.08-1.47,1.09-.15.94,1.1,1.58,1.53,1.24-.66,1.82-1.38.4-2.52-.88-.7,0-1.14.45-1.19a1.94,1.94,0,0,1,1.51.32c1.06.88,1.65.46,1.86-.78a1,1,0,0,0,1-.67,4.13,4.13,0,0,0,3.17,1.71c.39,0,.88.32.62,1.11-.44,1.33.23,2,1.62,1.65.85-.2,1.6-.36,2.25.38s.92.05,1.39-.16c.67-.29.72-.73.5-1.31-.47-1.25-2.37-1.37-2.39-3a.28.28,0,0,0-.15,0c-1.71.65-1.65-1-2.37-1.81.63-.06,1.24.09,1.58-.57a.49.49,0,0,1,.92,0c.55,1.33.86.6,1.28-.08.22-.34.89-.86.58-1a14.23,14.23,0,0,1-2.08-1.23c-.52,1.05-1.29.4-2,.31h0c.79-1.05.24-1.58-.77-1.84a2.28,2.28,0,0,0-1.43,0,4.91,4.91,0,0,1-3.43.3l0-.73c.42-.31.4-.62,0-.92-.17-.71-1-1-1.11-.49-.37,1.13-1.64,1.74-1.58,3A2.59,2.59,0,0,0,60,238c-.39.45-.28,1.47-.7,1.73-.9.55-.51.87-.06,1.33s1.19.68.71,1.55a1.69,1.69,0,0,1-1.93.86c-1.45-.46-1.72.37-2,1.4-.72-1.94-1.83-3.71-2.36-5.72-.11-.15-.22-.31-.32-.47l0,.05c-.1-1.07-.22-2.12.8-2.94a1.31,1.31,0,0,0,.14-1.23c-.61-1.22-.29-2.62-.87-3.83a8.67,8.67,0,0,1,4.22-1c1.63.13,3.23-.28,4.92.29,1.43.47,3-.62,4.57-.38a8.31,8.31,0,0,0,5.08-.5,1.1,1.1,0,0,1,.65,0,9.46,9.46,0,0,0,4,.33c.22-.06.63-.12.63.26a2.65,2.65,0,0,1-.3.9c-1-.5-1.27.86-2.09.8-.28-.42-.31-1.18-1-1.12a1.34,1.34,0,0,0-.89.83c-.42,1.46-1.5,1.3-2.59,1.17-.48-.05-1-.16-1.44-.19a.54.54,0,0,0-.62.58c0,.36-.23.83.13,1.05s1,.3,1.08.17c.61-1,1.12-.38,1.75,0a2,2,0,0,0,2.58-.14l.13.07-.13-.06c-.1-1-.65-2.11,1-2.31-.26.84-.36,1.47.92,1a4.77,4.77,0,0,0,1.47-.66c.5-.43.88-.28,1.24.16s.32.8-.16,1.23-1.39,1.07-1.1,2c-1,.1-1.49-.57-2.13-1.09-.28.61-.69,1.11-.47,1.64.46,1.15.18,1.73-1.14,1.9l2,.67-.6,3.23c-1,0-1.12.86-1.5,1.51a4,4,0,0,0,1.84.18,1.43,1.43,0,0,0,1,1.45,1.37,1.37,0,0,0,1.4,0c.53-.34-.36-.61-.31-1,1.17,0,2.54-1,3.41.7.15.29.64.79,1.07.39.82-.77,1.2,0,1.84.43-.44-.85.14-1.49.19-2.22h0a1.26,1.26,0,0,1,.91.27c1.86,1.93,3,2.17,5.54,1.15a3,3,0,0,1,.81-.11c.44.35.33.83.32,1.29-.95.29-1.87.82-2.9.28-.23-.12-.46-.07-.53.16s.19.48.46.54a4.12,4.12,0,0,0,3.32-.62l1.29-1.33c.75-.23,1.86-.08,1.39-1.51-.11-.33.35-.5.65-.61.47-.17.51.22.63.52.61,1.66,2,2.2,3.57,2.28h0c1.16,1.54,2.9,1.25,4.45,1.22.58,0,.89-.15,1.42.3s1.73,1.39,1.5-.62a.75.75,0,0,1,.66-.82c.5,0,.31.42.43.68.55,1.12,1.19,1.15,1.82,0a3.92,3.92,0,0,1,1.52-1.26c.69-.47,2.18-.84,1.63-2.18a2.28,2.28,0,0,0-2.6-1.55c-1,.23-1.53-.26-2.27-.79s-.31-1.58-1.21-2c-.36-.17.1-1,.39-1.46.19-.29.63-.49.81-.14.64,1.25,1.52.51,2.33.35.35-.07.71-.37,1,.14s.4.77,0,1.19a1.67,1.67,0,0,0-.36.7c-.06.25-.1.6.19.72s.65-.08.66-.34c.05-1,1-1.51,1.35-2.34.29-.65.1-.7-.4-1-1-.7-2.19.17-3-.29s-1.64.09-2.5-.23c-1.47-.56-.74,1.17-1.34,1.6a3.43,3.43,0,0,1-.58.27h0c0-.46.18-1-.35-1.32l0-2.26a17.17,17.17,0,0,0,9.63-7.53c.6.92,0,1.93.19,2.88l-.13.16.16-.13a4.76,4.76,0,0,0,2-3.25,27.55,27.55,0,0,1,.66-3.07c.4.52,1.11-.13,1.2.05.57,1.21,1,.07,1.34-.1a1,1,0,0,0,.54-1.24c-.19-.5-.78-.51-1.27-.55l-.8-.07c.42-1.37.82-2.7,1.23-4a1.33,1.33,0,0,1-1.69.18c-.58-.26.09-.7,0-1.09a9.55,9.55,0,0,1,0-1.31c.68-.1.72-.49.45-1.19l-.46,1.17c-.83.58-.15,1.94-1.22,2.4l-.18-.18.38-2.6c.61-.32.37-1,.5-1.45s.53-.82,1.06-.68.9.88,1.21.28-.06-1.23-.4-1.8-1-.46-1.23-1.39c1.77.89,3.45,1.42,5.19.51.15-.08.53,0,.48.29-.34,2,1.71,2.07,2.62,3,.61.66,1.54,1.2,2.24-.1a.33.33,0,0,1,.55,0c.71.77,1.72.51,2.57.79.14.19.31.3.54.16.06,0,.13-.2.1-.26-.14-.29-.36,0-.54,0a3.78,3.78,0,0,1-.28-.78.73.73,0,0,1,1.1.16c.46.68,1,1.34,1.43,2-1.74.24-1.75.25-.85,1.95.11.21.19.47-.05.52s-.49-.1-.74-.17l-.17-.15.16.17a14.72,14.72,0,0,1,.39,3.05,1,1,0,0,0,.71,1c.4.09.84-.45.74-.68-.56-1.37.38-2.85-.36-4.17-.12-.21-.54-.36-.26-.64s.57.14.88.13h.08l.44.06a1.49,1.49,0,0,0,1.76-.11c1.32-.77,2-.39,2.33,1.07,0,.13.35.19.53.27h0c-.86,3.08.73,5,3.64,4.12a9.35,9.35,0,0,1,1.59-.21c.2.24.39.48.58.73l0,.6c-.23.25-.27.48.08.65.06.42.23.72.73.67s.54-.47.56-.84c0-.91.05-1.83.07-2.74,1.91.12,1.32-1.23,1.17-2.24,2.27,0,2.55.17,3.79,1.6.57.65,1,1.54,2.15,1.37.2.89-.77,1.89.3,2.74.79-.93.72-2.34,1.73-3.12.73.72,1.27,0,1.87-.27l-4.39,8.83c-.38-.5-.31-1.32-1.09-1.55s-1-.35-.52-1.2c.43-.69-.75-.85-.9-1.55-.08-.4-.73.1-1.08.28-.56.29-.53.78-.2,1.24.15.23.4.45,0,.65a.73.73,0,0,1-.77-.09c-.18-.11,0-.53-.45-.43a10.46,10.46,0,0,1-4.35-.12c-.09-.51.68-1.28.18-1.24-.66,0-1-1.4-1.83-.27s-1.41-.57-2.23-.51a.29.29,0,0,1-.27-.46c.36-.53,1.11,0,1.55-.53.11-.15.71.12,1.08.13s.87.11.77-.52c-.07-.37-.22-.42-.75-.39a8.28,8.28,0,0,1-3.33-.52c-.61-.22-1-.39-1.27.26s-.2,1,.55,1.26.72.73.09,1.17c-.24.17-.48.41-.24.66.75.75.14,1.35-.1,2.05-.18.51-.3,1.31.69,1.28a8.79,8.79,0,0,1,6.93,2.77c.37.39.62.08.88-.28a1.74,1.74,0,0,1,2.21-.28c.07,2.05.92,1.12,1.77.61a2.84,2.84,0,0,1,1.61-.12c-1.67,3.74-3.36,7.48-5.29,11.1-.52-3.44-2-4.68-4.3-4.24-.18-2.05-.83-2.54-2.63-2-.68-.52-1.59.39-2.24-.37-1.05-1.22-2.19-.77-3.27-.09-.82.53-1.57,1.16-2.35,1.75.3-1.49-1.21-2.54-1-4,0-.24-.21-.33-.46-.29s-.56-.1-.52.18c.09.77-.44,1.71-.28,2.13.57,1.51-.27,2.72-.42,4-.39-.33-.71-.79-1.32-.67l-.13-.08.13.07v1.64a4.21,4.21,0,0,0-1.32-1.63c-.31-.6-.19-1.15.47-1.29a1.3,1.3,0,0,0,1.07-1.84c-.26-.79-1.13-.65-1.82-.55a2.27,2.27,0,0,1-2.62-1.12c-.32-.55-1.21-1.14-1.84-.76-1.25.74-2,0-2.78-.65-.27-.22-.5-.46-.84-.17a.71.71,0,0,0-.13.76c.2.68,2.59,2,3.15,1.69.88-.58,1-.2,1.08.58s.35,1.42,1.21.56c.65-.66.66.09.84.37.43.63.14,1.48.64,2.12.15.2.13.65.4.22.51-.8.78.31,1.18.07-.08.7.37,1.72-1,1.65l-.12-.08.13.08c-.77,2.23-1.54.27-2.31,0,1.28,0,1.12-.94,1.14-1.83a2.17,2.17,0,0,1-2,.91c-.31,0-.39.32-.44.59-1.39-.32-1.32-1.31-.62-2.05,1-1-.3-1.35-.48-1.34-2.16,0-4.19-.9-6.34-.87-1,0-1.67.34-1.11,1.45.31.59,0,.65-.37.94-1,.7-1,1.48.12,2.11.51.29,1.07.5,1.61.75a6.92,6.92,0,0,0-.85,1.52c-.61,2.21-1.14,4.44-1.73,6.65a1.06,1.06,0,0,0,.64,1.33c.56.24.59-.45.77-.77a12.5,12.5,0,0,0,.48-1.2c2.63-1.24,5.47-.91,8.4-.94-.62-.72-1.09-1-1.94-.75a4,4,0,0,1-3.76-.5c-.46-.37-.73-1-1.39-1.09-.12-1.26.75-2.34.66-3.6.86.11,1,.54.82,1.38a1,1,0,0,0,1.38,1.22c1-.56.91.27,1.32.57s.32,1.31,1.25,1c.71-.24.83-.77.81-1.43s.2-.87.8-.67c1.52.5,1.92,1.83.92,3.18-.2.28-.53.65-.2.79a2.51,2.51,0,0,0,2.63-.12,1.11,1.11,0,0,0-.17-1.93c-.45-.28-1-.8-.57-1.13,1-.81.83-1.93,1-3,1.16.79,1.13.78,1,2.24a1.34,1.34,0,0,0,.42,1c.28.24.55-.16.8-.37s.31-.81.85-.54c.34.16.34.5.37.84.06.78,1.63,2.19,2.14,1.87s.78-.49,1.19,0c.14.19.28.37.15.57a1.1,1.1,0,0,1-1.33.37c-1-.35-1.51.05-2.12,1,1.21-.39,1.3,1.22,2.33.91.57-.18.87-.14,1.08.51a1,1,0,0,0,1.31.66c.44-.24.22-.89,0-1.36-.78-2.13.06-4,1.05-5.76.17-.31.39-.65.74-.44s0,.49-.14.75c-.35.74.27,1.21.54,1.77a.31.31,0,0,0,.54,0c1-1.19,1.9-.38,2.83.12.47.24,1.31.7,1.42.57,1.39-1.57,2,.29,3,.58-1.16,2-2.31,4-3.47,6-.19-.38-.49-.7-.13-1.18.68-.88-.25-1.22-.65-1.08-.71.25-1.58.63-1.34,1.79.08.38.75.69.28,1.07s-.93-.36-1.38-.43c-.91-.14-.11-1.14-1-1.41-.13,1.59-1.24,2.1-2.61,2.33-.33.05-.59.62-.4.77.82.68.44,1.75.95,2.5.4.59.8.71,1.4.15a4.55,4.55,0,0,1,2.81-1.62c-.29,1.41-1.69,2.07-2.22,3.31-.44-.5-1.08-.45-1.12.12-.14,2-1.23.9-1.82.54-2-1.21-4-2-6.3-1,.26-.9-.58-2,.63-2.74.05.26.13.74.36.64.78-.35,1.19,0,1.64.56a1.41,1.41,0,0,0,1.83.18c.48-.33-.07-1-.3-1.44-.1-.19-.36-.35-.36-.53,0-1.41-.06-2.7-1.41-3.68-.36-.26-.23-1.33-1-1.7-1.24-.64-2.72-.57-3.93-1.33-.19-.12-.31.22-.46.34-1.2.92-1,2.53-1.67,3.51-1.27,2,.24,1.62,1.1,1.89a13.37,13.37,0,0,0,1.91.33,20,20,0,0,0-.42,3.93c-.91.73-1.39-.24-2-.57a1.63,1.63,0,0,0-2.59.68c-.64,1.12-.15,1.45,1,1.75,1.51.43.1,1.52.29,2.31.14.57-.7.6-1,.37-1.25-1.11-2.14-.91-2.92.52-.11.19-.59.19-.91.24s-.7.29-.6.37c.85.72.15,1.82.67,2.55.29.42,1-.25,1.34.24a3,3,0,0,0,3.39,1.11c1.56-.28,2.33,0,2.4,1.65-.25.11-.22.22,0,.33-.15.5.8.56.49,1-.53.72-.12,1.22.14,1.83.18.4,1.14,1,0,1.31-.8.24-1.63,1.77-2.42.38-.52-.92-.83-.05-1.19-.19a2.57,2.57,0,0,1,0-.48c.1-.76-.17-1.33-1-1.41s-.57.71-.73,1.15a4.55,4.55,0,0,0,1,5.31,1,1,0,0,0,1.23,1,1.32,1.32,0,0,0,1.09-1.07c0-.79-.82-.36-1.24-.59a7,7,0,0,1-.78-.56,1.62,1.62,0,0,1,.4-1c.81,0,1.59,0,2-1a2.62,2.62,0,0,1,.24.58c.09.81.61,1.56,1.32,1.31s2.31,1.06,2.19-1c.69.18.69-1.63,1.68-.59a5.75,5.75,0,0,1-4.77,5,3.81,3.81,0,0,0-1.4,1h.07c-1.1.17-2.2.57-3.28-.08-.31-.19-.51,0-.63.27-.88,1.9-2.76,1.74-4.37,2.14l-.29-.1a8.91,8.91,0,0,0-.25-1.56c-.42-1.21-1.26-1.34-2.15-.37-.64-.09-1.27-.24-1.92-.28a1.51,1.51,0,0,0-1.6,1.93c.48,1.29,0,2.39-.38,3.58h2.13c-.2-.44-1.34-.21-.73-.95.46-.55,1.08-.41,1.61,0,.37.26.22,1,.93,1l2.31.13a42.83,42.83,0,0,1-12.12-.41l1.31-.09c-.29-.49-1.07,0-1.19-.68.25-.21.51-.41.74-.64s.52-.64.1-1-.6.07-.74.43-.48.44-.91.3c-1.3-.42-2.6-.84-3.23-2.21-.22-.49-.72-.29-.91-.42-.87-.6-1.6.61-2.37.07a2.81,2.81,0,0,0-2.73-.48c-.25.1-.77.2-.7-.3.18-1.28-.5-.32-.76-.31-1,0-2.27,1.13-2.88.13-.79-1.32-2.18-.1-2.85-1.1l-.42.5,0-.08c0-.62-.81-.66-.91-1.22-.06-.36-.06-.8-.58-.78S83.05,280.27,83,280.77ZM68.23,231.39c.2,0,.44,0,.49-.31,0-.05-.13-.18-.18-.17-.28,0-.27.28-.31.48l-.07.13Zm13.82,31.9.08.09L82,263.3a3.58,3.58,0,0,1-1.34-2c-.37-1.49-1.3-2.88-.73-4.56.25-.74-.23-1.27-1-1.3s-.84.65-.82,1.26c0,.82,0,1.64,0,2.45A4.76,4.76,0,0,0,82.05,263.29Zm20.71,12.5c.77.21,1.89.27,1.73,1.32-.24,1.63,1,1.49,1.77,2.23.24-1.38-1.05-1.57-1.22-2.46-.1-.5-.29-.91.25-1.29s.8-.09,1.11.39,1.28.63.8,1.65c-.14.3.33.89.75,1.19s.85.43,1.19.06a.62.62,0,0,0-.22-1.07c-.78-.36-.56-.79-.16-1.28.18-.23.66-.58.27-.78-.9-.47-.59-.9-.18-1.48.19-.26-.07-.64-.32-.58-.92.24-1.21-.58-1.76-.94-1.42-.92-2-.64-2.18,1a4.12,4.12,0,0,1-.32.93c-.58-.51-1-1-1.55-1.38-.28-.23-.4-1-.93-.47a.89.89,0,0,0,.17,1.36,1.68,1.68,0,0,1,.81,1.65l-.08.13ZM112.31,263c-1.44-.45-1.28-1.59-.78-2.48.42-.74.23-1-.24-1.48-.77-.78-.75-2.55-.05-2.52.92,0,1.83-.37,2.77,0s1.54.51,1.23,1.73.74,1.93,1.48,2.61a2.48,2.48,0,0,0,2.42.26c.66-.25.74-1.29.66-2s-.94-1-1.56-1.28c-.44-.16-1.06.49-1.6-.15a5.93,5.93,0,0,1,2.55-.59c2,0,2,0,1.5-1.86-.42-1.68-1.64-.75-2.41-.62-1.25.22-2,.12-2.16-1.43-1.21.8-2.05.67-2.73-.6a1.63,1.63,0,0,0-2.29-.64c-.92.45-.82,1.2-.25,2.2-1.46-1.77-2.45,1.4-3.71-.15-.24.74.74,1.7-.31,1.85s-1.8,1-2.86.9-1,.49-.72,1.17c.12.34.8.74.06,1-.45.17-1.2.35-1.43-.33s-.35-.66-1.06-.42c-1,.33-2.2.12-2.16,1.7,0,.08-.26.25-.37.23-1.11-.21-1.21.66-1.23,1.31a1.85,1.85,0,0,0,1.14,1.82,4.86,4.86,0,0,0,2.91.49c1.14-.17,1.6-1.3,2.47-2.1.34,1.5,1.85,1.72,2.52,2.89a3.26,3.26,0,0,0,.28-1.75c0-.35-.19-.86.32-1a.75.75,0,0,1,1,.67c0,.76.6.9,1.12.94a12.49,12.49,0,0,0,3.56.13c.29,1.14.3,2.41,1.38,3.19a1.62,1.62,0,0,0,.93.21c.25,0,.28-.36.18-.52-.7-1.08-.4-2.31-.6-3.46-.13-.74-.31-1.66-1.31-1.56S112.58,262.49,112.31,263Zm-12.84,2.26c-.16,1.54-.35,1.67-2,1.44-.27,0-.55-.17-.75.08a.43.43,0,0,0,.15.69c.84.34.38.95.23,1.36-.22.6-.84.42-1.29.28-.78-.24-1.44-.45-1.9.56-.31.68-.79.17-.9-.18a2.38,2.38,0,0,1,.32-2.28c.29-.39.67-.72.58-1.29-.05-.3-.12-.54-.45-.58a.43.43,0,0,0-.47.36c-.08.31.35.82-.35.87-.55,0-.77-.38-.92-.79a2.63,2.63,0,0,0-2.86-1.67c-.63,0-1.28.18-1.94.17s-1.13-.11-1.22.71.23,1.67.92,1.65c1.61-.07.75.68.55,1.25-.36,1-.21,2,1,2.14a3.11,3.11,0,0,1,2.39,1.64c.92,1.31,1.73,1.12,2.38-.41.08-.18,0-.6.26-.48,1.71.88,4.18-1.25,5.44,1.37.05.11.36.23.37.22,1-1.38,2.19-.07,3.27-.22.38-.06.82-.14,1-.52a.6.6,0,0,0-.49-.74c-1.34-.3-1.4-1.19-1.08-2.26.08-.28.18-.65-.07-.75C100.38,267.44,100.35,266.17,99.47,265.27Zm-22.55.18c0-.4-2-1.6-2.38-1.43a.59.59,0,0,0-.37.66c.18,1,.17,1.85-1,2.38-.51.22-.12.83.22,1.24a3,3,0,0,1-.52,3.23c-.33.24-.68.42-.61.86s.56.4.92.46c2,.32,3.93.77,4.73,3,.23.64.56.59,1-.09.61-1,.59-2.49,2.11-3a1.11,1.11,0,0,0-.32-1.91,12.21,12.21,0,0,0-2.91-1.4c-.56-.09-1.29-.78-1.09-1,.84-1-2.49-2.19.22-2.87C76.89,265.59,76.9,265.5,76.92,265.45ZM78.46,264c.91,1.45.94,3.15,2.58,3.92s2.78,1.87,4.45,2.24c.4.09,1,.18,1.07-.42s-.47-.33-.8-.35-.37-.45-.46-.74c-.18-.54-.47-1.1-1.12-1s-.82-.05-1-.52.23-.8.55-1.07.77-.45.5-.88-.51-.78-1.16-.7A17.89,17.89,0,0,1,78.46,264Zm21.27,8.82a1.36,1.36,0,0,0-1.22,1.47,19.4,19.4,0,0,0,.16,4.25c.26,1.27.49,2.84,2.36,3,.21,0,.42.18.6,0s0-.48-.09-.73c-.62-2.12-1.47-4.2-.63-6.5C101.18,273.53,100.64,272.92,99.73,272.83Zm-11.91,7.08a44.5,44.5,0,0,1-1.83-7A1,1,0,0,0,84.9,272c-.69,0-.35.57-.42,1a11.22,11.22,0,0,0,.28,3.38C85,278.55,86,279.63,87.82,279.91Zm6.47-21.47a15.79,15.79,0,0,1,.17,2.51c-.1,1.46.89,2.29,1.65,3.27.13.18.31.33.54.22s.24-.43.16-.7a27,27,0,0,1-.63-5.94.8.8,0,0,0-.67-.88C93.76,256.31,94.65,257.83,94.29,258.44Zm19-23.52c.65-2.44.67-2.47,2.67-.76.39.33.53.26.93.06a1.28,1.28,0,0,0,.42-1.92c-.45-.55-.9-1.62-2.08-1.06-1,.47-1.89,1.26-3.24,1.06C113.67,232.68,112.17,234.27,113.3,234.92ZM95.12,256.37a2.19,2.19,0,0,0,2.36-1.92c.11-.76-.21-1.17-1-1.43s-1.11,0-1.18.64a1.23,1.23,0,0,1-1.24,1.21c-.32,0-.81.22-.69.74a.87.87,0,0,0,.92.76Zm-30.06-4.73c-.48-1.42-1.86-1.88-2.8-2.79-.46-.45-1.06-.55-1.33.38s-.69,2,1,1.91c.41,0,.66.27,1,.48A1.63,1.63,0,0,0,65.06,251.64Zm59.07,20.52c0-1-1-2.47-1.8-2.24-.45.14-1.25-.39-1.57.62s.39.89.8,1.22a3.94,3.94,0,0,1,.87.95c.31.5.67.91,1.29.68S124,272.56,124.13,272.16Zm-19.37,9.6a2.47,2.47,0,0,1-.58.19c-.92.1-1.69.43-1.37,1.51s1.12,1,2,.56a4.71,4.71,0,0,1,1.24-.32c.4-.07,1,.08,1-.56a1.2,1.2,0,0,0-.91-1.18A4.08,4.08,0,0,1,104.76,281.76Zm-6.13-32.4c-.51.68-1.85.24-1.75,1.46a1.59,1.59,0,0,0,1.67,1.39c.26,0,1.43-.27,1.12-1.2C99.47,250.42,99.35,249.67,98.63,249.36Zm16.12,21.1c-.45.63-.34,1.13.47,1s1.84.25,1.89-1.2c0-.93-.77-.68-1.08-1.08C116,270,113.68,268.56,114.75,270.46ZM125,222.09c-1-1.2-1.51,0-2.2.27-.24.09-.75-.15-.59.44s.42.51.87.37A7.58,7.58,0,0,0,125,222.09ZM120.1,251c-.24-.43-.16-1.09-.83-1.26a.38.38,0,0,0-.49.46c.11.53.25,1.12.83,1.34C119.79,251.58,120.12,251.35,120.1,251Zm-13.24,29.58c.7.36,1,1.24,1.85,1.05.11,0,.24-.49.23-.5C108.34,280.8,107.79,280.29,106.86,280.56ZM112,234c.12-.17.26-.28.26-.39s-.08-.35-.17-.37c-.26-.07-.36.14-.34.35S111.84,233.79,112,234Zm26.82-.59c-.23.06-.38.16-.25.33a.56.56,0,0,0,.4.2.21.21,0,0,0,.2-.33C139.07,233.47,138.87,233.43,138.78,233.38Zm.38,1.32c0-.08-.08-.21-.14-.22a.26.26,0,0,0-.25.1.19.19,0,0,0,.18.29C139,234.87,139.09,234.76,139.16,234.7Zm-5.8,20,.31.28c0-.08.13-.19.1-.25a2.33,2.33,0,0,0-.27-.37Zm4.36-20.15c-.09-.06-.17-.15-.25-.15s-.18.08-.27.12c.08.06.16.15.25.15S137.63,234.57,137.72,234.53ZM84.88,265.39s0,.09,0,.11.09,0,.13,0l0-.19Zm4.64-1.89a.65.65,0,0,0,.13,0s0-.07,0-.11a.65.65,0,0,0-.13,0S89.53,263.46,89.52,263.5Z"/><path class="cls-2" d="M158.21,220.31c-.6.27-1.14,1-1.87.27.08-.53-.12-1.12.26-1.58.82-1,.29-2.2.42-3.3a.58.58,0,0,0-.51-.7c-.36,0-.69.06-.73.46-.24,1.9-1.44,3.55-1.47,5.5-1.11.17-1.58-.72-2.15-1.37-1.24-1.43-1.52-1.58-3.79-1.6.15,1,.74,2.36-1.17,2.24-.14-1.66.42-3.6-1.83-4.43-.39.83,0,1.64-.16,2.42-.81,0-.93-1.46-2-.91,0-.16.17-.4.11-.47-.69-.75-1.08-1.33.48-1,.1,0,.27-.16.36-.28.71-1,1.52-.73,2.37-.21.28.17.6.71.91.18.65-1.08,1.12-1,1.6.1a.37.37,0,0,0,.56.15c1-.81,1.29-.31,1.53.64.2.76.84.57,1.35.44s.73-.49.37-.87c-1.1-1.1.17-.81.57-1,3,.34,2-2.34,2.92-3.87-1,.48-1.47-.55-2.29-.36a1,1,0,0,1-1-.57c-.32-.66-.82-.57-1.26-.05a56.31,56.31,0,0,1-8.22-2.47c-1.19-.44-2.34-1.81-3.86-.64-.07,0-.43-.13-.53-.29a1.32,1.32,0,0,0-1.86-.43.79.79,0,0,1-1.11-.37c-.48-.87-1.35-.92-2.16-1.1,0-.56-.4-.88-.73-1.24s-.59-.44-.42-.81.68-.21,1-.26.81.28,1.18.5a5.3,5.3,0,0,0,2.47.8c.36,0,.85.12.95-.4s-.45-.44-.74-.62c-1.36-.85-3-.68-4.46-1.42a8.68,8.68,0,0,0-5.19-1.16c.2-1.66-.61-3-1.34-4.39-.22-.41-.44-.6-.88-.47a.52.52,0,0,0-.34.78c1.07,1.6.38,3.37.57,5-1.48-.59-2.89-1.72-4.61-.66h0a2.18,2.18,0,0,0-2.64-1.62l-.32,0h0a10.72,10.72,0,0,0-1-2.92,2.3,2.3,0,0,0,1.29-.41c.19-.18.54-.33.57-.53.3-1.92,1-3.77.8-5.78-.09-.78-.27-1.6-1-1.59s-1,.83-1,1.62c0,1.7,0,3.39-.06,5.09-.8-.29-2.12,0-1.7-1.64.1-.37-.42-.44-.74-.34-.53.16-.28.47-.09.74.61.88.12,1.14-.69,1.22-.2-.33-.26-.77-.68-.94l-.09-.78a26.19,26.19,0,0,0-2.22-7.24c-.89-1.69-.43-3.11,1-3.28,0,.28.13.55.45.61,4.81,1,9.69.79,14.54.61a13.11,13.11,0,0,0,3.58-.69,39.54,39.54,0,0,0,6.23-3c.53-.3,1.63-1.09.78-1.92a10.53,10.53,0,0,0-3.48-2.21c-.37-.45-.68-1-1.36-1l0,0a.48.48,0,0,0-.63-.31l0,0c0-.67-.56-.71-1-1a7.56,7.56,0,0,0-3.3-2.33,11.83,11.83,0,0,0-5.16-3.21c-1-.32-.56-.62-.16-1,4.46-.2,8.91-.67,13.37.27a9.26,9.26,0,0,1,3,1c2.49,1.56,4.89,3.26,7.32,4.9.34.75.7,1.46,1.73,1.21l0,0c.56.87,1.09,1.77,2.36,1.54l.08,0c-.12.49.21.46.52.45l0,0c-.09.9-.8.69-1.36.77l-.37,0a.84.84,0,0,0-1.28.11c.24.64,0,1.59,1,1.82a10.53,10.53,0,0,0,1,4.65c.1.66.22,1.44,1.11,1.22a1.17,1.17,0,0,0,.86-1.73,5.94,5.94,0,0,1-.38-2.66c0-.9-.32-2.15.38-2.6s1.31.87,2.12,1.12a.44.44,0,0,0,.16,0c3.82,4.3,5.63,9.53,6.88,15,.59,2.61.48,5.33.8,7.95a21.78,21.78,0,0,1-.44,8.37A49.91,49.91,0,0,1,158.21,220.31ZM141.93,184c-.08-1.06.17-2.29-1.35-2.61-.87.07-1.16.62-1.29,1.41-.3,1.67.85,3.08.78,4.73,0,.54,2,1.17,2.31.82S142.49,184.62,141.93,184Zm-1,20.39c.35.18.46.71,1,.65,1,1.05,2.41.48,3.56,1-.82-1.33-2.16-1.41-3.48-1.56,1.09-1.94.6-4,.47-6.07a2.33,2.33,0,0,0-2-1.86c-.35-.06-.8-.11-1,.31a.75.75,0,0,0,.27,1c1,.7,1,1.74.93,2.79s0,1.85,0,2.78c-.52.13-1.32-.87-1.56.2s.83.64,1.33.85A.5.5,0,0,0,140.92,204.42Zm15.44-4.59h0v-2.12c0-2.15-.67-3-2.67-3.46a1.63,1.63,0,0,0-1.81.7c-.39.71.45.72.86,1a4.87,4.87,0,0,1,2.28,3.88c0,1,.05,2.07.06,3.11,0,.42.13.75.64.75s.62-.36.62-.77C156.37,201.9,156.36,200.86,156.36,199.83Zm2.61,9c.05,0,.27,0,.47.11.52.17.87.07.86-.55s-.45-.72-.91-.61a3.24,3.24,0,0,1-1.42,0c-.48-.09-1.34-.37-1.4.28s.84.85,1.46,1A2.9,2.9,0,0,0,159,208.8Z"/><path class="cls-3" d="M123.43,166.63c-.4.41-.87.71.16,1a11.83,11.83,0,0,1,5.16,3.21l-.34.33c-.57.4-.1,1.33-.83,1.66-.21-1.4-.21-1.4-.67-2,0,2.42,0,2.42,1.26,3-.78.85-.95,1-1.37.29-.82-1.33-2.19-1.11-3.59-1.71.33.75.34,1.39,1.11,1.29.55-.07.73.09.57.61-.22.71-.1.94.68.62.22-.09.77.2.74.49-.29,2.41,1.86,1.39,2.73,2.16-.25-1-1.36-1.12-1.65-2,.55-.67,1.84-.28,2-1.44.8.11.66.74.67,1.26,0,1.1,0,2.19,0,3.28,0,.69,1.48,1.42.09,2-.87.36-.78,1.48-1.79,1.69-.54.11-.94.36-1.49,0a3.14,3.14,0,0,0-3-.16,6.77,6.77,0,0,1-3.16.49c-2.61.07-5.16-.79-7.78-.65-1.44.17-1.9,1.59-1,3.28a26.19,26.19,0,0,1,2.22,7.24c-1.25.5-1.78-1.4-3.23-.84-1.62.62-1.18-2.09-3.15-1.82a7.34,7.34,0,0,1,2.36-1.33c.74-.14.56-.89.6-1.35s-.56-.5-1-.57c-.69-.11-1.38.36-2.07,0-.36-1.24-1.23-2.6,1-3.08.48-.11.1-.86.12-1.31,0-.16-.48-.23-.54-.07-.55,1.49-1.32.44-1.93.13s-1-.19-.89.31c.29.94-1.47,2.1.34,2.85.17.07.15.8.08,1.2s.13.57.49.62a4,4,0,0,1,1.29,4c-.48-.08-.38-1.16-1.17-.69-.28.17-.46.41-.09.57s.39.39.07.66c-.79.65-.75-.8-1.4-.56-.07,0-.55,0-.17-.3a1,1,0,0,0-.24-1.76c-.85-.24.3-1.5-.7-1.21s-2.2-.41-3.19.75c-.43.5-.64,1.55-1.63,1.54.08-.71-.53-1.44.15-2.16.23-.23-.31-.55-.41-.37-.4.7-1.07.86-1.72,1.17-.21.1-.79.49-.55,1.05.19.41.66.33,1,.5a1.65,1.65,0,0,0,1.56-.2,14.32,14.32,0,0,0,.54,2.79c.52,1.59,1.18,2,2.42,1.28a1.59,1.59,0,0,1,1-.12,7.48,7.48,0,0,0,2.69-.44c-.41-.51-1.26-.29-1.7-1.23,3,.75,5.94-.16,8.74,1-1.06,1.5-2.21.53-3.13.06a3.1,3.1,0,0,0-2.81,0c-.69.29-.68.57-.07,1.19a.71.71,0,0,1-.31,1.26c-.61.16-1.1.22-1.4.89-.15.34-.58.18-.81-.11s-.27-.7,0-.7c.81,0,1.13-.32.51-.92s-.88.26-1.12.53c-1.13,1.26-2.24,1-3-.16-.58-.87-.44.08-.62.11-1.23.22.28,1.59-.79,1.89,0-1.37,0-2.73-.07-4.1,0-.39,0-.79-.56-.83s-.59.31-.69.72a21.32,21.32,0,0,1-2.8,5.73c-1.41,2.27-3.44,4.11-4.47,6.64-1.48.85-2.11,2.49-3.3,3.61-1.34.45-2.6,1-2.76,2.75A31.45,31.45,0,0,1,83,207.36c-.19-.85-.78-2.06.76-2.47a2.7,2.7,0,0,1-.92-2.9,5.17,5.17,0,0,0,.2-2.61c-1.43-2,1.09-3.95-.13-5.83,0,0,.62-.34.67-.57.11-.55,1.17-1,.49-1.52-1.07-.82-.51-1.85-.68-2.79,1.23-.36,1.93,1.28,2.28,1.19,1.44-.37,2.61.92,4,.42l.12.07-.12-.07a18,18,0,0,1-.39-2.07c-.13-1-.58-1.86-2.09-1.36.6.17,1.1.3,1,1-.9.21-1.17-1-1.94-.81-.35.08-.64.26-.78-.14s.35-.64.66-.73c.69-.22,1.45-.26,1.89-1-1.12-.47-2.23-.07-3.33-.13-.07-.85,1-1.35.66-2.28-.18-1.27,1-1.73,1.55-2.53.41-.56.7-1.07-.18-1.36-1.51-.5-3.09-.8-4.55-1.4s-3-.57-4.07-1.88c-.22-.65-.26-1.24-1.25-1.5-1.74-.46-3.57-.93-4.31-3.08-.47-1.34-.74-1.19-1.72-1.86-.7-.47-1.37-1.14-.89-2.18a2.84,2.84,0,0,0,.65,0c.56-.14,2,1.46,1.52-.79,0-.06.22-.22.36-.26s.44.07.4.32c-.08.47.42.85,0,1.4a.69.69,0,0,0,.61,1.13c.8,0,1.41.5,2.24.73,0-1.38,0-2.51,1.64-1.14.24.21.81,0,1.32,0a4.42,4.42,0,0,1,0-2.85,1,1,0,0,0-1.12.3,4.16,4.16,0,0,1-3.16,1.29c-.9.08-.86-.25-.89-.84-.08-1.42,1.67-1.2,2-2.26l.15.07-.14-.08c-.33-.75-1-.62-1.64-.68a.88.88,0,0,1,0-.28c2-.17,3.94.48,5.91.7,1.49.32,2.87.75,3.52,2.38.34.83,1.06.5,1.68.26a2.87,2.87,0,0,1,2.63,0c1.75.94,1.84.84,1.78-1.11,1.09-.32.72,1.24,1.4,1.17,1.59-.17,2.3,1.13,3.39,1.8.54.34.44.82.25,1.31s-.23.94-1,.74-1,.31-1.25.9c.91.16,2.09-.92,2.59.19.61,1.33,1.93,2,2.57,3.29.51,1,1.43,1.88.51,3.11-.7-.16-1.2-.07-1,.83a3.27,3.27,0,0,1-.07,1.52c-.25,1.19.56,2.61-.89,3.52a.18.18,0,0,0,0,.16c.94.93.67,2.72,2.26,3.2l.13.08-.13-.08a6,6,0,0,0,.52-2.6,5.27,5.27,0,0,1,1.5-4.32c.59,1.07.09,1.75-.85,2.73,1.28-.54,1.87-.45,2.24.61s1.23,1.07,2,.16c.6-.75.53-1.42-.36-1.87.57-.64,1-.06,1.63,0-1.2-2,1.17-1.09,1.4-2.11a1.09,1.09,0,0,1-.63-1.45c.3-.82,1.19-.38,1.86-.9-.5-.45-.93-.86-1.39-1.24s-1.09-.72-1.32-1.5c.51,0,1,.64,1.41,0,.19-.34-.11-.49-.3-.66-.54-.51-1,0-1.5.15-.09,0-.15.26-.18.41a14.25,14.25,0,0,1-1.66,3.77c-.51.88-1.5.63-2.09,1.28-.19.21-.46-1-.93-1.35l0-.33c.74.07,1.19-.94,2.1-.5.27.13.61-.74.45-.83-.93-.51-.25-2.07-1.54-2.26-.58-.6.1-2.05-1.4-2.06-.19,0-.21-.45.06-.45.86,0,.59-.59.59-1,0-1,0-2-.06-3l.12-.08.27.1.06,1.85c.18.89-.67,2.19.53,2.62,1.41.5,2.91,1.44,4.46.7,1.37-.65,2.56-1.66,3.89-2.38s2.37-1.79,4-1.78c0,.44-.44.6-.69.88s-.75.63-.35,1.23.77.12,1.16.1a1.21,1.21,0,0,0,1.2-.87c.44-1.09-1-.83-1-1.58a15.56,15.56,0,0,0,3.59-1.11,18.34,18.34,0,0,0,3.83-.55ZM111.3,172.2l.14.42.11-.09c-.07-.12-.14-.24-.22-.35-.06-.41,0-.94-.62-.9s-.64.9-1,1.3.12.46.35.52c.59.16.89-.14,1-.68C111.1,172.33,111.23,172.27,111.3,172.2Zm-2,5.74c-.32-.3-.22-.64-.22-.95,0-.6-.3-1-.85-1s-.47.64-.48,1.07a3.63,3.63,0,0,1,0,.81,1.94,1.94,0,0,0,.57,2.18c.56.32,1.15-.63,1.79-.9a1,1,0,0,0,.43-1.65C109.84,176.54,109.72,178,109.26,177.94ZM76,165.55l-.24-.17a.73.73,0,0,0,0,.25s.1.1.11.09A.91.91,0,0,0,76,165.55Z"/><path class="cls-4" d="M78.08,175.52c1,1.31,2.7,1.31,4.07,1.88s3,.9,4.55,1.4c.88.29.59.8.18,1.36-.58.8-1.73,1.26-1.55,2.53-1.24.1-1,1.72-2,2-.93,0-.71.91-1.08,1.35-.8,1-.85.94.43,1.25-.19.91.67,2.08-.67,2.69-2.2,0-4.27-1-6.49-.73-.34-.3-.67-.63-1.23-.44.21.73.79.38,1.17.5.06.67.56.79,1.07,1.06,1.41.72,3.11.86,4.25,2.13.19.22.7.23.54.66-.21.61-.63.11-1,.09-1.13-.08-2.17-1.1-3.4-.28a1.68,1.68,0,0,1,.51,1.44c-.1.44.26,1.12-.37,1.28s-.6-.54-.86-.86c-.4-.5-.63-1-1.55-.63a8.39,8.39,0,0,0-2,.86c-.57-.91-1.59-.74-2.43-1-.38-.13-.82-.75-1.11-.25s.45.74.8,1a28.37,28.37,0,0,0,8,3.67c.77.22,1.32,1,2.39.86-1-1.22-.74-1.57.66-1.17a3.22,3.22,0,0,0,1,0v1.36a.69.69,0,0,0-.86,0l.88.95,0,6.64c-1.47-.1-3-1.4-4.42.22-.34.39-1,.52-1,1.19a.6.6,0,0,0,.6.47c.54,0,1.13.32,1.35-.62a1.21,1.21,0,0,1,1.4-.6.93.93,0,0,1,.59,1.07C80.44,210,81.26,210,82,210c0,.44-.15,1,.06,1.29.71,1-.14,2.91,1.91,3h1.63c.2.38.66.82.58,1.11-.47,1.66.07,3.41-.5,5-.15.43.34.64,0,1.11-1,1.22-2.35,1.64-3.58,2.38s-1.65.17-1.68-1c.56,0,1.1,0,1.27-.69,0-.18,0-.47-.29-.4a1.08,1.08,0,0,0-1,1.09c-.75-.25-2-.41-1.84-1.23.44-1.73-.38-1.25-1.38-.76.66-1.23.66-1.23,1.53-1.67,1.69-.86,1.71-1.19.27-2.42-.32-.27-1.15-.73-.33-1.16.29-.15.6-.21.31-.39-1-.67-2.55-.93-3.13-1.83-.81-1.26-1.27-1.65-2.42-.55-.06.07-.55-.25-.8-.44s-.45-.62-.7-.65a4.85,4.85,0,0,1-4-3.22c-.68,2.08-1.79,1.75-3,1a4.11,4.11,0,0,0-1.51-.59c-.78-.12-1-.58-1-1.23,1-.41,2.08.23,3-.47l-7.69-1.13c0-.64-1.08-1.07-.71-1.51,1-1.24-.36-1.75-.5-2.7a1.8,1.8,0,0,1-3.07.26h0c0-.46.32-.32.63-.4.8-.21,1.9.31,2.33-.88a3.45,3.45,0,0,1,.65-2.32c.9.34,1.75.9,2.65-.13.4-.45.75.07,1,.45.35.57.88,1.31,1.51,1,1.06-.6,2.11-.1,3.15-.28.25-.48-.66-.94-.18-1.16.9-.4,1.49.84,2.44.69.28-.05.36.22.39.42s-.18.32-.41.36-.89-.14-.84.46a.85.85,0,0,0,.87.82c.55,0,.85.46,1.28.7,0,.64,0,1.28,0,1.92-.8.11-.82.76-.6,1.23a4.45,4.45,0,0,0,1.38,2c.52.3.22-.76.61-1.05s.86-1,1.59-.74c.51.22.45-.13.64-.37,1.16-1.45.11-1.87-1-2.27a6.81,6.81,0,0,1,.58-3.49,1.31,1.31,0,0,0-.22-1.66c-.6-.44-1,.23-1.39.52-1,.63-.92,1.66-1,2.62a17.49,17.49,0,0,0-1.8-3.36c.41-.31.59,0,.82.07.67.33.66-.35.89-.64a.3.3,0,0,0-.09-.51,2.57,2.57,0,0,0-3.44.82c-.18.27-.5,1.35-1.06,0-.24-.57-1.84-1-2.1-.37-.45,1-.81.38-1.16.21s-.61-.61-1-.81a1.45,1.45,0,0,1-.19-2.38l.13.08-.14-.07c.22-.72-.58-1-.67-1.57.12-.53.34-1.15-.65-.77-.28-.6-.92-.8-1.35-1.25l.08-.07c.32,0,.67.09.91-.25l.08-.09c1.18,0,2.39-.46,3,1.35a1.8,1.8,0,0,0,2.77,1.13c-.23.32-.6.49-.59.65,0,.46-.87.79-.26,1.26.4.31.68,1,1.32.81s.69-.8.62-1.34c-.1-.76.3-1.18,1.1-1.53a53.74,53.74,0,0,0-5.94-3.2c-2.81-1.25-5.12-3.52-8.29-4h0c-.81-1.23-2.43-1.28-3.36-2.34a1.63,1.63,0,0,1,.69-1c.11.34-.05.87.46.94,2.2.32,4,1.84,6.19,2.15a3.86,3.86,0,0,0,2.6-.08l1,1a4,4,0,0,0-1.22.38c-.23.31.14.79.5.27a1,1,0,0,0,.06-.32l-.56.05c.83-.06,1.07-.12,1.22-.38h1c.13.29.38.33.66.33l.14.14-.13-.15a.68.68,0,0,0-.66-.33,3.64,3.64,0,0,0-2-1,1.45,1.45,0,0,0-2-.66c.1-.56-.22-1.22.42-1.63.71.21,2-.48,2-.16-.11,1.27.94.64,1.3,1s.86.46,1.26.86c.91.91,2,2,3.13,2.22a15.09,15.09,0,0,0,5.31-.2,1.35,1.35,0,0,1,1.74.85,8.64,8.64,0,0,0,.24,1.27c.09.29.22.64.65.63s.56-.38.63-.65c.57-2.07,1.92-3.67,3.1-5.39.19-.26.72-.57.38-.94s-.7-.2-1.07-.22a1.4,1.4,0,0,0-1.29.8c-.69,1-1.51,1.91-2.27,2.86-1.62.5-3.1-.13-4.52-.71-.65-.26-.72-1.23-.62-1.89s.84-.28,1.28-.43c.86-.29,1.16.24,1.36.95s.32,1.11,1.17,1.1a2.19,2.19,0,0,0,2.13-1.66c.17-.94-1.11-1-1.87-1.3-1.17-.49-1.76-1.84-3.08-2.14a.22.22,0,0,1,0-.15c.51-1-.5-1-.92-1.33s-1.48-.36-1.6-1c-.25-1.37-1.49-1.08-2.26-1.55-.26-.16-.88-.48-1.15,0s.18.86.54,1.07c1.86,1.07,3,2.4,3,4.79,0,1,.24,1.82-.67,2.58-.22-.67-.21-1.75-1.09-1.51a2,2,0,0,1-2.32-1.07,4.11,4.11,0,0,0-2.06-1.44c.17-.66,1.14-.37,1.27-1.09s1-1.08-.06-1.71-1,0-1.38.63a2.13,2.13,0,0,1-1.41,1c-.53-.92-1.09-1.75-2.38-1.5s-1.52-.73-1.68-1.7c1.31-1.53,2.62-3.07,3.94-4.6.71.27,1.81.8,1.47,1.4-.67,1.21.47.83.64,1.4A1.76,1.76,0,0,0,60,171.5c-.24-.57-.74-1.3.25-1.57s1.47.23,1.41,1.24c.52,1.32,1.25,2.15,2.78,1.27a.56.56,0,0,1,.41.1c0,1.21.75,1.07,1.6.92.43-.08.81.23.82.81s.36.73.84.84c1.16.27,2.32.56,3.47.87a.6.6,0,0,0,.8-.37c.14-.33.12-.69-.37-.67-.67,0-.42-.5-.56-.79-.22-.48-.52-.94-1.06-.91A3,3,0,0,1,67,171.31a.81.81,0,0,0-.83-.42,13.48,13.48,0,0,0-3.91.21c0-.52-.42-1,.66-1.19a3.91,3.91,0,0,0,2.48-1.48c.72-1.63,1.56-1.62,2.82-.87,1.54,1.1,2.51,2.76,3.63,4.19C73.56,173.87,75.73,174.74,78.08,175.52Zm-7.23,17.07c.05.33.15.63.57.59.08,0,.2-.13.19-.17-.09-.4-.43-.4-.74-.44.15-.41-.59-.59-.31-1,.56-.75.1-1.25-.41-1.64a2.14,2.14,0,0,0-2.41-.36c-.88.42-1,.85-.38,1.59.91,1,.9,1-.57,1.48.77.11,1.58.79,1.65.53C68.91,191.35,70.05,192.72,70.85,192.59ZM80,204.68c.27-.57.36-.75.44-1,.22-.51,1.5-.23,1.09-.82s-.5-1.74-1.74-1.95c-2.07-.36-4.21.52-6.22-.49-.2-.1-.64.26-.61.63s.37.32.64.33c1.9.07,3.56.95,5.3,1.55C79.6,203.21,79.91,203.59,80,204.68ZM64.25,180.32c-.47-.64-.45-1.54-1.23-1.76a.77.77,0,0,0-.89.75,1.78,1.78,0,0,0,1.14,1.61C63.52,181,63.91,180.54,64.25,180.32Z"/><path class="cls-4" d="M75.13,231.39c.82.06,1.1-1.3,2.09-.8a2.65,2.65,0,0,0,.3-.9c0-.38-.41-.32-.63-.26a9.46,9.46,0,0,1-4-.33,1.1,1.1,0,0,0-.65,0,8.31,8.31,0,0,1-5.08.5c-1.6-.24-3.14.85-4.57.38-1.69-.57-3.29-.16-4.92-.29a8.67,8.67,0,0,0-4.22,1,1.06,1.06,0,0,0-1.63-.39c-1,0-1.93-.62-2.94-.21-2.27-4.21-4.68-8.35-5.51-13.17a16.4,16.4,0,0,0-.78-2.3,3,3,0,0,1,.8-2.33c.85,1.34,2.68.79,3.71,2,.54.63,1.69.44,2.6.39.33,0,1-.18.95.29-.21,1.75,1.27.62,1.77,1.12.2.2.54-.58.75,0,.37,1.12,1.13.72,1.85.51.18.81-.25,2.18,1.46,1.64.49,1,.67-.42,1.07-.15.29.71-.73.93-.56,1.57.11.43.68.9,0,1.29s-1-.19-1.44-.47a6.69,6.69,0,0,0-1.23-.81c-.75-.27-1.86-1.49-2,.55,0,.13-.31.29-.49.33-1.55.35-2.85,1.54-4.57,1.28a.77.77,0,0,0-.92.52,1,1,0,0,0,.54,1.1c1.29.75,2.18,2.66,4.22,1.43.33-.2,1.1.29,1.65.52,1.56.64,2.16.41,2.5-1,.35.24.73.72,1,.67,1.72-.31,3.33.71,5.1.21,1.58-.45,2.53.42,2.78,2.15,1.43-.71,1.52-2.39,2.41-3.54.66.86,4.81,2.56,5.8,2.42.08,0,.15-.15.22-.23.55.26,0,1.35,1,1.29a1.46,1.46,0,0,0,1.35-1.22c.45.69,1.66,1,1,2.39,1.33-1.3,2.62-.87,3.87-.74h0c-.52,1,.18,2.18.81,1.9,1.59-.73,2.77.23,4.12.41h0c-.47,0-.77.28-.59.74a1.39,1.39,0,0,0,1.57.91h0c-1.21,1.26,1.61,3.29-.84,4.3-.19,1.92-1,1.46-2,.57a1.18,1.18,0,0,0-1.68.26c-.34.67.35.94,1,1.21,1.06.47,2.16.12,3.24.38,2.33.57,2.81.09,2.48-2.29a1.66,1.66,0,0,1,.08-.48c0-.31-.48-.8.2-.91.53-.09.75.31.83.79s-.18,1.22.39,1.3c1.12.16,2.09.23,2.71,1.48a15.51,15.51,0,0,0,1.23,1.23c.63.7,1.32,1.14,1.84-.11a1.52,1.52,0,0,1,2.37-.83,2.37,2.37,0,0,0,2.05.24c1.74-.86,2.55-.35,3,1.49.3,1.24,1.68,1.31,2.54.28s.59-2.18.34-3.32A3.43,3.43,0,0,0,106,237c.6-.43-.13-2.16,1.34-1.6.86.32,1.61-.28,2.5.23s2-.41,3,.29c.5.35.69.4.4,1-.38.83-1.3,1.32-1.35,2.34,0,.26-.4.44-.66.34s-.25-.47-.19-.72a1.67,1.67,0,0,1,.36-.7c.37-.42.19-.79,0-1.19s-.63-.21-1-.14c-.81.16-1.69.9-2.33-.35-.18-.35-.62-.15-.81.14-.29.46-.75,1.29-.39,1.46.9.45.45,1.49,1.21,2s1.25,1,2.27.79a2.28,2.28,0,0,1,2.6,1.55c.55,1.34-.94,1.71-1.63,2.18a3.92,3.92,0,0,0-1.52,1.26c-.63,1.11-1.27,1.08-1.82,0-.12-.26.07-.72-.43-.68a.75.75,0,0,0-.66.82c.23,2-1,1.07-1.5.62s-.84-.31-1.42-.3c-1.55,0-3.29.32-4.45-1.22.52-.12,1-.22,1.57-.37a.43.43,0,0,0,.27-.32c0-.12-.15-.25-.24-.37-.5.41-1.93-.58-1.59,1.07-1.62-.08-3-.62-3.57-2.28-.12-.3-.16-.69-.63-.52-.3.11-.76.28-.65.61.47,1.43-.64,1.28-1.39,1.51a4.87,4.87,0,0,0,.65-2.92c0-.64-.22-1.09-.83-1.19s-.91.29-1.2.84a5.16,5.16,0,0,0-.58,3,3,3,0,0,0-.81.11c-2.49,1-3.68.78-5.54-1.15a1.26,1.26,0,0,0-.91-.27l-.13-.07.13.07c0,.73-.63,1.37-.19,2.22-.64-.43-1-1.2-1.84-.43-.43.4-.92-.1-1.07-.39-.87-1.7-2.24-.66-3.41-.7-.36-1.63.21-3.18.47-4.74.18-1.05-.2-1.88-1-2.09-1.06-.28-1,.84-1.22,1.53l-2-.67c1.32-.17,1.6-.75,1.14-1.9-.22-.53.19-1,.47-1.64.64.52,1.17,1.19,2.13,1.09-.29-1,.49-1.5,1.1-2s.55-.76.16-1.23-.74-.59-1.24-.16a4.77,4.77,0,0,1-1.47.66c-1.28.45-1.18-.18-.92-1Zm30.49,14.22,0-.13-.17,0a.49.49,0,0,0,0,.11S105.59,245.61,105.62,245.61Z"/><path class="cls-1" d="M55,216.62c-.72.21-1.48.61-1.85-.51-.21-.61-.55.17-.75,0-.5-.5-2,.63-1.77-1.12.06-.47-.62-.31-.95-.29-.91.05-2.06.24-2.6-.39-1-1.2-2.86-.65-3.71-2-.07-.44-.13-.87-.19-1.31.21-1.72-.57-3.45.07-5.17.87-.2,1.95,1,2.63-.41.9,1.1,3.59,1.42,5.61.52l-5.62-.5a14.37,14.37,0,0,0-4.6-.63l0-2.72c.76-3.82,1.49-7.65,3.24-11.18.92,1.31.32,2.8.54,4.19.09.6.21,1.06-.36,1.39a1,1,0,0,0-.5,1.12c.15.53.74.54,1.23.56h1.16a2.23,2.23,0,0,0,.29,1.95c.36-.33.35-1,1-1l0,.05c0,1.53,1.38,2.68,1.1,4.38-.13.79,1.07.64,1.69.69s.44-.43.31-.84c-.36-1,.41-1.06,1-.93a1.57,1.57,0,0,0,1.46-.36,1.8,1.8,0,0,0,3.07-.26c.14.95,1.55,1.46.5,2.7-.37.44.72.87.71,1.51-1.88-.21-3.76-.61-6,.19a46.59,46.59,0,0,0,8.55.81c.74,0,1.56-.21,2.08.6,0,.65.2,1.11,1,1.23a4.11,4.11,0,0,1,1.51.59c1.25.78,2.36,1.11,3-1a4.85,4.85,0,0,0,4,3.22c.25,0,.44.46.7.65s.74.51.8.44c1.15-1.1,1.61-.71,2.42.55.58.9,2.1,1.16,3.13,1.83.29.18,0,.24-.31.39-.82.43,0,.89.33,1.16,1.44,1.23,1.42,1.56-.27,2.42-.87.44-.87.44-1.53,1.67,1-.49,1.82-1,1.38.76-.2.82,1.09,1,1.84,1.23h0c0,1.2.41,1.78,1.68,1s2.62-1.16,3.58-2.38c.38-.47-.11-.68,0-1.11.57-1.59,0-3.34.5-5,.08-.29-.38-.73-.58-1.11l.35-.39h.66v.59c-.06.48-.1,1-.18,1.45a15,15,0,0,0,5.76,15.24c1.47,1.18,3.24,1.7,4.87,2.54-.59.2-1,.78-1.85.59.72.59,1.17,1.31,1.76,1.83s1.51,1.56,2.4.17a.37.37,0,0,1,.56-.12c.93.8,2.13.39,3.16.75L104,238c.36-.2.4-.79.91-.83l.46.1h0c.25,1.14.53,2.28-.34,3.32s-2.24,1-2.54-.28c-.45-1.84-1.26-2.35-3-1.49a2.37,2.37,0,0,1-2.05-.24,1.52,1.52,0,0,0-2.37.83c-.52,1.25-1.21.81-1.84.11A15.51,15.51,0,0,1,92,238.33c-.62-1.25-1.59-1.32-2.71-1.48-.57-.08-.31-.84-.39-1.3s-.3-.88-.83-.79c-.68.11-.15.6-.2.91a1.66,1.66,0,0,0-.08.48c.33,2.38-.15,2.86-2.48,2.29-1.08-.26-2.18.09-3.24-.38-.6-.27-1.29-.54-1-1.21a1.18,1.18,0,0,1,1.68-.26c1.05.89,1.82,1.35,2-.57,2.45-1-.37-3,.84-4.3a.22.22,0,0,0,.11-.05s0-.06,0-.09l-.15.14a1.39,1.39,0,0,1-1.57-.91c-.18-.46.12-.71.59-.74,0,.22-.31.5.11.61a.43.43,0,0,0,.38-.19c.06-.37-.25-.37-.5-.41-1.35-.18-2.53-1.14-4.12-.41-.63.28-1.33-.89-.81-1.9.36-.35,1.3.35,1.28-.67,0-.31.38-.71-.26-1s-.75.18-1.09.36c-.91.49.29.84.08,1.29-1.25-.13-2.54-.56-3.87.74.64-1.44-.57-1.7-1-2.39a22.16,22.16,0,0,1,1-8c.18-.61.58-1.38-.07-1.79s-1.16.23-1.57.74c-1.7-.92-4.14-1-4.15-3.78,0-.13-.18-.28-.31-.37l-2.07-1.39a3.22,3.22,0,0,1-.22,1.15c-.3.43-.59-.43-1.1-.07a2.8,2.8,0,0,1-4.19-.77c0-.08-.11-.24-.14-.24-1.62.44-3-1.37-4.66-.53-.54-.66-1.11-.83-1.78-.17-1,1,0,2.31-.49,3.39C55.11,215,54.5,215.8,55,216.62Zm-4.53-9.25a4.89,4.89,0,0,0-4-.42c1.48-.16,2.53.2,2.67,1.85,0,.54.51.23.77.29.51.13.49-.23.49-.57s0-.75,0-1.13l.24-.38-.13-.08Zm36.61,27.8a.67.67,0,0,0-.26-.12c-.09,0-.17.08-.25.12a.53.53,0,0,0,.25.12C86.89,235.3,87,235.22,87.07,235.17Z"/><path class="cls-5" d="M106,148.72a123.56,123.56,0,0,1,12.53-6.2l.33-.14,0-.08H119c.83.22.53.93.62,1.45.15.94,0,1.94.56,2.78l.15.07-.13-.09c.28-1,.76-1.74,2-1.63l.13.07-.12-.08c-.15-1.32-1.61-1.77-2-2.94l0,0c.79-.06,1.75.18,1.9-1h0c1.35,1.89,1.17,4.28,2.05,6.37a13.24,13.24,0,0,1,.63,6.08c-2.5,3-5,5.87-8.51,7.74-.21.06-.44.21-.63.17-1.23-.26-2.36-.42-2.88,1.17-.13.38-.66.2-1,.13-1.81-.33-2.63.13-3.21,1.77-1.38-1.82-1.37-1.81-2.58.09-.37.6-.75.72-.89-.15-.07-.38-.28-.43-.58-.32s-.59,0-.39.31c.6.81-.52,1.1-.48,1.78-.4-.85-2.08-.3-1.81-2a3.23,3.23,0,0,1-1.94,1.28c0-1.22-.07-2.45-.1-3.67.8-.24,1.56-.22,1.52-1.59,0-.93.93-1.95,1.6-2.81.35-.45.75,0,1,.39s.86,1,1.17.62c1.25-1.47,1.72-.21,2.08.6.52,1.19,1.66-.12,2.18.69.6-.39.25-1,.33-1.49,0-.27,0-.56,0-.82.3-1.36.61-2.6-1.63-2.21-.65.11-1.43-.44-2.13-.72a.73.73,0,0,1-.44-.95c.5-1.44.1-2.93.28-4.38v-.1l.09,0A.44.44,0,0,0,106,148.72Z"/><path class="cls-4" d="M143.2,238.3c2.28-.44,3.78.8,4.3,4.24a25.45,25.45,0,0,1-2.38,4.61c-1-.29-1.59-2.15-3-.58-.11.13-.95-.33-1.42-.57-.93-.5-1.83-1.31-2.83-.12a.31.31,0,0,1-.54,0c-.27-.56-.89-1-.54-1.77.11-.26.62-.47.14-.75s-.57.13-.74.44c-1,1.8-1.83,3.63-1.05,5.76.17.47.39,1.12,0,1.36a1,1,0,0,1-1.31-.66c-.21-.65-.51-.69-1.08-.51-1,.31-1.12-1.3-2.33-.91.61-1,1.15-1.37,2.12-1a1.1,1.1,0,0,0,1.33-.37c.13-.2,0-.38-.15-.57-.41-.54-.69-.36-1.19,0s-2.08-1.09-2.14-1.87c0-.34,0-.68-.37-.84-.54-.27-.58.33-.85.54s-.52.61-.8.37a1.34,1.34,0,0,1-.42-1c.08-1.46.11-1.45-1-2.24-.13,1.1.07,2.22-1,3-.42.33.12.85.57,1.13a1.11,1.11,0,0,1,.17,1.93A2.51,2.51,0,0,1,124,248c-.33-.14,0-.51.2-.79,1-1.35.6-2.68-.92-3.18-.6-.2-.82.15-.8.67s-.1,1.19-.81,1.43c-.93.3-.81-.7-1.25-1s-.35-1.13-1.32-.57a1,1,0,0,1-1.38-1.22c.23-.84,0-1.27-.82-1.38-.13-.81-.77-.61-1.28-.65-.54-.25-1.1-.46-1.61-.75-1.16-.63-1.07-1.41-.12-2.11.4-.29.68-.35.37-.94-.56-1.11.1-1.44,1.11-1.45,2.15,0,4.18.9,6.34.87.18,0,1.43.33.48,1.34-.7.74-.77,1.73.62,2.05h0c.35.48.86.31,1.33.33h0c.77.27,1.54,2.23,2.31,0h0c1.37.07.92-.95,1-1.65h0a4.21,4.21,0,0,1,1.32,1.63V239h0c.61-.12.93.34,1.32.67,0,.81,0,1.63,0,2.45,0,.46-.15,1.11.48,1.23s.67-.47.89-.94c.72-1.53.53-3.28,1.27-4.79.78-.59,1.53-1.22,2.35-1.75,1.08-.68,2.22-1.13,3.27.09.65.76,1.56-.15,2.24.37.21,1.29,1.39,2.48.52,3.86-.76,1.18-.4,2.44-.5,3.67,0,.33.06.73.43.8s.68-.18.85-.59C142.62,242.19,143.46,240.38,143.2,238.3Zm-8.77,3.58c-2.16-.49-2.28.56-2.26,2a1.39,1.39,0,0,0,1.49,1.53c1.22,0,1.41-1.31,1.68-2.14C135.48,242.86,134.61,242.12,134.43,241.88Zm-.52,7.07s0,.09,0,.11a.27.27,0,0,0,.13,0l0-.19Z"/><path class="cls-5" d="M79.74,163.7c-2-.22-3.89-.87-5.91-.7v-.61l4.22-2.09c.65-.32,1-.7.41-1.39a16.82,16.82,0,0,0-1.43-2c-2.81-2.68-3.38-6.46-4.83-9.8.12-2.54,2-.23,2.73-1.21.17.74-.56,1.5.23,1.79.63.22,1.06-.47,1.26-1s.62-.43.91-.4c.77.1,1.32.13,1.32-.93a1.09,1.09,0,0,1,1.11-.79c.88.12,0,.63.17,1s.5.76,1,.52a1.81,1.81,0,0,1,2.2.47,2.13,2.13,0,0,0,1.4.34.13.13,0,0,1,.08.18c0,.84.09,1.63,1.28,1.45a25.56,25.56,0,0,1,2.6,3.27c.42.51.57,1.34,1.47,1.33l.37.66,0,.62a.77.77,0,0,0-.32.86c.3,1.89-.3,2.79-2.11,3.12a7.47,7.47,0,0,1-1.74.22c-.68,0-1,.22-.67.78.56.8,0,.79-.48,1.05s-1.49,1-1,1.27c1.76,1.14-.62,1.4-.4,2.23,0,.2-.83-.36-1.3-.43-.65-.09-.92-.75-1.52-.86-.09-.11.14-.45-.25-.35l.25.35Z"/><path class="cls-3" d="M90.3,154.41l0-.62c0-1.31,2.82-1.74,1.11-3.59a1.63,1.63,0,0,1,.38-.47c1.38-1.09,1.44-1.9.12-3.09-.27-.25-.83-.32-.48-.8.8-1.13-.7-2.64.65-3.7.1-.09.12-1.26-.94-1.11-.41.06-1-.11-.7-.9s-.54-1-.8-1.46c-.67-3.11-.71-6.29-1.14-9.43,0-.05,0-.11,0-.15a2.24,2.24,0,0,0-.13-.27c0-.14,0-.27-.05-.4.92-1,2.19-.22,3.22-.62a2.48,2.48,0,0,0,.77,1.9c.28.32.72.59.23,1.07a17.13,17.13,0,0,1-1.78,5.44c-.11.25-.23.64.1.68,1.26.18.31,1,.41,1.62l2.49-1.21a1.24,1.24,0,0,1-1.16,1.33,1.72,1.72,0,0,0-1.4,1.53c1.54-.28,3,0,4.41-.8-.3,1.12-1.7,1.52-1.34,2.76a56.31,56.31,0,0,1,1.12,6.31c.16,1,.24,1.9,1.62,2.18.74.15,1.37,1.13.11,1.83,0-.14-.08-.28-.13-.42l-.11.08c.07.12.15.24.23.36-.2,1.17.82.7,1.3,1,.24,1.22.48,2.45.71,3.67.2,1.52.4,3,.59,4.56,0,1.22.06,2.45.1,3.67,0,.19,0,.38,0,.57l-.06,1.68-.12.08c-1.83-1.32-1.3-3.62-2.19-5.33l.06-.14-.07.14a4.22,4.22,0,0,1-1.63-2.95,3,3,0,0,1,3,2.15,3.32,3.32,0,0,0-1.34-3.22c-.16-.15-.49-.23-.46.08.09,1-1,.41-1.23,1-.29,0-.42.12-.42.48,0,1.16-.53.45-.9.19h0c-.06-.38-.09-.81-.63-.36a.61.61,0,0,1-.35-.6c.46-.08.67-.26.44-.78s-.74-.15-1.11-.23C91.7,157.07,91.17,155.62,90.3,154.41Zm1.9-2-.41.29c.15.14.28.33.45.39s.49.09.41-.25C92.61,152.65,92.37,152.54,92.2,152.38Zm2.84,6.2,0,.24s.08-.07.09-.11A.28.28,0,0,0,95,158.58Z"/><path class="cls-4" d="M122.16,274.82c.36.14.67-.73,1.19.19.79,1.39,1.62-.14,2.42-.38,1.13-.34.17-.91,0-1.31-.26-.61-.67-1.11-.14-1.83.31-.4-.64-.46-.49-1h0l.74-.06v-.2l-.74-.07h0c-.07-1.61-.84-1.93-2.4-1.65a3,3,0,0,1-3.39-1.11c-.31-.49-1,.18-1.34-.24-.52-.73.18-1.83-.67-2.55-.1-.08.31-.33.6-.37s.8,0,.91-.24c.78-1.43,1.67-1.63,2.92-.52.27.23,1.11.2,1-.37-.19-.79,1.22-1.88-.29-2.31-1.1-.3-1.59-.63-1-1.75a1.63,1.63,0,0,1,2.59-.68c.58.33,1.06,1.3,2,.57.66,1.07,1.34,1.06,2,0,2.32-1,4.31-.2,6.3,1,.59.36,1.68,1.46,1.82-.54,0-.57.68-.62,1.12-.12a13.5,13.5,0,0,1-2,2.93,2.44,2.44,0,0,0-1.94-.66c0-.66-.53-.65-1-.65-1.91-.48-3.56.94-5.44.74-.29,0-.6.41-.94.56s-.55.38-.48.74c.11.65.59.26.9.26,1.52,0,3.12-.27,4.34,1-.2.63.08,1.34-.33,1.93-.66,0-1,.62-1.58,1,.08-.67-.51-1.16.08-1.62.2-.16.9.46.64-.39a.82.82,0,0,0-.86-.63,10.38,10.38,0,0,0-4.1.61c-.65.28-1.16.44-1.78-.12-1.68-1.52-2.67-1.41-4,.37a6.08,6.08,0,0,0,3.78,1.08c1.8,0,1.8,0,2.9.72.43,1,.85,1.94,1.29,2.91s.87,1,1.32,0l.69-.18-.71-.15h0v-.4l0-.52c.76.39.75-1.5,1.81-.54s.23,1.43-.43,2.1c.84,0,1.24.83,2,.68-.77,1.67-.86,3.59-1.8,5.21-1-1-1,.77-1.68.59.12,2.06-1.47.74-2.19,1s-1.23-.5-1.32-1.31a2.62,2.62,0,0,0-.24-.58c-.45,1-1.23,1-2,1A3.05,3.05,0,0,1,122.16,274.82Z"/><path class="cls-5" d="M92.6,130.77c.49-.48.05-.75-.23-1.07a2.48,2.48,0,0,1-.77-1.9c.58-.42-.17-1,.19-1.5s.09-.65-.49-.59c-.39,0-.8-.13-.52.54.15.37,0,.71-.42.65a.53.53,0,0,1-.33-.79c.8-1.1-.26-1.52-.8-1.94s-.77-.63-.69-1.36,0-1.75-1.27-.94c-.79-2.94-1.36-5.93-2.11-8.88-.21-.85.44-2-.27-3-.14-.2.32-.43.56-.48,2.94-.61,5.6-2.15,8.61-2.5.32.07,1,.15.46.55s-.45.81-.61,1.28c-.22.65.41,1.23,0,1.8-.36,0-.82-.08-.93.44,0,.22.08.47.34.43.47-.07.56-.45.6-.85.45.59,1.42-1,1.51.24.07,1,0,2.17-1.19,2.71-.93-1.42-1.64-.49-2.42.2-.62.55-.91,1.82-2.18,1.11a13.58,13.58,0,0,0-3.16-2.45,1.74,1.74,0,0,0,.44,1.72c1.45,2.15,3.8,3.41,5.37,5.45a1.29,1.29,0,0,0,1,.55c-.34,1.67.51,3.17.81,4.74.24,1.28.45,2.56.71,3.84-.39.54-.15,1.17-.26,1.75a1.27,1.27,0,0,1-1.13,1C92.81,131.7,92.62,131.26,92.6,130.77Zm-3.83-10.1s.09,0,.1-.06,0-.09,0-.13l-.17.08Z"/><path class="cls-4" d="M53.43,202.12a1.57,1.57,0,0,1-1.46.36c-.6-.13-1.37-.1-1,.93.13.41.35.9-.31.84s-1.82.1-1.69-.69c.28-1.7-1.07-2.85-1.1-4.38L48,199l-.17.12c-.63-.08-.62.64-1,1a2.23,2.23,0,0,1-.29-1.95H45.39c-.49,0-1.08,0-1.23-.56a1,1,0,0,1,.5-1.12c.57-.33.45-.79.36-1.39-.22-1.39.38-2.88-.54-4.19L45.89,188a15.44,15.44,0,0,1,3.48.75c.29.15.67.35.89.06a1.58,1.58,0,0,0,.09-.93c-.06-.62-.5-.23-.72-.2-1.47.23,0-2.06-1.55-1.79,0,0-.12-.32-.07-.4a1.1,1.1,0,0,1,.5-.38,1.33,1.33,0,0,1,1.21.3c1.41,1,2.87,2,2.78,4.08a.71.71,0,0,0,.63.67c1.49.22.83,1,.35,1.53s-.21,1.15-.67,1.62.2.63.34.94.38.29.47,0c.38-1.25,1.32-.65,2.07-.65l-1,3a3.73,3.73,0,0,1-2.83-1.19,2.44,2.44,0,0,0-1.12-.59c-.45-.16-1-.42-1.23.24s-.18,1.2.56,1.48c.35.12.77,0,1,.39-.33,1.28.77.62,1.12.71,1.43.33,2.73.61,1.85,2.55-.58-.14-.77-.73-1.2-1.05-1.18,2.32-1.18,2.34.52,3.06Zm-4.3-7.23c-.05-.25-.14-.4-.73-.68-1.17-.56-1.58,1-2.47.46-.12.54-.26,1.08-.35,1.63a.43.43,0,0,0,.32.5c.78.23,0-.62.55-.81s1-.56,1.62-.16C48.94,196.39,49.23,196,49.13,194.89Z"/><path class="cls-1" d="M55.69,193.55c-.75,0-1.69-.6-2.07.65-.09.31-.37.21-.47,0s-.74-.55-.34-.94.21-1.13.67-1.62,1.14-1.31-.35-1.53a.71.71,0,0,1-.63-.67c.09-2.06-1.37-3-2.78-4.08a1.33,1.33,0,0,0-1.21-.3,1.1,1.1,0,0,0-.5.38c0,.08.07.4.07.4,1.51-.27.08,2,1.55,1.79.22,0,.66-.42.72.2a1.58,1.58,0,0,1-.09.93c-.22.29-.6.09-.89-.06a15.44,15.44,0,0,0-3.48-.75,35.46,35.46,0,0,1,3.19-5.63c.93,1.06,2.55,1.11,3.36,2.34-.17,0-.43,0-.44.26,0,.06.13.19.19.18.3,0,.21-.26.25-.43,3.17.49,5.48,2.76,8.29,4a53.74,53.74,0,0,1,5.94,3.2c-.8.35-1.2.77-1.1,1.53.07.54.08,1.18-.62,1.34s-.92-.5-1.32-.81c-.61-.47.26-.8.26-1.26,0-.16.36-.33.59-.65a1.8,1.8,0,0,1-2.77-1.13c-.59-1.81-1.8-1.34-3-1.35l-.2-.11.12.2c-.24.34-.59.24-.91.25l-.19-.11.11.18c.43.45,1.07.65,1.35,1.25-1.07.14-2.63-.39-2.29,1.68h0C56.25,192.92,55.72,192.84,55.69,193.55Zm-.38-7c-.34.35-.8.45-.71.92,0,.08.28.18.39.15C55.49,187.45,55.43,187.07,55.31,186.51Z"/><path class="cls-4" d="M152.79,231.44a2.84,2.84,0,0,0-1.61.12c-.85.51-1.7,1.44-1.77-.61a1.74,1.74,0,0,0-2.21.28c-.26.36-.51.67-.88.28a8.79,8.79,0,0,0-6.93-2.77c-1,0-.87-.77-.69-1.28.24-.7.85-1.3.1-2.05-.24-.25,0-.49.24-.66.63-.44.66-.93-.09-1.17s-.79-.71-.55-1.26.66-.48,1.27-.26a8.28,8.28,0,0,0,3.33.52c.53,0,.68,0,.75.39.1.63-.42.53-.77.52s-1-.28-1.08-.13c-.44.57-1.19,0-1.55.53a.29.29,0,0,0,.27.46c.82-.06,1.45,1.51,2.23.51s1.17.31,1.83.27c.5,0-.27.73-.18,1.24a10.46,10.46,0,0,0,4.35.12c.5-.1.27.32.45.43a.73.73,0,0,0,.77.09c.36-.2.11-.42,0-.65-.33-.46-.36-1,.2-1.24.35-.18,1-.68,1.08-.28.15.7,1.33.86.9,1.55-.52.85-.14,1,.52,1.2s.71,1,1.09,1.55C153.48,229.91,153.14,230.68,152.79,231.44Z"/><path class="cls-6" d="M99.88,165.89c0-.19,0-.38,0-.57a3.23,3.23,0,0,0,1.94-1.28c-.27,1.67,1.41,1.12,1.81,2,0-.68,1.08-1,.48-1.78-.2-.27.23-.25.39-.31s.51-.06.58.32c.14.87.52.75.89.15,1.21-1.9,1.2-1.91,2.58-.09.58-1.64,1.4-2.1,3.21-1.77.38.07.91.25,1-.13.52-1.59,1.65-1.43,2.88-1.17.19,0,.42-.11.63-.17a8.48,8.48,0,0,1-2.31,1.38c-.41.26-1.19.36-1,1.05.11.49.7.63,1.19.73a24.31,24.31,0,0,1,6.63,2.56,18.34,18.34,0,0,1-3.83.55c-.18-.6-.4-1.78-.78-1.57-1.08.61-2.36-.65-3.38.64-.46.57-1.92,1.51-2.25,1.12-1-1.23-1.65-.45-2.28.14s-2.5.48-2,2.27a1.86,1.86,0,0,1-.53.27,2.65,2.65,0,0,1-3.24-2.6c0-.27.58-.72-.24-.77-.47,0-.79,0-.82.63,0,.87-.23,1.76-1.27,2.06l-.06-1.85C99.78,167.11,101.48,166.3,99.88,165.89Z"/><path class="cls-6" d="M84.53,146.9a2.13,2.13,0,0,1-1.4-.34,1.81,1.81,0,0,0-2.2-.47c-.5.24-.76-.08-1-.52s.71-.85-.17-1a1.09,1.09,0,0,0-1.11.79c0,1.06-.55,1-1.32.93-.29,0-.71-.15-.91.4s-.63,1.22-1.26,1c-.79-.29-.06-1.05-.23-1.79-.73,1-2.61-1.33-2.73,1.21l-3.82-7.5a.36.36,0,0,1,.18-.53,2.06,2.06,0,0,1,2-.19l5,2.65a45.74,45.74,0,0,0,5.3,2.49A7.84,7.84,0,0,1,84.53,146.9Z"/><path class="cls-6" d="M124.81,153.32a13.24,13.24,0,0,0-.63-6.08c-.88-2.09-.7-4.48-2.05-6.37.18-.28.45-.24.72-.25.9-.16,1.5,1,2.25.74a2.54,2.54,0,0,1,3.31,1.21v-1h0c.88.24,1.41-.88,2.31-.61a17.41,17.41,0,0,1-2.6,6.62c-.21-.41.31-1.3-.61-1.2-.48,0-1.42-.1-1.37.79a7.67,7.67,0,0,1-.68,2.49l1.9-.52A10.9,10.9,0,0,1,124.81,153.32Z"/><path class="cls-7" d="M97.18,152.44c1.26-.7.63-1.68-.11-1.83-1.38-.28-1.46-1.22-1.62-2.18a56.31,56.31,0,0,0-1.12-6.31c-.36-1.24,1-1.64,1.34-2.76-1.39.8-2.87.52-4.41.8a1.72,1.72,0,0,1,1.4-1.53,1.24,1.24,0,0,0,1.16-1.33c.11-.19.34-.4.3-.56-.1-.45.74-1,.06-1.27s-.56.42-.69.8-.39.19-.54.06-.34-.37-.3-.5c.22-.7.28-1.64,1.2-1.74A1.6,1.6,0,0,0,95.27,133c.46,2.55,1,5.1,1.37,7.66.65,4.26,1.53,8.48,1.83,12.79-.48-.26-1.5.21-1.3-1Z"/><path class="cls-6" d="M99.77,161.65c-.19-1.52-.39-3-.59-4.56a5.32,5.32,0,0,0,3.7-2c1.18-1.4,2.64-2.89,2.3-5.08-.07-.46,0-.88.58-1-.18,1.45.22,2.94-.28,4.38a.73.73,0,0,0,.44.95c.7.28,1.48.83,2.13.72,2.24-.39,1.93.85,1.63,2.21-.06.26,0,.55,0,.82-.08.5.27,1.1-.33,1.49-.52-.81-1.66.5-2.18-.69-.36-.81-.83-2.07-2.08-.6-.31.37-.88-.22-1.17-.62s-.67-.84-1-.39c-.67.86-1.62,1.88-1.6,2.81C101.33,161.43,100.57,161.41,99.77,161.65Z"/><path class="cls-2" d="M61.66,171.17c.06-1-.5-1.48-1.41-1.24s-.49,1-.25,1.57a1.76,1.76,0,0,1,.15,1.62c-.17-.57-1.31-.19-.64-1.4.34-.6-.76-1.13-1.47-1.4,3.3-4.37,7.91-6.63,13-8,1,0,2-.07,1.14,1.39h0c-.49,0-1-.1-.94.64l0,0c-2.37.47-3,1.15-3,3.22-1.26-.75-2.1-.76-2.82.87A3.91,3.91,0,0,1,63,169.91c-1.08.22-.7.67-.66,1.19Z"/><path class="cls-1" d="M125.5,267.28c-1.1-.76-1.1-.76-2.9-.72a6.08,6.08,0,0,1-3.78-1.08c1.32-1.78,2.31-1.89,4-.37.62.56,1.13.4,1.78.12a10.38,10.38,0,0,1,4.1-.61.82.82,0,0,1,.86.63c.26.85-.44.23-.64.39-.59.46,0,.95-.08,1.62.62-.39.92-1,1.58-1a2.21,2.21,0,0,0,.06.64c.2.46.24,1.11,1.05.93s.67-.46.7-1.12c.08-1.73.12-3.52,1.14-5.06a2.44,2.44,0,0,1,1.94.66c-1.49,2.88-2.6,5.92-3.85,8.9-.77.15-1.17-.64-2-.68.66-.67,1.47-1.16.43-2.1s-1.05.93-1.81.54c-.54-.8-.41-1.78-.68-2.65a.89.89,0,0,0-1-.7c-.5,0-.64.35-.62.78A1,1,0,0,1,125.5,267.28Z"/><path class="cls-1" d="M54.1,174.92c.16,1,.32,2,1.68,1.7s1.85.58,2.37,1.5a7,7,0,0,1-1.81,2.66,1.82,1.82,0,0,1-1.73-1c-.36-.76-.88-.84-1.6-.52a9.43,9.43,0,0,1-1.4.42,2.65,2.65,0,0,1,1.55,1.54c.44.82,1.06,1.65,2.24,1.5a1.51,1.51,0,0,0,1.61.95,1.45,1.45,0,0,1,2,.66h0a3.86,3.86,0,0,1-2.6.08c-2.22-.31-4-1.83-6.19-2.15-.51-.07-.35-.6-.46-.94l0,0c.22,0,.31-.12.08-.29A74.73,74.73,0,0,1,54.1,174.92Z"/><path class="cls-8" d="M89.61,115c1.27.71,1.56-.56,2.18-1.11.78-.69,1.49-1.62,2.4-.14,0,0,0,0,0-.06l-.12,0s0,.06,0,.09.07,0,.13-.08a2.53,2.53,0,0,0,1.21-2.77c-.09-1.19-1.06.35-1.51-.24v0c.44-.57-.19-1.15,0-1.8.16-.47.06-.88.61-1.28s-.14-.48-.46-.55a11.8,11.8,0,0,1,3.49-1.27c.47-.13,1.09-.69,1.46-.15s-.21,1-.46,1.48a74.52,74.52,0,0,0-4.37,9.79c-.65-.46-1.32-.22-2-.09C90.81,117.05,89.47,116.05,89.61,115Zm4.5,1a.7.7,0,0,0-.22-.07s-.09.08-.09.1a1.09,1.09,0,0,0,.13.17Z"/><path class="cls-4" d="M85.27,281.87l.42-.5c.67,1,2.06-.22,2.85,1.1.61,1,1.89-.1,2.88-.13.26,0,.94-1,.76.31-.07.5.45.4.7.3a2.81,2.81,0,0,1,2.73.48c.77.54,1.5-.67,2.37-.07.19.13.69-.07.91.42.63,1.37,1.93,1.79,3.23,2.21.43.14.74.17.91-.3s.21-.85.74-.43.19.68-.1,1-.49.43-.74.64c.12.72.9.19,1.19.68l-1.31.09A87.47,87.47,0,0,1,85.27,281.87Z"/><path class="cls-4" d="M64.63,242.61c-.21,1.23-.8,1.65-1.86.77a1.94,1.94,0,0,0-1.51-.32c-.45.05-1.33.49-.45,1.19,1.42,1.14.84,1.86-.4,2.52-.64-.43-.49-1.68-1.58-1.53-.68.09-1.29.4-1.08,1.47l-1.3-1.18-.39-.7c.25-1,.52-1.86,2-1.4a1.69,1.69,0,0,0,1.93-.86c.48-.87-.29-1.12-.71-1.55s-.84-.78.06-1.33c.42-.26.31-1.28.7-1.73a2.59,2.59,0,0,1,2.25-.68c.14,1.25,0,2.56.7,3.69-.15.05-.42.09-.42.14A1.5,1.5,0,0,0,64.63,242.61Z"/><path class="cls-8" d="M89.67,138.67c.26.5,1.1.72.8,1.46s.29,1,.7.9c1.06-.15,1,1,.94,1.11-1.35,1.06.15,2.57-.65,3.7-.35.48.21.55.48.8,1.32,1.19,1.26,2-.12,3.09a1.63,1.63,0,0,0-.38.47c1.71,1.85-1.13,2.28-1.11,3.59l-.37-.66.06-.36a9.63,9.63,0,0,0,.07-4.56Z"/><path class="cls-4" d="M139.56,256.06a4.55,4.55,0,0,0-2.81,1.62c-.6.56-1,.44-1.4-.15-.51-.75-.13-1.82-.95-2.5-.19-.15.07-.72.4-.77,1.37-.23,2.48-.74,2.61-2.33.91.27.11,1.27,1,1.41.45.07.79.9,1.38.43s-.2-.69-.28-1.07c-.24-1.16.63-1.54,1.34-1.79.4-.14,1.33.2.65,1.08-.36.48-.06.8.13,1.18a7.33,7.33,0,0,1-1.68,2.26c0-.29,0-.58-.05-.87-.11.09-.26.16-.33.28-.25.42,0,.55.39.59C140,255.77,139.78,255.9,139.56,256.06Z"/><path class="cls-5" d="M130.74,141c-.9-.27-1.43.85-2.31.61l-.14-.07.12.08v1a2.54,2.54,0,0,0-3.31-1.21c-.75.25-1.35-.9-2.25-.74,2.14-1.39,4.57-2.13,6.87-3.18.68-.31,1,.15,1.24.66A2.46,2.46,0,0,1,130.74,141Z"/><path class="cls-4" d="M59.63,253.46c.48-.85.8-1.46,2.08-.73,1.64.92,3.64,1.24,4.25,3.42.05.15.59.16.91.23,0,1.15,1.06,2.07.7,3.3-.48.52-.61,0-.81-.28-.45-.6-.8-1.28-1.81-.95-.59.19-.76-.47-.66-.85a2,2,0,0,0-1-2.2l.07-.14-.08.14c-.86-.31-1.67-1.31-2.66-.24A2.79,2.79,0,0,1,59.63,253.46Z"/><path class="cls-8" d="M95.27,133a1.6,1.6,0,0,1-1.42,1.12c-.92.1-1,1-1.2,1.74,0,.13.15.38.3.5s.44.22.54-.06.08-1.07.69-.8-.16.82-.06,1.27c0,.16-.19.37-.3.56l-2.49,1.21c-.1-.62.85-1.44-.41-1.62-.33,0-.21-.43-.1-.68a17.13,17.13,0,0,0,1.78-5.44c0,.49.21.93.76.82a1.27,1.27,0,0,0,1.13-1c.11-.58-.13-1.21.26-1.75,0,.26,0,.52.08.79s-.06.77.22,1.1C95.12,131.45,95.2,132.21,95.27,133Z"/><path class="cls-3" d="M89.61,115c-.14,1.1,1.2,2.1,2.56,1.85.69-.13,1.36-.37,2,.09l-1,3.33a1.29,1.29,0,0,1-1-.55c-1.57-2-3.92-3.3-5.37-5.45a1.74,1.74,0,0,1-.44-1.72A13.58,13.58,0,0,1,89.61,115Z"/><path class="cls-9" d="M51.79,230.3a1.06,1.06,0,0,1,1.63.39c.58,1.21.26,2.61.87,3.83a1.31,1.31,0,0,1-.14,1.23c-1,.82-.9,1.87-.8,2.94a11.26,11.26,0,0,1-1.57-3.09,2.84,2.84,0,0,0-.18-1.83C50.93,232.61,51.8,231.47,51.79,230.3Z"/><path class="cls-4" d="M115.27,284.73c1.61-.4,3.49-.24,4.37-2.14.12-.27.32-.46.63-.27,1.08.65,2.18.25,3.28.08-.83,1.29-2.24,1.83-3.43,2.66-.94.65-1.9,1.26-2.86,1.89C116.45,286.34,115.51,285.86,115.27,284.73Z"/><path class="cls-8" d="M87.27,121.87c1.24-.81,1.34.32,1.27.94s.16,1,.69,1.36,1.6.84.8,1.94a.53.53,0,0,0,.33.79c.39.06.57-.28.42-.65-.28-.67.13-.5.52-.54.58-.06.79.18.49.59s.39,1.08-.19,1.5c-1,.4-2.3-.38-3.22.62A66.33,66.33,0,0,1,87.27,121.87Z"/><path class="cls-9" d="M155.08,178.74a.44.44,0,0,1-.16,0c-.81-.25-1.34-1.62-2.12-1.12s-.38,1.7-.38,2.6a5.94,5.94,0,0,0,.38,2.66,1.17,1.17,0,0,1-.86,1.73c-.89.22-1-.56-1.12-1.22.47-.09,1,.15,1.35-.19-.89-2.06.35-4.67-1.71-6.35.56-.08,1.27.13,1.36-.77A6.08,6.08,0,0,1,155.08,178.74Z"/><path class="cls-10" d="M43.24,205.81c-.64,1.72.14,3.45-.07,5.18a6.89,6.89,0,0,1-.53-1.63,1.2,1.2,0,0,0-1.3-1.28.91.91,0,0,1-.16-.11l0-.12-.06.09L41,208c-.63-2-.19-4,.22-5.91,0,.9,0,1.81,0,2.72C41.28,206.38,42.58,205.48,43.24,205.81Z"/><path class="cls-2" d="M115.27,284.73c.24,1.13,1.18,1.61,2,2.22a2.55,2.55,0,0,1-2.33,1.1l-2.31-.13c1-.59.52-1.8,1-2.59.54,0,1.21.17,1.31-.7Z"/><path class="cls-1" d="M51.79,230.3c0,1.17-.86,2.31-.19,3.47a2.84,2.84,0,0,1,.18,1.83,41.54,41.54,0,0,1-2.93-5.51C49.86,229.68,50.81,230.29,51.79,230.3Z"/><path class="cls-9" d="M41.34,208.08a1.2,1.2,0,0,1,1.3,1.28,6.89,6.89,0,0,0,.53,1.63c.06.43.12.86.19,1.3a3,3,0,0,0-.8,2.33A13.08,13.08,0,0,1,41.34,209C41.81,208.68,41.37,208.38,41.34,208.08Z"/><path class="cls-6" d="M120.19,146.54c-.6-.84-.41-1.84-.56-2.78-.09-.52.21-1.23-.62-1.45.29-.48.75-.36,1.18-.37.38,1.17,1.84,1.62,2,2.94h0c-1.2-.11-1.68.64-2,1.63Z"/><path class="cls-5" d="M127.38,149.16l-1.9.52a7.67,7.67,0,0,0,.68-2.49c0-.89.89-.75,1.37-.79.92-.1.4.79.61,1.2C127.89,148.12,127.64,148.64,127.38,149.16Z"/><path class="cls-4" d="M79.1,278.68a1.47,1.47,0,0,1,1.6-1.08c.69,0,1.68.54,1.72,1.22,0,1-.93.42-1.48.52-.09,0-.14.26-.21.39Z"/><path class="cls-9" d="M72.22,163.67c.84-1.46-.19-1.39-1.14-1.39a2.48,2.48,0,0,1,2.75.11V163a.88.88,0,0,0,0,.28C73.28,163.38,73.08,164.87,72.22,163.67Z"/><path class="cls-4" d="M83,280.77c.07-.5.24-.95.83-1s.52.42.58.78c.1.56.89.6.91,1.22A4.91,4.91,0,0,1,83,280.77Z"/><path class="cls-5" d="M90.09,148.21a9.63,9.63,0,0,1-.07,4.56C90,151.25,90.06,149.73,90.09,148.21Z"/><path class="cls-9" d="M151.24,175.58c-1.27.23-1.8-.67-2.36-1.54A7,7,0,0,1,151.24,175.58Z"/><path class="cls-6" d="M85.89,148.53c-1.19.18-1.27-.61-1.28-1.45A2.48,2.48,0,0,1,85.89,148.53Z"/><path class="cls-6" d="M122.11,140.88c-.15,1.22-1.11,1-1.9,1C120.61,141.14,121.53,141.32,122.11,140.88Z"/><path class="cls-9" d="M148.9,174.06c-1,.25-1.39-.46-1.73-1.21C147.75,173.25,148.33,173.65,148.9,174.06Z"/><path class="cls-4" d="M123.48,282.41a3.81,3.81,0,0,1,1.4-1A1.51,1.51,0,0,1,123.48,282.41Z"/><path class="cls-10" d="M41.34,208.08c0,.3.47.6,0,.9-.48-.22-.24-.66-.32-1l.06,0,.1,0A.91.91,0,0,0,41.34,208.08Z"/><path class="cls-5" d="M95.05,130.69c-.28-.33-.19-.73-.22-1.1C95.19,129.9,95.06,130.31,95.05,130.69Z"/><path class="cls-9" d="M151.84,176.08c-.31,0-.64,0-.52-.45Z"/><path class="cls-6" d="M118.87,142.38l-.33.14Z"/><path class="cls-8" d="M88.43,128.82a2.24,2.24,0,0,1,.13.27s0,.1,0,.15a1.66,1.66,0,0,1-.13-.27C88.38,128.92,88.42,128.87,88.43,128.82Z"/><path class="cls-6" d="M106,148.72a.44.44,0,0,1-.15.12l0-.14Z"/><path class="cls-9" d="M53.38,238.64c.1.16.21.32.32.47C53.59,239,53.48,238.8,53.38,238.64Z"/><path class="cls-4" d="M49.87,181.09c.23.17.14.25-.08.29A.34.34,0,0,1,49.87,181.09Z"/><path class="cls-4" d="M115,212.31l-1.38-2.24c.46-2.43.93-4.86,1.39-7.3a3,3,0,0,0,.57-2.38l0-3.2c1,.16,1.48-.31,1.39-1.33l.61,0a10.72,10.72,0,0,1,1,2.92l-.07.14.08-.14.32,0c.11,1.79,1.5,1.5,2.64,1.62h0a1.3,1.3,0,0,0,.75,1.48c1.22.45,2.43,1.21,3.82.58.12,1.3-.24,2.66.31,4,1.2-.65,1-1.76,1.11-2.72,1.1.34,1.71.87.62,1.88-.53.49,0,.91,0,1.36a4,4,0,0,0-.49,0c-.4.06-.94-.15-1.07.47a.37.37,0,0,0,.35.46c.53,0,1.13.28,1.56-.08.26-.23-.27-.52-.32-.84.72-.41,1.93-.71,2-1.24.2-1,.49-.77,1-.51.76.38,1.5.73,2.25-.1-.67-.26-1.7.06-1.72-1.11.07-.12.15-.24.23-.36l-.12-.08-.13.42c-1.39.85-1.81-1.38-3.06-1l.1-.64c1-.16,2.16.26,2.81-1.12-1.16-.45-2.41-.31-3.44-.89a1.51,1.51,0,0,1,0-.3,8.68,8.68,0,0,1,5.19,1.16c1.46.74,3.1.57,4.46,1.42.29.18.86,0,.74.62s-.59.42-.95.4a5.3,5.3,0,0,1-2.47-.8c-.37-.22-.69-.55-1.18-.5s-.82-.18-1,.26.21.58.42.81.73.68.73,1.24c.08.8-.36,1.75.84,2.2,2,.74,4.59-.18,6,2.16a.48.48,0,0,0,.45.11c1.06-1,2.44-.26,3.16.07.94.44,1.85,0,2.88.58,1.6.9,3.17,2.54,5.38,2.11,0,.14.09.27.13.41l.12-.08c-.08-.12-.15-.24-.23-.35-.48-.56-.29-1.48-1-1.91.44-.52.94-.61,1.26.05a1,1,0,0,0,1,.57c-.19.39-.36.6.31.88,1.06.44,1.5,1.18,0,1.78a1.41,1.41,0,0,0-.92,1.57c-.4.23-1.67-.06-.57,1,.36.38,0,.76-.37.87s-1.15.32-1.35-.44c-.24-.95-.57-1.45-1.53-.64a.37.37,0,0,1-.56-.15c-.48-1.14-1-1.18-1.6-.1-.31.53-.63,0-.91-.18-.85-.52-1.66-.76-2.37.21-.09.12-.26.29-.36.28-1.56-.3-1.17.28-.48,1,.06.07-.07.31-.11.47-.29.32-.66.26-1,.21-.19,0-.58-.56-.49-.11.14.63-.63,1.13-.43,1.18.9.23,1.28,1.33,2.29,1.29.15.38-.52.55-.24.91a.54.54,0,0,0,.56,0c.29-.4-.05-.64-.32-.88.29-.81,1.11-.34,1.59-.67,0,.65,0,1.3,0,1.95a9.35,9.35,0,0,0-1.59.21c-2.91.88-4.5-1-3.64-4.12,1-.79,1.35-2,2-3.29-1.82.66-2,1.94-2,3.28-.18-.08-.5-.14-.53-.27-.33-1.46-1-1.84-2.33-1.07a1.49,1.49,0,0,1-1.76.11c-.1-.38-.27-.21-.44-.06h-.08c-.16-.32,0-.78-.45-1-.48-.67-1-1.33-1.43-2a.73.73,0,0,0-1.1-.16,3.78,3.78,0,0,0,.28.78l-.1.14c-.85-.28-1.86,0-2.57-.79a.33.33,0,0,0-.55,0c-.7,1.3-1.63.76-2.24.1-.91-1-3-1-2.62-3,0-.27-.33-.37-.48-.29-1.74.91-3.42.38-5.19-.51.23.93,1,.92,1.23,1.39s.64,1.33.4,1.8-.79-.17-1.21-.28-.89.06-1.06.68.11,1.13-.5,1.45c-.33,0-.58,1.29-1,0C115.93,213.57,115.91,212.56,115,212.31Zm11.77-2.11c1.57,0,2.38,1.34,3.65,1.83.86.34.93-.33,1.3-.59.52-.36.25-.82-.13-1.07-.72-.48-1.47-.88-.63-1.87,0,0-.08-.33-.18-.37a.67.67,0,0,0-.75.19A7.19,7.19,0,0,1,126.72,210.2Zm-3.65-1.66c-.63-1.5-2.18-1.31-3.14-2-.26-.2-1-.68-1.26-.08a1.06,1.06,0,0,0,.58,1.37C120.46,208.1,121.56,209.07,123.07,208.54ZM116.68,212c0,.09.09.21.15.23s.18-.05.27-.09l-.21-.31Z"/><path class="cls-4" d="M112.33,263.55a12.49,12.49,0,0,1-3.56-.13c-.52,0-1.07-.18-1.12-.94a.75.75,0,0,0-1-.67c-.51.12-.29.63-.32,1a3.26,3.26,0,0,1-.28,1.75c-.67-1.17-2.18-1.39-2.52-2.89-.87.8-1.33,1.93-2.47,2.1a4.86,4.86,0,0,1-2.91-.49,1.85,1.85,0,0,1-1.14-1.82c0-.65.12-1.52,1.23-1.31.11,0,.37-.15.37-.23,0-1.58,1.16-1.37,2.16-1.7.71-.24.82-.3,1.06.42s1,.5,1.43.33c.74-.28.06-.68-.06-1-.23-.68-.23-1.23.72-1.17s1.83-.74,2.86-.9.07-1.11.31-1.85c1.26,1.55,2.25-1.62,3.71.15-.57-1-.67-1.75.25-2.2a1.63,1.63,0,0,1,2.29.64c.68,1.27,1.52,1.4,2.73.6.11,1.55.91,1.65,2.16,1.43.77-.13,2-1.06,2.41.62.46,1.87.48,1.9-1.5,1.86a5.93,5.93,0,0,0-2.55.59c.54.64,1.16,0,1.6.15.62.24,1.46.47,1.56,1.28s0,1.77-.66,2a2.48,2.48,0,0,1-2.42-.26c-.74-.68-1.79-1.41-1.48-2.61s-.4-1.39-1.23-1.73-1.85,0-2.77,0c-.7,0-.72,1.74.05,2.52.47.47.66.74.24,1.48-.5.89-.66,2,.78,2.48C112.31,263.19,112.32,263.37,112.33,263.55Z"/><path class="cls-4" d="M99.47,265.27c.88.9.91,2.17,2,2.62.25.1.15.47.07.75-.32,1.07-.26,2,1.08,2.26a.6.6,0,0,1,.49.74c-.13.38-.57.46-1,.52-1.08.15-2.26-1.16-3.27.22,0,0-.32-.11-.37-.22-1.26-2.62-3.73-.49-5.44-1.37-.23-.12-.18.3-.26.48-.65,1.53-1.46,1.72-2.38.41A3.11,3.11,0,0,0,88.1,270c-1.18-.12-1.33-1.11-1-2.14.2-.57,1.06-1.32-.55-1.25-.69,0-1-.84-.92-1.65s.68-.72,1.22-.71,1.31-.15,1.94-.17a2.63,2.63,0,0,1,2.86,1.67c.15.41.37.83.92.79.7-.05.27-.56.35-.87a.43.43,0,0,1,.47-.36c.33,0,.4.28.45.58.09.57-.29.9-.58,1.29A2.38,2.38,0,0,0,93,269.5c.11.35.59.86.9.18.46-1,1.12-.8,1.9-.56.45.14,1.07.32,1.29-.28.15-.41.61-1-.23-1.36a.43.43,0,0,1-.15-.69c.2-.25.48-.12.75-.08C99.12,266.94,99.31,266.81,99.47,265.27Z"/><path class="cls-4" d="M70.53,238c.7.09,1.47.74,2-.31a14.23,14.23,0,0,0,2.08,1.23c.31.11-.36.63-.58,1-.42.68-.73,1.41-1.28.08a.49.49,0,0,0-.92,0c-.34.66-.95.51-1.58.57.72.84.66,2.46,2.37,1.81a.28.28,0,0,1,.15,0c0,1.63,1.92,1.75,2.39,3,.22.58.17,1-.5,1.31-.47.21-.85.79-1.39.16s-1.4-.58-2.25-.38c-1.39.33-2.06-.32-1.62-1.65.26-.79-.23-1.08-.62-1.11a4.13,4.13,0,0,1-3.17-1.71c-.43-.89-.85-1.78-1.28-2.66a3.84,3.84,0,0,1,.58-2.89,4.91,4.91,0,0,0,3.43-.3,2.28,2.28,0,0,1,1.43,0c1,.26,1.56.79.77,1.84a.31.31,0,0,0-.12.05s0,.06,0,.09Z"/><path class="cls-4" d="M76.92,265.45c0,.05,0,.14-.06.14-2.71.68.62,1.91-.22,2.87-.2.23.53.92,1.09,1a12.21,12.21,0,0,1,2.91,1.4,1.11,1.11,0,0,1,.32,1.91c-1.52.53-1.5,2-2.11,3-.41.68-.74.73-1,.09-.8-2.27-2.71-2.72-4.73-3-.36-.06-.83.08-.92-.46s.28-.62.61-.86a3,3,0,0,0,.52-3.23c-.34-.41-.73-1-.22-1.24,1.2-.53,1.21-1.36,1-2.38a.59.59,0,0,1,.37-.66C74.91,263.85,76.93,265.05,76.92,265.45Z"/><path class="cls-4" d="M126.47,255.05a13.37,13.37,0,0,1-1.91-.33c-.86-.27-2.37.09-1.1-1.89.63-1,.47-2.59,1.67-3.51.15-.12.27-.46.46-.34,1.21.76,2.69.69,3.93,1.33.74.37.61,1.44,1,1.7,1.35,1,1.41,2.27,1.41,3.68,0,.18.26.34.36.53.23.47.78,1.11.3,1.44a1.41,1.41,0,0,1-1.83-.18c-.45-.54-.86-.91-1.64-.56-.23.1-.31-.38-.36-.63,0-.55,0-1.09,0-1.64s.38-1.4-.69-1.51c-.87-.1-1.08.52-1.25,1.19A5,5,0,0,1,126.47,255.05Z"/><path class="cls-4" d="M102.77,275.8a1.68,1.68,0,0,0-.81-1.65.89.89,0,0,1-.17-1.36c.53-.56.65.24.93.47.5.42,1,.87,1.55,1.38a4.12,4.12,0,0,0,.32-.93c.13-1.6.76-1.88,2.18-1,.55.36.84,1.18,1.76.94.25-.06.51.32.32.58-.41.58-.72,1,.18,1.48.39.2-.09.55-.27.78-.4.49-.62.92.16,1.28a.62.62,0,0,1,.22,1.07c-.34.37-.81.21-1.19-.06s-.89-.89-.75-1.19c.48-1-.46-1.14-.8-1.65s-.5-.81-1.11-.39-.35.79-.25,1.29c.17.89,1.46,1.08,1.22,2.46-.75-.74-2-.6-1.77-2.23.16-1.05-1-1.11-1.73-1.32Z"/><path class="cls-2" d="M115,212.31c1,.25,1,1.26,1.2,1.89.47,1.32.72,0,1,0-.13.87-.25,1.73-.38,2.6-.16.09-.26.2-.06.35,0,0,.15-.11.24-.17,1.07-.46.39-1.82,1.22-2.4v0a9.55,9.55,0,0,0,0,1.31c0,.39-.63.83,0,1.09a1.33,1.33,0,0,0,1.69-.18c-.41,1.33-.81,2.66-1.23,4l.8.07c.49,0,1.08.05,1.27.55a1,1,0,0,1-.54,1.24c-.36.17-.77,1.31-1.34.1-.09-.18-.8.47-1.2-.05-.33-1.12.24-2.57-1.24-3.25A18.5,18.5,0,0,0,115,212.31Z"/><path class="cls-4" d="M127.44,239c-.4.24-.67-.87-1.18-.07-.27.43-.25,0-.4-.22-.5-.64-.21-1.49-.64-2.12-.18-.28-.19-1-.84-.37-.86.86-1.12.19-1.21-.56s-.2-1.16-1.08-.58c-.56.36-3-1-3.15-1.69a.71.71,0,0,1,.13-.76c.34-.29.57-.05.84.17.8.7,1.53,1.39,2.78.65.63-.38,1.52.21,1.84.76a2.27,2.27,0,0,0,2.62,1.12c.69-.1,1.56-.24,1.82.55a1.3,1.3,0,0,1-1.07,1.84c-.66.14-.78.69-.47,1.29Zm.64-2.23s-.09.05-.1.08,0,.08,0,.12l.18-.14Z"/><path class="cls-4" d="M78.46,264a17.89,17.89,0,0,0,4.62.52c.65-.08.92.33,1.16.7s-.21.63-.5.88-.75.52-.55,1.07.41.65,1,.52.94.42,1.12,1c.09.29,0,.71.46.74s.87-.33.8.35-.67.51-1.07.42c-1.67-.37-2.95-1.53-4.45-2.24S79.37,265.46,78.46,264Z"/><path class="cls-4" d="M113.67,285.33c-.53.79,0,2-1,2.59-.71.06-.56-.72-.93-1-.53-.37-1.15-.51-1.61,0-.61.74.53.51.73.95h-2.13c.33-1.19.86-2.29.38-3.58a1.51,1.51,0,0,1,1.6-1.93c.65,0,1.28.19,1.92.28A2.72,2.72,0,0,0,113.67,285.33Z"/><path class="cls-9" d="M99.73,272.83c.91.09,1.45.7,1.18,1.43-.84,2.3,0,4.38.63,6.5.08.25.31.47.09.73s-.39,0-.6,0c-1.87-.12-2.1-1.69-2.36-3a19.4,19.4,0,0,1-.16-4.25A1.36,1.36,0,0,1,99.73,272.83Z"/><path class="cls-9" d="M75.72,238.3c.21-.69.16-1.81,1.22-1.53.84.21,1.22,1,1,2.09-.26,1.56-.83,3.11-.47,4.74-.05.41.84.68.31,1a1.37,1.37,0,0,1-1.4,0,1.43,1.43,0,0,1-1-1.45c0-.59-.87-1-.34-1.69Z"/><path class="cls-9" d="M115.64,241.26c.51,0,1.15-.16,1.28.65.09,1.26-.78,2.34-.66,3.61-.43,1.09-.87,2.18-1.31,3.27a12.5,12.5,0,0,1-.48,1.2c-.18.32-.21,1-.77.77a1.06,1.06,0,0,1-.64-1.33c.59-2.21,1.12-4.44,1.73-6.65A6.92,6.92,0,0,1,115.64,241.26Z"/><path class="cls-9" d="M143.2,238.3c.26,2.08-.58,3.89-1.33,5.73-.17.41-.45.66-.85.59s-.45-.47-.43-.8c.1-1.23-.26-2.49.5-3.67.87-1.38-.31-2.57-.52-3.86C142.37,235.76,143,236.25,143.2,238.3Z"/><path class="cls-9" d="M132.71,237.58c-.74,1.51-.55,3.26-1.27,4.79-.22.47-.3,1-.89.94s-.47-.77-.48-1.23c0-.82,0-1.64,0-2.45.15-1.33,1-2.54.42-4-.16-.42.37-1.36.28-2.13,0-.28.32-.16.52-.18s.5,0,.46.29C131.5,235,133,236.09,132.71,237.58Z"/><path class="cls-9" d="M67.57,259.68c.36-1.23-.7-2.15-.7-3.3,0-.43,0-.86,0-1.29l1-.67c.78.55.84,1.4,1.07,2.25.66,2.41.42,5.09,2.07,7.22-.3.39-.53.37-.9,0s-.6-.91-1.21-1A15.27,15.27,0,0,0,67.57,259.68Z"/><path class="cls-7" d="M87.82,279.91c-1.84-.28-2.79-1.36-3.06-3.62a11.22,11.22,0,0,1-.28-3.38c.07-.39-.27-1,.42-1a1,1,0,0,1,1.09.95A44.5,44.5,0,0,0,87.82,279.91Z"/><path class="cls-7" d="M82.05,263.29a4.76,4.76,0,0,1-3.89-4.13c0-.81,0-1.63,0-2.45,0-.61-.09-1.3.82-1.26s1.29.56,1,1.3c-.57,1.68.36,3.07.73,4.56a3.58,3.58,0,0,0,1.34,2Z"/><path class="cls-9" d="M116.38,219.54c1.48.68.91,2.13,1.24,3.25a27.55,27.55,0,0,0-.66,3.07,4.76,4.76,0,0,1-2,3.25l0,0c-.2-1,.41-2-.19-2.88A24.35,24.35,0,0,0,116.38,219.54Z"/><path class="cls-7" d="M94.29,258.44c.36-.61-.53-2.13,1.22-1.52a.8.8,0,0,1,.67.88,27,27,0,0,0,.63,5.94c.08.27.16.54-.16.7s-.41,0-.54-.22c-.76-1-1.75-1.81-1.65-3.27A15.79,15.79,0,0,0,94.29,258.44Z"/><path class="cls-9" d="M126.47,255.05a5,5,0,0,0,.3-.72c.17-.67.38-1.29,1.25-1.19,1.07.11.65.93.69,1.51s0,1.09,0,1.64c-1.21.68-.37,1.83-.63,2.73-.71,1-1.39,1-2,0A20,20,0,0,1,126.47,255.05Z"/><path class="cls-9" d="M64.9,236.38a3.84,3.84,0,0,0-.58,2.89c-.4.61.78,2.48-1.36,1.7-.74-1.13-.56-2.44-.7-3.69s1.21-1.91,1.58-3c.15-.48.94-.22,1.11.49v.92Z"/><path class="cls-9" d="M154.31,221c0-2,1.23-3.6,1.47-5.5,0-.4.37-.5.73-.46a.58.58,0,0,1,.51.7c-.13,1.1.4,2.28-.42,3.3-.38.46-.18,1.05-.26,1.58-1,.78-.94,2.19-1.73,3.12C153.54,222.85,154.51,221.85,154.31,221Z"/><path class="cls-7" d="M145.21,218.22c.14-.78-.23-1.59.16-2.42,2.25.83,1.69,2.77,1.83,4.43,0,.91,0,1.83-.07,2.74,0,.37,0,.78-.56.84s-.67-.25-.73-.67l-.08-.65c0-.2,0-.4,0-.6-.23-1.11.25-2.32-.45-3.36A1.09,1.09,0,0,1,145.21,218.22Z"/><path class="cls-4" d="M75.14,231.39c-1.64.2-1.09,1.35-1,2.31h0a2,2,0,0,1-2.58.14c-.63-.33-1.14-.92-1.75,0-.08.13-.77,0-1.08-.17s-.15-.69-.13-1.05a.54.54,0,0,1,.62-.58c.48,0,1,.14,1.44.19,1.09.13,2.17.29,2.59-1.17a1.34,1.34,0,0,1,.89-.83c.67-.06.7.7,1,1.12Z"/><path class="cls-4" d="M113.3,234.92c-1.13-.65.37-2.24-1.3-2.62,1.35.2,2.25-.59,3.24-1.06,1.18-.56,1.63.51,2.08,1.06a1.28,1.28,0,0,1-.42,1.92c-.4.2-.54.27-.93-.06C114,232.45,114,232.48,113.3,234.92Z"/><path class="cls-9" d="M91.28,244.21a5.16,5.16,0,0,1,.58-3c.29-.55.59-.94,1.2-.84s.83.55.83,1.19a4.87,4.87,0,0,1-.65,2.92L92,245.86l-.35-.36C91.61,245,91.72,244.56,91.28,244.21Z"/><path class="cls-9" d="M122.16,274.82a3.05,3.05,0,0,0,0,2.3,1.62,1.62,0,0,0-.4,1c-.2.39.12.92-.3,1.26a4.55,4.55,0,0,1-1-5.31c.16-.44-.17-1.25.73-1.15s1,.65,1,1.41A2.57,2.57,0,0,0,122.16,274.82Z"/><path class="cls-7" d="M112.33,263.55c0-.18,0-.36,0-.54.27-.52-.42-1.49.6-1.6s1.18.82,1.31,1.56c.2,1.15-.1,2.38.6,3.46.1.16.07.5-.18.52a1.62,1.62,0,0,1-.93-.21C112.63,266,112.62,264.69,112.33,263.55Z"/><path class="cls-4" d="M95.12,256.37H94.3a.87.87,0,0,1-.92-.76c-.12-.52.37-.69.69-.74a1.23,1.23,0,0,0,1.24-1.21c.07-.6.44-.88,1.18-.64s1.1.67,1,1.43A2.19,2.19,0,0,1,95.12,256.37Z"/><path class="cls-4" d="M68.9,263c.61.05.84.61,1.21,1s.6.37.9,0a2.27,2.27,0,0,1-.12,2.78c-.48.74-1.77.2-2.28-.37s-1.24-1.62,0-2.46C68.82,263.71,68.81,263.25,68.9,263Z"/><path class="cls-4" d="M115,248.79c.44-1.09.88-2.18,1.31-3.27.66.11.93.71,1.39,1.08a4,4,0,0,0,3.76.5c.85-.23,1.32,0,1.94.75C120.42,247.88,117.58,247.55,115,248.79Z"/><path class="cls-9" d="M134.34,214.94c.4.22.29.68.45,1-.31,0-.61-.42-.88-.13s.14.43.26.64c.74,1.32-.2,2.8.36,4.17.1.23-.34.77-.74.68a1,1,0,0,1-.71-1,14.72,14.72,0,0,0-.39-3.05v0c.25.07.52.23.74.17s.16-.31.05-.52C132.59,215.19,132.6,215.18,134.34,214.94Z"/><path class="cls-4" d="M65.06,251.64a1.63,1.63,0,0,1-2.14,0c-.32-.21-.57-.5-1-.48-1.7.07-1.31-.89-1-1.91s.87-.83,1.33-.38C63.2,249.76,64.58,250.22,65.06,251.64Z"/><path class="cls-4" d="M124.13,272.16c-.09.4.22,1-.41,1.23s-1-.18-1.29-.68a3.94,3.94,0,0,0-.87-.95c-.41-.33-1.1-.25-.8-1.22s1.12-.48,1.57-.62C123.1,269.69,124.15,271.16,124.13,272.16Z"/><path class="cls-4" d="M104.76,281.76a4.08,4.08,0,0,0,1.3.2,1.2,1.2,0,0,1,.91,1.18c0,.64-.55.49-1,.56a4.71,4.71,0,0,0-1.24.32c-.85.4-1.66.49-2-.56s.45-1.41,1.37-1.51A2.47,2.47,0,0,0,104.76,281.76Z"/><path class="cls-7" d="M103.09,234.1a6,6,0,0,1,2-.37c0,.75,0,1.5,0,2.26,0,.4-.08.81-.11,1.22-.51,0-.55.63-.91.83l-.91-1.11c-.05-.75-.09-1.5-.13-2.26Z"/><path class="cls-9" d="M113.67,285.33a2.72,2.72,0,0,1-1.09-2.63c.89-1,1.73-.84,2.15.37a8.91,8.91,0,0,1,.25,1.56C114.88,285.5,114.21,285.3,113.67,285.33Z"/><path class="cls-4" d="M98.63,249.36c.72.31.84,1.06,1,1.65.31.93-.86,1.21-1.12,1.2a1.59,1.59,0,0,1-1.67-1.39C96.78,249.6,98.12,250,98.63,249.36Z"/><path class="cls-2" d="M63,241c2.14.78,1-1.09,1.36-1.7.43.88.85,1.77,1.28,2.66a1,1,0,0,1-1,.67,1.5,1.5,0,0,1-2.09-1.49C62.54,241.06,62.81,241,63,241Z"/><path class="cls-4" d="M114.75,270.46c-1.07-1.9,1.28-.44,1.28-1.3.31.4,1.12.15,1.08,1.08,0,1.45-1.18,1.07-1.89,1.2S114.3,271.09,114.75,270.46Z"/><path class="cls-4" d="M121.48,279.39c.42-.34.1-.87.3-1.26a7,7,0,0,0,.78.56c.42.23,1.28-.2,1.24.59a1.32,1.32,0,0,1-1.09,1.07A1,1,0,0,1,121.48,279.39Z"/><path class="cls-2" d="M125,222.09a7.58,7.58,0,0,1-1.92,1.08c-.45.14-.75.08-.87-.37s.35-.35.59-.44C123.51,222.11,124,220.89,125,222.09Z"/><path class="cls-4" d="M122.83,240.27c0-.27.13-.6.44-.59a2.17,2.17,0,0,0,2-.91c0,.89.14,1.81-1.14,1.83h0c-.35-.5-.87-.28-1.33-.33Z"/><path class="cls-4" d="M91.6,245.5l.35.36a4.12,4.12,0,0,1-3.32.62c-.27-.06-.55-.21-.46-.54s.3-.28.53-.16C89.73,246.32,90.65,245.79,91.6,245.5Z"/><path class="cls-4" d="M75.12,241.53c-.53.7.35,1.1.34,1.69a4,4,0,0,1-1.84-.18C74,242.39,74.09,241.54,75.12,241.53Z"/><path class="cls-4" d="M120.1,251c0,.37-.31.6-.49.54-.58-.22-.72-.81-.83-1.34a.38.38,0,0,1,.49-.46C119.94,249.89,119.86,250.55,120.1,251Z"/><path class="cls-4" d="M106.86,280.56c.93-.27,1.48.24,2.08.55,0,0-.12.48-.23.5C107.81,281.8,107.56,280.92,106.86,280.56Z"/><path class="cls-4" d="M67.87,254.42l-1,.67c-.25-.06-.73,0-.67-.24.11-.46.79-.67.71-1.28C67.42,253.63,67.85,253.79,67.87,254.42Z"/><path class="cls-2" d="M145.29,218.53c.7,1,.22,2.25.45,3.36-.19-.25-.38-.49-.58-.73,0-.65,0-1.3,0-1.95Z"/><path class="cls-2" d="M118.22,214.61l.46-1.17c.27.7.23,1.09-.45,1.19Z"/><path class="cls-4" d="M112,234c-.12-.18-.24-.29-.25-.41s.08-.42.34-.35c.09,0,.18.24.17.37S112.08,233.8,112,234Z"/><path class="cls-4" d="M138.78,233.38c.09.05.29.09.35.2a.21.21,0,0,1-.2.33.56.56,0,0,1-.4-.2C138.4,233.54,138.55,233.44,138.78,233.38Z"/><path class="cls-4" d="M68.23,231.39c0-.2,0-.44.31-.48,0,0,.18.12.18.17,0,.28-.29.27-.49.31Z"/><path class="cls-4" d="M139.16,234.7c-.07.06-.14.17-.21.17a.19.19,0,0,1-.18-.29.26.26,0,0,1,.25-.1C139.08,234.49,139.11,234.62,139.16,234.7Z"/><path class="cls-4" d="M104.94,237.21c0-.41.07-.82.11-1.22.53.33.32.86.35,1.32Z"/><path class="cls-4" d="M133.36,254.68l.14-.34a2.33,2.33,0,0,1,.27.37c0,.06-.06.17-.1.25Z"/><path class="cls-4" d="M137.72,234.53c-.09,0-.18.13-.27.12s-.17-.09-.25-.15c.09,0,.18-.12.27-.12S137.63,234.47,137.72,234.53Z"/><path class="cls-4" d="M65,235.65v-.92C65.35,235,65.37,235.34,65,235.65Z"/><path class="cls-4" d="M132.09,213.55c.18,0,.4-.25.54,0,0,.06,0,.21-.1.26-.23.14-.4,0-.54-.16Z"/><path class="cls-4" d="M84.88,265.39l.13-.05,0,.19s-.09,0-.13,0S84.89,265.43,84.88,265.39Z"/><path class="cls-4" d="M89.52,263.5s0-.11,0-.11a.65.65,0,0,1,.13,0s0,.1,0,.11A.65.65,0,0,1,89.52,263.5Z"/><path class="cls-2" d="M145.76,222.49l.08.65C145.49,223,145.53,222.74,145.76,222.49Z"/><path class="cls-4" d="M125.13,270.53c-.22-.11-.25-.22,0-.33h0v.33Z"/><path class="cls-9" d="M132.69,217.26l-.16-.17.17.15Z"/><path class="cls-9" d="M134.87,216c.17-.15.34-.32.44.06Z"/><path class="cls-4" d="M102.76,275.79l-.07.14.08-.13Z"/><polygon class="cls-7" points="82.04 263.3 82.13 263.38 82.05 263.29 82.04 263.3"/><path class="cls-4" d="M74.15,233.7l.13.06-.13-.07Z"/><path class="cls-4" d="M128.75,239l-.13-.07.13.08Z"/><path class="cls-9" d="M115,229.11l-.16.13.13-.16Z"/><path class="cls-4" d="M68.23,231.39l-.07.13.07-.13Z"/><path class="cls-4" d="M126.45,240.6l-.13-.08.12.08Z"/><path class="cls-8" d="M106,204.44a14.88,14.88,0,0,1-3.51-.64c0-.21,0-.43.07-.64,1,.22,1.25-1.14,2.32-1a1.82,1.82,0,0,0,1.69-.48c.16-.22.82-.05.62-.66-.14-.42-.34-.86-.86-.87s-1.09,0-1.22.19c-.83,1.51-.75-.49-1.31-.22-.38,1-.92,1.18-1.46,0-.27-.57-.6-.25-.93-.11s-.43.34-.11.71c.89,1,.18,1.25-.72,1.35-.46-1.5-1.36-2.87-1.36-4.51,1.07-.3-.44-1.67.79-1.89.18,0,0-1,.62-.11.79,1.19,1.9,1.42,3,.16.24-.27.56-1.09,1.12-.53s.3.89-.51.92c-.24,0-.14.47,0,.7s.66.45.81.11c.3-.67.79-.73,1.4-.89a.71.71,0,0,0,.31-1.26c-.61-.62-.62-.9.07-1.19a3.1,3.1,0,0,1,2.81,0c.92.47,2.07,1.44,3.13-.06-2.8-1.18-5.73-.27-8.74-1,.44.94,1.29.72,1.7,1.23a7.48,7.48,0,0,1-2.69.44,1.59,1.59,0,0,0-1,.12c-1.24.73-1.9.31-2.42-1.28a14.32,14.32,0,0,1-.54-2.79h0c1,0,1.2-1,1.63-1.54,1-1.16,2.16-.45,3.19-.75s-.15,1,.7,1.21a1,1,0,0,1,.24,1.76c-.38.27.1.32.17.3.65-.24.61,1.21,1.4.56.32-.27.42-.44-.07-.66s-.19-.4.09-.57c.79-.47.69.61,1.17.69a4,4,0,0,0-1.29-4,1.85,1.85,0,0,1,1.33-.65c.69.37,1.38-.1,2.07,0,.42.07,1,0,1,.57s.14,1.21-.6,1.35a7.34,7.34,0,0,0-2.36,1.33c2-.27,1.53,2.44,3.15,1.82,1.45-.56,2,1.34,3.23.84l.09.78c-.14.3-1.55.05-.36,1,.71.55-.27,1.12-.48,1.64s-.64.35-1.21.22c-1-.21-1.8-1.52-3.28-.44,1.14.07,1.36.77,1.71,1.39.69,1.25.58-.2.88-.29a5.25,5.25,0,0,1,.34,3.31c-.63-.93-1.48-.13-2.13-.66-.32.59.47.92.39,1.41-.5.55-1.44-.44-1.71.55-.38,1.45-1.4,1.38-2.53,1.16-.7-.13-.93.32-.74.86C105.28,203.85,105.68,204.13,106,204.44Zm3.05-6.27c-.85-.16-1-1-1.63-1.49-.43-.32-.65-.33-.81.18-.39,1.19,1.56.91,1.33,2.1-.05.25.67.27,1,.15.59-.21.19-.61.11-.94.3-.21.82-.2.81-.87C109.22,197.32,109,197.65,109,198.17Zm-5-7.26a1.55,1.55,0,0,0-.39-.26c-.08,0-.19,0-.29.08a1.64,1.64,0,0,0,.35.29C103.76,191.05,103.88,191,104,190.91Z"/><path class="cls-3" d="M106,204.44c-.28-.31-.68-.59-.82-1-.19-.54,0-1,.74-.86,1.13.22,2.15.29,2.53-1.16.27-1,1.21,0,1.71-.55.08-.49-.71-.82-.39-1.41.65.53,1.5-.27,2.13.66a5.25,5.25,0,0,0-.34-3.31c-.3.09-.19,1.54-.88.29-.35-.62-.57-1.32-1.71-1.39,1.48-1.08,2.32.23,3.28.44.57.13,1.06.17,1.21-.22s1.19-1.09.48-1.64c-1.19-.93.22-.68.36-1,.42.17.48.61.68.94a.74.74,0,0,0,0,.21,3.63,3.63,0,0,0,.62,2.69l0,3.2c-1.1.58-.45,1.57-.57,2.38-.46,2.44-.93,4.87-1.39,7.3A19.91,19.91,0,0,0,106,204.44Z"/><path class="cls-9" d="M113,182.05c2.62-.14,5.17.72,7.78.65a6.77,6.77,0,0,0,3.16-.49,3.14,3.14,0,0,1,3,.16c.55.36,1,.11,1.49,0,1-.21.92-1.33,1.79-1.69,1.39-.57-.13-1.3-.09-2,0-1.09,0-2.18,0-3.28,0-.52.13-1.15-.67-1.26-.34-1-.67-2-1-3l.34-.33a7.56,7.56,0,0,1,3.3,2.33c0,.62.31,1,1,1l0,0c.1.32.35.36.63.31l0,0a1.34,1.34,0,0,0,1.36,1,10.53,10.53,0,0,1,3.48,2.21c.85.83-.25,1.62-.78,1.92a39.54,39.54,0,0,1-6.23,3,13.11,13.11,0,0,1-3.58.69c-4.85.18-9.73.39-14.54-.61C113.09,182.6,113,182.33,113,182.05Z"/><path class="cls-1" d="M152.75,212c-2.21.43-3.78-1.21-5.38-2.11-1-.59-1.94-.14-2.88-.58-.72-.33-2.1-1.05-3.16-.07a.48.48,0,0,1-.45-.11c-1.42-2.34-4-1.42-6-2.16-1.2-.45-.76-1.4-.84-2.2.81.18,1.68.23,2.16,1.1a.79.79,0,0,0,1.11.37,1.32,1.32,0,0,1,1.86.43c.1.16.46.34.53.29,1.52-1.17,2.67.2,3.86.64a56.31,56.31,0,0,0,8.22,2.47c.71.43.52,1.35,1,1.91Z"/><path class="cls-7" d="M156.36,199.83c0,1,0,2.07,0,3.1,0,.41-.1.77-.62.77s-.63-.33-.64-.75c0-1,0-2.07-.06-3.11a4.87,4.87,0,0,0-2.28-3.88c-.41-.29-1.25-.3-.86-1a1.63,1.63,0,0,1,1.81-.7c2,.44,2.66,1.31,2.67,3.46v2.12Z"/><path class="cls-9" d="M127.51,203.8c-.14,1,.09,2.07-1.11,2.72-.55-1.33-.19-2.69-.31-4a.93.93,0,0,0,0-1.39c-.19-1.68.5-3.45-.57-5a.52.52,0,0,1,.34-.78c.44-.13.66.06.88.47.73,1.39,1.54,2.73,1.34,4.39a1.51,1.51,0,0,0,0,.3c.19.78-.5,1.29-.61,2Z"/><path class="cls-9" d="M141.89,205.07c-.51.06-.62-.47-1-.65-.11-.33-.23-.66-.35-1,0-.93,0-1.86,0-2.78s.08-2.09-.93-2.79a.75.75,0,0,1-.27-1c.21-.42.66-.37,1-.31a2.33,2.33,0,0,1,2,1.86c.13,2,.62,4.13-.47,6.07C141.94,204.68,141.92,204.87,141.89,205.07Z"/><path class="cls-9" d="M118.16,194.31c0-1.7.08-3.39.06-5.09,0-.79.21-1.6,1-1.62s.93.81,1,1.59c.23,2-.5,3.86-.8,5.78,0,.2-.38.35-.57.53Z"/><path class="cls-7" d="M150.46,176.83c2.06,1.68.82,4.29,1.71,6.35-.36.34-.88.1-1.35.19a10.66,10.66,0,0,1-1-4.65c-.2-.68-.4-1.37.29-1.93Z"/><path class="cls-9" d="M141.93,184c.56.59.9,3.88.45,4.35s-2.34-.28-2.31-.82c.07-1.65-1.08-3.06-.78-4.73.13-.79.42-1.34,1.29-1.41a5.74,5.74,0,0,1-.41,2.16c-.49,1,.4,2,.75,2.91.14.37.91.17,1-.52S141.92,184.68,141.93,184Z"/><path class="cls-1" d="M126.13,201.13a.93.93,0,0,1,0,1.39c-1.39.64-2.6-.12-3.82-.57a1.3,1.3,0,0,1-.75-1.48C123.24,199.41,124.65,200.54,126.13,201.13Z"/><path class="cls-7" d="M141.93,184c0,.65,0,1.3,0,1.94s-.83.89-1,.52c-.35-.94-1.24-1.92-.75-2.91a5.74,5.74,0,0,0,.41-2.16C142.1,181.74,141.85,183,141.93,184Z"/><path class="cls-1" d="M145.29,218.53l-.15.68c-.48.33-1.3-.14-1.59.67h0c-1,0-1.39-1.06-2.29-1.29-.2-.05.57-.55.43-1.18-.09-.45.3.09.49.11.38,0,.75.11,1-.21,1.06-.55,1.18.93,2,.91A1.09,1.09,0,0,0,145.29,218.53Z"/><path class="cls-1" d="M118.16,194.31l.69,1.19a2.3,2.3,0,0,1-1.29.41l-.61,0c-.43-.81-1.48-.71-2-1.36a.74.74,0,0,1,0-.21c.81-.08,1.3-.34.69-1.22-.19-.27-.44-.58.09-.74.32-.1.84,0,.74.34C116,194.3,117.36,194,118.16,194.31Z"/><path class="cls-1" d="M153.43,214.92a1.41,1.41,0,0,1,.92-1.57c1.52-.6,1.08-1.34,0-1.78-.67-.28-.5-.49-.31-.88.82-.19,1.31.84,2.29.36C155.41,212.58,156.4,215.26,153.43,214.92Z"/><path class="cls-1" d="M159,208.8a2.9,2.9,0,0,1-.94.22c-.62-.12-1.52-.25-1.46-1s.92-.37,1.4-.28a3.24,3.24,0,0,0,1.42,0c.46-.11.91,0,.91.61s-.34.72-.86.55C159.24,208.85,159,208.82,159,208.8Z"/><path class="cls-1" d="M141.89,205.07c0-.2.05-.39.08-.59,1.32.15,2.66.23,3.48,1.56C144.3,205.55,142.88,206.12,141.89,205.07Z"/><path class="cls-1" d="M121.52,200.47c-1.14-.12-2.53.17-2.64-1.62A2.18,2.18,0,0,1,121.52,200.47Z"/><path class="cls-4" d="M140.57,203.44c.12.32.24.65.35,1a.5.5,0,0,1-.58.07c-.5-.21-1.56.2-1.33-.85S140.05,203.57,140.57,203.44Z"/><path class="cls-9" d="M150.09,176.79c-.69.56-.49,1.25-.29,1.93-1-.23-.75-1.18-1-1.82A.84.84,0,0,1,150.09,176.79Z"/><path class="cls-10" d="M133,174.15c-.65,0-.94-.33-1-1C132.45,173.44,133,173.48,133,174.15Z"/><path class="cls-10" d="M135.06,175.47a1.34,1.34,0,0,1-1.36-1C134.38,174.5,134.69,175,135.06,175.47Z"/><path class="cls-10" d="M133.67,174.48c-.28.05-.53,0-.63-.31A.48.48,0,0,1,133.67,174.48Z"/><path class="cls-7" d="M94.54,160c.37.26.87,1,.9-.19,0-.36.13-.45.42-.48h0a4.22,4.22,0,0,0,1.63,2.95h0c.89,1.71.36,4,2.19,5.33,0,1,.06,2,.06,3,0,.42.27,1-.59,1-.27,0-.25.45-.06.45,1.5,0,.82,1.46,1.4,2.06-.24.45.17,1.37,0,1.31-1.21-.37-.58.55-.69.89s-.21.92-.31,1.39l0,.33c-1.31.18-1.31.18-1.32-.32a.26.26,0,0,0,.12-.05s0-.06,0-.09l-.14.15a1.66,1.66,0,0,1-.32,0c.92-1.23,0-2.07-.51-3.11-.64-1.3-2-2-2.57-3.29-.5-1.11-1.68,0-2.59-.19.3-.59.63-1.08,1.25-.9s.8-.3,1-.74.29-1-.25-1.31c-1.09-.67-1.8-2-3.39-1.8-.68.07-.31-1.49-1.4-1.17-.06-.82.6-1,1.14-1.15a23.26,23.26,0,0,1,3.6-1c1.39-.21,2.08-.54.88-1.87A1.51,1.51,0,0,1,94.54,160Zm-3.69,5.55-.08-.1-.1.09.13.13Z"/><path class="cls-8" d="M94.54,160a1.51,1.51,0,0,0,.43,1.19c1.2,1.33.51,1.66-.88,1.87a23.26,23.26,0,0,0-3.6,1c-.54.17-1.2.33-1.14,1.15.06,1.95,0,2.05-1.78,1.11a2.87,2.87,0,0,0-2.63,0c-.62.24-1.34.57-1.68-.26-.65-1.63-2-2.06-3.52-2.38l1-1h0c.6.11.87.77,1.52.86.47.07,1.35.63,1.3.43-.22-.83,2.16-1.09.4-2.23-.46-.29.51-1,1-1.27s1-.25.48-1.05c-.38-.56,0-.82.67-.78a7.47,7.47,0,0,0,1.74-.22c1.81-.33,2.41-1.23,2.11-3.12a.77.77,0,0,1,.32-.86c.87,1.21,1.4,2.66,2.58,3.64a1.49,1.49,0,0,0,.67,1,.61.61,0,0,0,.35.6.68.68,0,0,0,.63.36Z"/><path class="cls-4" d="M99.18,197.57c0,1.64.9,3,1.36,4.51.21.7,1.22.84,1.18,1.71l-1.19,0h-.35a18.79,18.79,0,0,0-7.93,2.87c-.45-.49-1.42-.11-1.66-1,1-2.53,3.06-4.37,4.47-6.64a21.32,21.32,0,0,0,2.8-5.73c.1-.41.18-.75.69-.72s.55.44.56.83C99.14,194.84,99.16,196.2,99.18,197.57Z"/><path class="cls-8" d="M98.15,177.78c0,.5,0,.5,1.32.32.47.38.74,1.56.93,1.35.59-.65,1.58-.4,2.09-1.28a14.25,14.25,0,0,0,1.66-3.77c0-.15.09-.38.18-.41.49-.15,1-.66,1.5-.15.19.17.49.32.3.66-.39.65-.9,0-1.41,0,.23.78.82,1.09,1.32,1.5s.89.79,1.39,1.24c-.67.52-1.56.08-1.86.9a1.09,1.09,0,0,0,.63,1.45c-.23,1-2.6.07-1.4,2.11-.6-.07-1.06-.65-1.63,0,.89.45,1,1.12.36,1.87-.73.91-1.56,1-2-.16s-1-1.15-2.24-.61c.94-1,1.44-1.66.85-2.73a5.27,5.27,0,0,0-1.5,4.32,6,6,0,0,1-.52,2.6h0c-1.59-.48-1.32-2.27-2.26-3.2a.18.18,0,0,1,0-.16c1.45-.91.64-2.33.89-3.52a3.27,3.27,0,0,0,.07-1.52c-.21-.9.29-1,1-.83a1.66,1.66,0,0,0,.32,0Z"/><path class="cls-5" d="M100.15,169.52c1-.3,1.23-1.19,1.27-2.06,0-.67.35-.65.82-.63.82,0,.26.5.24.77a2.65,2.65,0,0,0,3.24,2.6,1.86,1.86,0,0,0,.53-.27c-.51-1.79,1.27-1.59,2-2.27s1.26-1.37,2.28-.14c.33.39,1.79-.55,2.25-1.12,1-1.29,2.3,0,3.38-.64.38-.21.6,1,.78,1.57a15.56,15.56,0,0,1-3.59,1.11c-.21-.05-.3.07-.35.24-1.59,0-2.69,1.09-4,1.78s-2.52,1.73-3.89,2.38c-1.55.74-3-.2-4.46-.7C99.48,171.71,100.33,170.41,100.15,169.52Z"/><path class="cls-9" d="M83.3,184.7c1-.29.79-1.91,2-2,.37.93-.73,1.43-.66,2.28-.78,1.11-.83,2.48-1.3,3.7.17.94-.39,2,.68,2.79.68.52-.38,1-.49,1.52,0,.23-.69.54-.67.57,1.22,1.88-1.3,3.84.13,5.83a5.17,5.17,0,0,1-.2,2.61,2.7,2.7,0,0,0,.92,2.9c-1.54.41-.95,1.62-.76,2.47a31.45,31.45,0,0,0,1.55,4.73c.16-1.76,1.42-2.3,2.76-2.75.14.64-.29,1-.68,1.36-1.13,1-1.69,2.42-2.62,3.56-2-.06-1.2-2-1.91-3-.21-.29,0-.85-.06-1.29,0-1,0-1.94,0-2.91l0-6.64c0-.32,0-.64,0-1s0-.91,0-1.36c-.22-2.71.34-5.42,0-8.14,1.34-.61.48-1.78.67-2.68C82.52,186.35,83.12,185.58,83.3,184.7Z"/><path class="cls-8" d="M72.22,163.67c.86,1.2,1.06-.29,1.61-.39.62.06,1.31-.07,1.64.68h0c-.31,1.06-2.06.84-2,2.26,0,.59,0,.92.89.84a4.16,4.16,0,0,0,3.16-1.29,1,1,0,0,1,1.12-.3,4.42,4.42,0,0,0,0,2.85c-.51,0-1.08.18-1.32,0-1.61-1.37-1.67-.24-1.64,1.14-.83-.23-1.44-.74-2.24-.73a.69.69,0,0,1-.61-1.13c.37-.55-.13-.93,0-1.4,0-.25-.13-.41-.4-.32s-.38.2-.36.26c.52,2.25-1,.65-1.52.79a2.84,2.84,0,0,1-.65,0c.37-.89,1.37-1.45,1.31-2.56l0,0c.46,0,.91,0,.94-.64Z"/><path class="cls-10" d="M83.37,188.67c.47-1.22.52-2.59,1.3-3.7,1.1.06,2.21-.34,3.33.13-.44.77-1.2.81-1.89,1-.31.09-.85.19-.66.73s.43.22.78.14c.77-.2,1,1,1.94.81.06-.66-.44-.79-1-1,1.51-.5,2,.35,2.09,1.36a18,18,0,0,0,.39,2.07h0c-1.35.5-2.52-.79-4-.42C85.3,190,84.6,188.31,83.37,188.67Z"/><path class="cls-2" d="M84,214.26c.93-1.14,1.49-2.56,2.62-3.56.39-.35.82-.72.68-1.36,1.19-1.12,1.82-2.76,3.3-3.61.24.85,1.21.47,1.66,1a18,18,0,0,0-5.61,7.79c0-.2,0-.39,0-.59s0-.46-.32-.47-.3.25-.34.46l-.35.39Z"/><path class="cls-9" d="M71.22,164.34c.06,1.11-.94,1.67-1.31,2.56s.19,1.71.89,2.18c1,.67,1.25.52,1.72,1.86.74,2.15,2.57,2.62,4.31,3.08,1,.26,1,.85,1.25,1.5-2.35-.78-4.52-1.65-6.19-3.77-1.12-1.43-2.09-3.09-3.63-4.19C68.23,165.49,68.85,164.81,71.22,164.34Z"/><path class="cls-8" d="M128.41,171.2c.33,1,.66,2,1,3-.18,1.16-1.47.77-2,1.44.29.88,1.4,1,1.65,2-.87-.77-3,.25-2.73-2.16,0-.29-.52-.58-.74-.49-.78.32-.9.09-.68-.62.16-.52,0-.68-.57-.61-.77.1-.78-.54-1.11-1.29,1.4.6,2.77.38,3.59,1.71.42.67.59.56,1.37-.29-1.3-.56-1.3-.56-1.26-3,.46.6.46.6.67,2C128.31,172.53,127.84,171.6,128.41,171.2Z"/><path class="cls-10" d="M107.7,186.65a1.85,1.85,0,0,0-1.33.65c-.36-.05-.57-.15-.49-.62s.09-1.13-.08-1.2c-1.81-.75,0-1.91-.34-2.85-.15-.5.37-.57.89-.31s1.38,1.36,1.93-.13c.06-.16.55-.09.54.07,0,.45.36,1.2-.12,1.31C106.47,184.05,107.34,185.41,107.7,186.65Z"/><path class="cls-8" d="M109.26,177.94c.46.09.58-1.4,1.22-.39a1,1,0,0,1-.43,1.65c-.64.27-1.23,1.22-1.79.9a1.94,1.94,0,0,1-.57-2.18,3.63,3.63,0,0,0,0-.81c0-.43-.07-1,.48-1.07s.85.35.85,1C109,177.3,108.94,177.64,109.26,177.94Z"/><path class="cls-8" d="M99.15,190.27a1.65,1.65,0,0,1-1.56.2c-.32-.17-.79-.09-1-.5-.24-.56.34-.95.55-1.05.65-.31,1.32-.47,1.72-1.17.1-.18.64.14.41.37-.68.72-.07,1.45-.15,2.16Z"/><path class="cls-8" d="M99.5,177.77c.1-.47.17-.94.31-1.39s-.52-1.26.69-.89c.18.06-.23-.86,0-1.31,1.29.19.61,1.75,1.54,2.26.16.09-.18,1-.45.83C100.69,176.83,100.24,177.84,99.5,177.77Z"/><path class="cls-10" d="M113,168.68c.05-.17.14-.29.35-.24-.07.75,1.41.49,1,1.58a1.21,1.21,0,0,1-1.2.87c-.39,0-.78.46-1.16-.1s0-.88.35-1.23S113,169.12,113,168.68Z"/><path class="cls-8" d="M111.3,172.2c-.07.07-.2.13-.22.22-.16.54-.46.84-1,.68-.23-.06-.63-.23-.35-.52s.25-1.25,1-1.3.56.49.62.9Z"/><path class="cls-5" d="M99.88,165.89c1.6.41-.1,1.22.21,1.78l-.27-.1Z"/><path class="cls-8" d="M76,165.55a.91.91,0,0,1-.17.17s-.11-.05-.11-.09a.73.73,0,0,1,0-.25Z"/><path class="cls-8" d="M111.33,172.18c.08.11.15.23.22.35l-.11.09c0-.14-.09-.28-.14-.42Z"/><path class="cls-10" d="M89.61,190.28l.12.07-.12-.07Z"/><path class="cls-8" d="M75.47,164l.14.08-.15-.07Z"/><path class="cls-8" d="M98.16,187l.13.08-.13-.08Z"/><path class="cls-1" d="M72.13,186.66a1.35,1.35,0,0,0-1.74-.85,15.09,15.09,0,0,1-5.31.2c-1.15-.22-2.22-1.31-3.13-2.22-.4-.4-.92-.49-1.26-.86s-1.41.24-1.3-1c0-.32-1.25.37-2,.16a8.08,8.08,0,0,1,2.31-2.75,4.11,4.11,0,0,1,2.06,1.44,2,2,0,0,0,2.32,1.07c.88-.24.87.84,1.09,1.51.91-.76.64-1.61.67-2.58.07-2.39-1.1-3.72-3-4.79-.36-.21-.79-.62-.54-1.07s.89-.16,1.15,0c.77.47,2,.18,2.26,1.55.12.66,1.1.61,1.6,1s1.43.32.92,1.33a.22.22,0,0,0,0,.15c1.32.3,1.91,1.65,3.08,2.14.76.32,2,.36,1.87,1.3A2.19,2.19,0,0,1,71.17,184c-.85,0-1-.52-1.17-1.1s-.5-1.24-1.36-.95c-.44.15-1.18-.18-1.28.43s0,1.63.62,1.89c1.42.58,2.9,1.21,4.52.71C72.37,185.57,72.25,186.12,72.13,186.66Z"/><path class="cls-1" d="M82,190c.33,2.72-.23,5.43,0,8.14a3.22,3.22,0,0,1-1,0c-1.4-.4-1.68,0-.66,1.17-1.07.12-1.62-.64-2.39-.86a28.37,28.37,0,0,1-8-3.67c-.35-.24-1.15-.37-.8-1s.73.12,1.11.25c.84.29,1.86.12,2.43,1a8.39,8.39,0,0,1,2-.86c.92-.38,1.15.13,1.55.63.26.32.35,1,.86.86s.27-.84.37-1.28a1.68,1.68,0,0,0-.51-1.44c1.23-.82,2.27.2,3.4.28.32,0,.74.52,1-.09.16-.43-.35-.44-.54-.66-1.14-1.27-2.84-1.41-4.25-2.13-.51-.27-1-.39-1.07-1.06l.06-.06C77.71,189,79.78,190,82,190Zm-5.5,6.5-.19-.12.12.19c.06.4.19.76.64.83.26,0,.38-.21.34-.43C77.3,196.44,76.84,196.54,76.48,196.49Z"/><path class="cls-1" d="M59.66,192c.09.58.89.85.67,1.57h0a1.45,1.45,0,0,0,.19,2.38c.36.2.61.63,1,.81s.71.81,1.16-.21c.26-.6,1.86-.2,2.1.37.56,1.32.88.24,1.06,0a2.57,2.57,0,0,1,3.44-.82.3.3,0,0,1,.09.51c-.23.29-.22,1-.89.64-.23-.11-.41-.38-.82-.07a17.49,17.49,0,0,1,1.8,3.36c.11.56-.45.84-.55,1.31-.43-.24-.73-.69-1.28-.7a.85.85,0,0,1-.87-.82c0-.6.51-.41.84-.46s.45-.06.41-.36-.11-.47-.39-.42c-.95.15-1.54-1.09-2.44-.69-.48.22.43.68.18,1.16-1,.18-2.09-.32-3.15.28-.63.35-1.16-.39-1.51-1-.24-.38-.59-.9-1-.45-.9,1-1.75.47-2.65.13s-.53-.88-.15-1.31a3.16,3.16,0,0,0,.64-2.43A2.56,2.56,0,0,1,59.66,192Z"/><path class="cls-2" d="M59.66,192a2.56,2.56,0,0,0-2.13,2.78,3.16,3.16,0,0,1-.64,2.43c-.38.43-.61,1,.15,1.31a3.45,3.45,0,0,0-.65,2.32l-2.28-.73c.88-1.94-.42-2.22-1.85-2.55-.35-.09-1.45.57-1.12-.71l2.53.57c.77.19,1.16-.06,1.06-.9l1-3c0-.71.56-.63,1-.64l.12.08-.12-.08c-.34-2.07,1.22-1.54,2.29-1.68C60,190.85,59.78,191.47,59.66,192Z"/><path class="cls-1" d="M61.66,171.17l.64-.07a13.48,13.48,0,0,1,3.91-.21.81.81,0,0,1,.83.42,3,3,0,0,0,3.35,1.93c.54,0,.84.43,1.06.91.14.29-.11.83.56.79.49,0,.51.34.37.67a.6.6,0,0,1-.8.37c-1.15-.31-2.31-.6-3.47-.87-.48-.11-.84-.33-.84-.84s-.39-.89-.82-.81c-.85.15-1.57.29-1.6-.92a.56.56,0,0,0-.41-.1C62.91,173.32,62.18,172.49,61.66,171.17Z"/><path class="cls-9" d="M68.89,201.81c.1-.47.66-.75.55-1.31.12-1,.06-2,1-2.62.43-.29.79-1,1.39-.52a1.31,1.31,0,0,1,.22,1.66,6.81,6.81,0,0,0-.58,3.49c-.39,0-.52.17-.61.55-.42,1.63-.65,1.69-2,.67C68.9,203.09,68.89,202.45,68.89,201.81Z"/><path class="cls-7" d="M72.13,186.66c.12-.54.24-1.09.37-1.64.76-1,1.58-1.86,2.27-2.86a1.4,1.4,0,0,1,1.29-.8c.37,0,.87,0,1.07.22s-.19.68-.38.94c-1.18,1.72-2.53,3.32-3.1,5.39-.07.27-.22.64-.63.65s-.56-.34-.65-.63A8.64,8.64,0,0,1,72.13,186.66Z"/><path class="cls-9" d="M59.74,179.31a8.08,8.08,0,0,0-2.31,2.75c-.64.41-.32,1.07-.42,1.63a1.51,1.51,0,0,1-1.61-.95c.31-.66.63-1.31.94-2a7,7,0,0,0,1.81-2.66,2.13,2.13,0,0,0,1.42-1c.35-.63.45-1.17,1.38-.63s.17,1.13.06,1.71S59.91,178.65,59.74,179.31Z"/><path class="cls-1" d="M80,204.68c-.13-1.09-.44-1.47-1.1-1.7-1.74-.6-3.4-1.48-5.3-1.55-.27,0-.62,0-.64-.33s.41-.73.61-.63c2,1,4.15.13,6.22.49,1.24.21,1.28,1.28,1.74,1.95s-.87.31-1.09.82C80.4,203.93,80.31,204.11,80,204.68Z"/><path class="cls-1" d="M82,207.09c0,1,0,1.94,0,2.91-.76-.05-1.58,0-1.48-1.18a.93.93,0,0,0-.59-1.07,1.21,1.21,0,0,0-1.4.6c-.22.94-.81.66-1.35.62a.6.6,0,0,1-.6-.47c-.06-.67.61-.8,1-1.19C79,205.69,80.5,207,82,207.09Z"/><path class="cls-1" d="M70.85,192.59c-.8.13-1.94-1.24-2.41.61-.07.26-.88-.42-1.65-.53,1.47-.46,1.48-.47.57-1.48-.67-.74-.5-1.17.38-1.59a2.14,2.14,0,0,1,2.41.36c.51.39,1,.89.41,1.64-.28.38.46.56.31,1Z"/><path class="cls-1" d="M68.9,203.73c1.35,1,1.58,1,2-.67.09-.38.22-.57.61-.55,1.12.4,2.17.82,1,2.27-.19.24-.13.59-.64.37-.73-.3-1.1.38-1.59.74s-.09,1.35-.61,1.05a4.45,4.45,0,0,1-1.38-2C68.08,204.49,68.1,203.84,68.9,203.73Z"/><path class="cls-2" d="M62.36,207.67c-.52-.81-1.34-.59-2.08-.6a46.59,46.59,0,0,1-8.55-.81c2.22-.8,4.1-.4,6-.19l7.69,1.13C64.44,207.9,63.32,207.26,62.36,207.67Z"/><path class="cls-1" d="M54.11,200.11l2.28.73c-.43,1.19-1.53.67-2.33.88-.31.08-.61-.06-.63.4-1.7-.72-1.7-.74-.52-3.06C53.34,199.38,53.53,200,54.11,200.11Z"/><path class="cls-1" d="M64.25,180.32c-.34.22-.73.67-1,.6a1.78,1.78,0,0,1-1.14-1.61.77.77,0,0,1,.89-.75C63.8,178.78,63.78,179.68,64.25,180.32Z"/><path class="cls-1" d="M83.3,184.7c-.18.88-.78,1.65-.65,2.61-1.28-.32-1.23-.29-.43-1.26C82.59,185.61,82.37,184.71,83.3,184.7Z"/><path class="cls-1" d="M80.4,222.84a1.08,1.08,0,0,1,1-1.09c.32-.07.34.22.29.4-.17.67-.71.71-1.27.69Z"/><path class="cls-1" d="M59,184.35a3.64,3.64,0,0,1,2,1H60l-1-1Z"/><path class="cls-1" d="M82,199.49c0,.32,0,.64,0,1l-.88-.95A.69.69,0,0,1,82,199.49Z"/><path class="cls-1" d="M58.24,185.76l1.11-.09a1,1,0,0,1-.06.32C58.93,186.51,58.56,186,58.24,185.76Z"/><path class="cls-1" d="M75.43,189.32c-.38-.12-1,.23-1.17-.5.56-.19.89.14,1.23.44Z"/><path class="cls-1" d="M70.87,192.57c.31,0,.65,0,.74.44,0,0-.11.16-.19.17-.42,0-.52-.26-.57-.59Z"/><path class="cls-1" d="M61,185.34a.68.68,0,0,1,.66.33h0c-.28,0-.53,0-.66-.33Z"/><path class="cls-1" d="M59.35,185.67a.77.77,0,0,1,.66-.33h0A.71.71,0,0,1,59.35,185.67Z"/><path class="cls-1" d="M60.33,193.57l.14.07-.13-.08Z"/><path class="cls-1" d="M61.66,185.67l.13.15-.14-.14Z"/><path class="cls-1" d="M72.56,226.06c-.07.08-.14.22-.22.23-1,.14-5.14-1.56-5.8-2.42-.89,1.15-1,2.83-2.41,3.54-.25-1.73-1.2-2.6-2.78-2.15-1.77.5-3.38-.52-5.1-.21-.29,0-.67-.43-1-.67-.34,1.45-.94,1.68-2.5,1-.55-.23-1.32-.72-1.65-.52-2,1.23-2.93-.68-4.22-1.43a1,1,0,0,1-.54-1.1.77.77,0,0,1,.92-.52c1.72.26,3-.93,4.57-1.28.18,0,.48-.2.49-.33.18-2,1.29-.82,2-.55a6.69,6.69,0,0,1,1.23.81c.44.28.86.83,1.44.47s.06-.86,0-1.29c-.17-.64.85-.86.56-1.57-.4-.27-.58,1.18-1.07.15.21-1.43.42-2.87.62-4.31a3.76,3.76,0,0,0,.64-1.64l1.21.54c-.38.44-.72.79-1,1.17-.17.22-.13.73,0,.66,1.12-.52,1.86,2.38,3.1.33.07-.11.45-.13.62-.06,1.11.48.87-.62,1.14-1.11a1.2,1.2,0,0,1,.4,1.42c-.31.77.36,1.12.8,1.41.63.41.83-.17,1-.66a.45.45,0,0,1,.62-.35c.35.15.23.4,0,.64s-.12.45.23.33c.59-.19.73.36,1.06.58l.08.07c.18,1.75,2.13,1.1,2.94,2.2s1.93-.2,2.94-.26l.12.07-.13-.07c-.15-.27-.48-.74-.42-.8a1.53,1.53,0,0,1,1.62-.2C72.87,220.71,72.85,223.41,72.56,226.06Zm-7-3.23a1.64,1.64,0,0,1-1.45-.55c-.25-.3-.3-.95-.88-.66a1.91,1.91,0,0,0-.8,1.36c-.13.59.47.62.82.81,1.14.59,1.95.35,2.34-.94.08-.12.16-.24.23-.37l-.12-.08Z"/><path class="cls-7" d="M72.56,226.06c.29-2.65.31-5.35,1.47-7.84.07-.39.13-.79.2-1.19.41-.51.89-1.18,1.57-.74s.25,1.18.07,1.79a22.16,22.16,0,0,0-1,8,1.46,1.46,0,0,1-1.35,1.22C72.56,227.41,73.11,226.32,72.56,226.06Z"/><path class="cls-9" d="M57.07,214c-.2,1.44-.41,2.88-.62,4.31-1.71.54-1.28-.83-1.46-1.64-.49-.82.12-1.58.13-2.37.6,0,.88-.87,1.58-.64l0,0Z"/><path class="cls-1" d="M99.48,245.21c-.34-1.65,1.09-.66,1.59-1.07.09.12.25.25.24.37a.43.43,0,0,1-.27.32c-.52.15-1.05.25-1.57.37Z"/><path class="cls-1" d="M105.62,245.61s-.08,0-.1,0a.49.49,0,0,1,0-.11l.17,0Z"/><path class="cls-1" d="M84,242.9l-.13-.07.13.07Z"/><path class="cls-4" d="M74.23,217c-.07.4-.13.8-.2,1.19a1.53,1.53,0,0,0-1.62.2c-.06.06.27.53.42.8h0c-1,.06-2.12,1.37-2.94.26s-2.76-.45-2.94-2.2l.12-.19-.2.12c-.33-.22-.47-.77-1.06-.58-.35.12-.56,0-.23-.33s.33-.49,0-.64A.45.45,0,0,0,65,216c-.14.49-.34,1.07-1,.66-.44-.29-1.11-.64-.8-1.41a1.2,1.2,0,0,0-.4-1.42c-.27.49,0,1.59-1.14,1.11-.17-.07-.55,0-.62.06-1.24,2.05-2-.85-3.1-.33-.15.07-.19-.44,0-.66.3-.38.64-.73,1-1.17l-1.21-.54c-.11-.43-.21-.86-.32-1.28,1.67-.84,3,1,4.66.53,0,0,.1.16.14.24a2.8,2.8,0,0,0,4.19.77c.51-.36.8.5,1.1.07a3.22,3.22,0,0,0,.22-1.15l2.07,1.39c.13.09.31.24.31.37C70.09,216,72.53,216.11,74.23,217Zm-5,1.12c-.11-.85-.14-1.46-.94-1.52-.29,0-.61.23-.59.46C67.76,217.87,68.5,217.82,69.22,218.15Z"/><path class="cls-4" d="M103,234.67c0,.76.08,1.51.13,2.26-1-.36-2.23,0-3.16-.75a.37.37,0,0,0-.56.12c-.89,1.39-1.84.33-2.4-.17s-1-1.24-1.76-1.83c.8.19,1.26-.39,1.85-.59a.85.85,0,0,0,.74.31l1,0h0C100.06,235.19,101.67,234,103,234.67Z"/><path class="cls-2" d="M57.39,211c.11.42.21.85.32,1.28a3.76,3.76,0,0,1-.64,1.64l-.33-.31.12-.15-.16.12c-.7-.23-1,.61-1.58.64.48-1.08-.52-2.38.49-3.39C56.28,210.2,56.85,210.37,57.39,211Z"/><path class="cls-2" d="M50.48,207.39c0,.38,0,.76,0,1.13s0,.7-.49.57c-.26-.06-.72.25-.77-.29-.14-1.65-1.19-2-2.67-1.85a4.89,4.89,0,0,1,4,.42Z"/><path class="cls-2" d="M43.24,205.81c-.66-.33-2,.57-2-1a14.37,14.37,0,0,1,4.6.63v0C45.19,206.79,44.11,205.61,43.24,205.81Z"/><path class="cls-2" d="M45.86,205.42l5.62.5c-2,.9-4.71.58-5.61-.52Z"/><path class="cls-4" d="M79.75,227.78c.21-.45-1-.8-.08-1.29.34-.18.52-.6,1.09-.36s.25.66.26,1c0,1-.92.32-1.28.67Z"/><path class="cls-4" d="M84.67,230.08c.25,0,.56,0,.5.41a.43.43,0,0,1-.38.19c-.42-.11-.14-.39-.11-.61Z"/><path class="cls-4" d="M86,213.88c0-.21.07-.46.34-.46s.31.25.32.47Z"/><path class="cls-4" d="M87.07,235.17c-.09.05-.18.13-.26.12a.53.53,0,0,1-.25-.12c.08,0,.16-.12.25-.12A.67.67,0,0,1,87.07,235.17Z"/><path class="cls-2" d="M50.46,207.37l.13-.44.13.08-.24.38Z"/><path class="cls-4" d="M85.66,231.72l.15-.14s0,.07,0,.09a.22.22,0,0,1-.11.05Z"/><path class="cls-6" d="M122.18,144.88l.12.08-.13-.07Z"/><path class="cls-6" d="M120.21,146.52l.13.09-.15-.07Z"/><path class="cls-1" d="M134.43,241.88c.18.24,1,1,.91,1.38-.27.83-.46,2.14-1.68,2.14a1.39,1.39,0,0,1-1.49-1.53C132.15,242.44,132.27,241.39,134.43,241.88Z"/><path class="cls-1" d="M122.82,240.27c.46,0,1-.17,1.33.33C123.68,240.58,123.17,240.75,122.82,240.27Z"/><path class="cls-1" d="M133.91,249l.12-.06,0,.19a.27.27,0,0,1-.13,0S133.92,249,133.91,249Z"/><path class="cls-8" d="M80.73,162.65l-.25-.35c.39-.1.16.24.25.35Z"/><path class="cls-7" d="M95.86,159.36c.21-.57,1.32,0,1.23-1,0-.31.3-.23.46-.08a3.32,3.32,0,0,1,1.34,3.22,3,3,0,0,0-3-2.15Z"/><path class="cls-7" d="M93.55,159.06a1.49,1.49,0,0,1-.67-1c.37.08.83-.42,1.11.23S94,159,93.55,159.06Z"/><path class="cls-8" d="M92.2,152.38c.17.16.41.27.45.43.08.34-.23.32-.41.25s-.3-.25-.45-.39Z"/><path class="cls-7" d="M94.53,160a.68.68,0,0,1-.63-.36C94.44,159.21,94.47,159.64,94.53,160Z"/><path class="cls-7" d="M97.17,152.46c-.08-.12-.16-.24-.23-.36l.11-.08c0,.14.09.28.13.42Z"/><path class="cls-7" d="M95,158.58a.28.28,0,0,1,.07.13s-.06.07-.09.11A1.94,1.94,0,0,0,95,158.58Z"/><path class="cls-7" d="M97.5,162.32l.07-.14-.06.14Z"/><path class="cls-1" d="M130.74,264.32c-1.22-1.3-2.82-1-4.34-1-.31,0-.79.39-.9-.26-.07-.36.13-.59.48-.74s.65-.59.94-.56c1.88.2,3.53-1.22,5.44-.74C131.73,262.06,132,263.55,130.74,264.32Z"/><path class="cls-2" d="M130.74,264.32c1.24-.77,1-2.26,1.62-3.33.47,0,1,0,1,.65-1,1.54-1.06,3.33-1.14,5.06,0,.66,0,1-.7,1.12s-.85-.47-1.05-.93a2.21,2.21,0,0,1-.06-.64C130.82,265.66,130.54,265,130.74,264.32Z"/><path class="cls-9" d="M125.5,267.28a1,1,0,0,0,.3-.89c0-.43.12-.76.62-.78a.89.89,0,0,1,1,.7c.27.87.14,1.85.68,2.65l0,.52c-.16.14-.27.27,0,.4h0l0,.33c-.45,1-.9.9-1.32,0S125.93,268.25,125.5,267.28Z"/><path class="cls-1" d="M125.13,270.53v-.33l.74.07v.2Z"/><path class="cls-1" d="M128.11,270.2l0-.33.71.15Z"/><path class="cls-1" d="M128.09,269.88c-.27-.13-.16-.26,0-.4Z"/><path class="cls-8" d="M93.89,110.69c0,.4-.13.78-.6.85-.26,0-.39-.21-.34-.43.11-.52.57-.4.93-.44Z"/><path class="cls-8" d="M88.77,120.67l-.08-.11.17-.08s0,.09,0,.13S88.8,120.65,88.77,120.67Z"/><path class="cls-1" d="M54.73,196.52c.1.84-.29,1.09-1.06.9l-2.53-.57c-.26-.37-.68-.27-1-.39-.74-.28-.74-.91-.56-1.48s.78-.4,1.23-.24a2.44,2.44,0,0,1,1.12.59A3.73,3.73,0,0,0,54.73,196.52Z"/><path class="cls-1" d="M49.13,194.89c.1,1.12-.19,1.5-1.06.94-.62-.4-1,0-1.62.16s.23,1-.55.81a.43.43,0,0,1-.32-.5c.09-.55.23-1.09.35-1.63.89.52,1.3-1,2.47-.46C49,194.49,49.08,194.64,49.13,194.89Z"/><path class="cls-1" d="M47.82,199.13,48,199l-.13.17Z"/><path class="cls-4" d="M55.31,186.51c.12.56.18.94-.32,1.07-.11,0-.38-.07-.39-.15C54.51,187,55,186.86,55.31,186.51Z"/><path class="cls-4" d="M52.44,184.69c0,.17.05.43-.25.43-.06,0-.19-.12-.19-.18,0-.3.27-.21.44-.26Z"/><path class="cls-4" d="M57.66,190l-.11-.18.19.11Z"/><path class="cls-4" d="M58.65,189.66l-.12-.2.2.11Z"/><path class="cls-9" d="M72.19,163.67c0,.64-.48.65-.94.64C71.2,163.57,71.7,163.63,72.19,163.67Z"/><path class="cls-4" d="M56.34,180.78c-.31.65-.63,1.3-.94,2-1.18.15-1.8-.68-2.24-1.5a2.65,2.65,0,0,0-1.55-1.54,9.43,9.43,0,0,0,1.4-.42c.72-.32,1.24-.24,1.6.52A1.82,1.82,0,0,0,56.34,180.78Z"/><path class="cls-3" d="M94.11,116l-.18.2a1.09,1.09,0,0,1-.13-.17s.06-.11.09-.1A.7.7,0,0,1,94.11,116Z"/><path class="cls-5" d="M94.16,113.76l-.1,0s0-.07,0-.09l.12,0Z"/><path class="cls-1" d="M140,255.43c-.38,0-.64-.17-.39-.59.07-.12.22-.19.33-.28,0,.29,0,.58.05.87Z"/><path class="cls-6" d="M128.41,141.6l-.12-.08.14.07Z"/><path class="cls-1" d="M63.29,255.4l.08-.14-.07.14Z"/><polygon class="cls-9" points="41.18 207.97 41.08 207.94 41.14 207.85 41.18 207.97"/><path class="cls-3" d="M101.72,203.79c0-.87-1-1-1.18-1.71.9-.1,1.61-.35.72-1.35-.32-.37-.28-.53.11-.71s.66-.46.93.11c.54,1.2,1.08,1,1.46,0,.56-.27.48,1.73,1.31.22.13-.22.8-.2,1.22-.19s.72.45.86.87c.2.61-.46.44-.62.66a1.82,1.82,0,0,1-1.69.48c-1.07-.17-1.36,1.19-2.32,1,0,.21,0,.43-.07.64Z"/><path class="cls-1" d="M103,234.67c-1.32-.69-2.93.52-4.18-.62l4.28,0C103.06,234.29,103,234.48,103,234.67Z"/><path class="cls-1" d="M98.78,234.05l-1,0A.65.65,0,0,1,98.78,234.05Z"/><path class="cls-8" d="M100.18,203.82h0Z"/><path class="cls-1" d="M127.51,203.8c0-.45,0-.91,0-1.36.42-.39.83,0,1.24,0l-.1.64c1.25-.41,1.67,1.82,3.06,1l0,0c0,1.17,1.05.85,1.72,1.11-.75.83-1.49.48-2.25.1-.54-.26-.83-.45-1,.51-.12.53-1.33.83-2,1.24l0,0c.07-.45-.48-.87,0-1.36C129.22,204.67,128.61,204.14,127.51,203.8Z"/><path class="cls-1" d="M126.72,210.2a7.19,7.19,0,0,0,3.26-1.88.67.67,0,0,1,.75-.19c.1,0,.22.33.18.37-.84,1-.09,1.39.63,1.87.38.25.65.71.13,1.07-.37.26-.44.93-1.3.59C129.1,211.54,128.29,210.17,126.72,210.2Z"/><path class="cls-1" d="M123.07,208.54c-1.51.53-2.61-.44-3.82-.76a1.06,1.06,0,0,1-.58-1.37c.31-.6,1-.12,1.26.08C120.89,207.23,122.44,207,123.07,208.54Z"/><path class="cls-2" d="M128.74,202.47c-.41,0-.82-.42-1.24,0,.11-.69.8-1.2.61-2,1,.58,2.28.44,3.44.89C130.9,202.73,129.71,202.31,128.74,202.47Z"/><path class="cls-2" d="M114.94,194.5c.53.65,1.58.55,2,1.36.09,1-.35,1.49-1.39,1.33A3.63,3.63,0,0,1,114.94,194.5Z"/><path class="cls-1" d="M139.93,217.24c0-1.34.18-2.62,2-3.28-.65,1.32-1,2.5-2,3.29Z"/><path class="cls-1" d="M128.11,207.06c0,.32.58.61.32.84-.43.36-1,.12-1.56.08a.37.37,0,0,1-.35-.46c.13-.62.67-.41,1.07-.47a4,4,0,0,1,.49,0Z"/><path class="cls-2" d="M115,202.77c.12-.81-.53-1.8.57-2.38A3,3,0,0,1,115,202.77Z"/><path class="cls-1" d="M143.55,219.88c.27.24.61.48.32.88a.54.54,0,0,1-.56,0c-.28-.36.39-.53.24-.91Z"/><path class="cls-1" d="M116.68,212l.21-.17.21.31c-.09,0-.19.12-.27.09S116.73,212.05,116.68,212Z"/><path class="cls-1" d="M131.7,204.08l.13-.42.12.08c-.08.12-.16.24-.23.36Z"/><path class="cls-1" d="M152.77,212c.08.11.15.23.23.35l-.12.08c0-.14-.09-.27-.13-.41Z"/><path class="cls-2" d="M118.56,198.83l-.08.14.07-.14Z"/><path class="cls-1" d="M70.53,238l-.14.14s0-.07,0-.09a.31.31,0,0,1,.12-.05Z"/><path class="cls-1" d="M117,217c-.09.06-.22.18-.24.17-.2-.15-.1-.26.06-.35Z"/><path class="cls-1" d="M128.08,236.72l.13.06-.18.14s-.06-.09,0-.12S128,236.75,128.08,236.72Z"/><path class="cls-3" d="M109,198.17c.08.33.48.73-.11.94-.34.12-1.06.1-1-.15.23-1.19-1.72-.91-1.33-2.1.16-.51.38-.5.81-.18.59.45.78,1.33,1.63,1.49Z"/><path class="cls-3" d="M109,198.17c0-.52.21-.85.82-.87,0,.67-.51.66-.81.87Z"/><path class="cls-3" d="M104,190.91c-.16.06-.28.14-.33.11a1.64,1.64,0,0,1-.35-.29c.1,0,.21-.11.29-.08A1.55,1.55,0,0,1,104,190.91Z"/><path class="cls-3" d="M90.85,165.58l0,.12-.13-.13.1-.09Z"/><path class="cls-3" d="M98.16,177.79l.14-.15s0,.07,0,.09a.26.26,0,0,1-.12.05Z"/><path class="cls-4" d="M76.49,196.49c.35,0,.81-.05.9.47,0,.22-.08.47-.34.43-.45-.07-.58-.43-.64-.83Z"/><path class="cls-4" d="M76.41,196.56l-.12-.19.19.12Z"/><path class="cls-1" d="M56.72,192.91l.12.08-.12-.08Z"/><path class="cls-4" d="M65.61,222.85c-.39,1.29-1.2,1.53-2.34.94-.35-.19-1-.22-.82-.81a1.91,1.91,0,0,1,.8-1.36c.58-.29.63.36.88.66a1.64,1.64,0,0,0,1.45.55Z"/><path class="cls-4" d="M65.58,222.83l.14-.43.12.08c-.07.13-.15.25-.23.37Z"/><path class="cls-4" d="M72.83,219.22l.13.07-.12-.07Z"/><path class="cls-1" d="M69.22,218.15c-.72-.33-1.46-.28-1.53-1.06,0-.23.3-.48.59-.46C69.08,216.69,69.11,217.3,69.22,218.15Z"/><path class="cls-1" d="M66.88,217.21l.2-.12-.12.19Z"/><path class="cls-9" d="M56.7,213.61l.16-.12-.12.15Z"/></g><g id="Layer_2" data-name="Layer 2"><rect class="cls-11" width="208.92" height="307.28"/></g></svg>