<?xml version="1.0" standalone="no"?>
<!DOCTYPE svg PUBLIC "-//W3C//DTD SVG 20010904//EN"
 "http://www.w3.org/TR/2001/REC-SVG-20010904/DTD/svg10.dtd">
<svg version="1.0" xmlns="http://www.w3.org/2000/svg"
 width="600.000000pt" height="600.000000pt" viewBox="0 0 600.000000 600.000000"
 preserveAspectRatio="xMidYMid meet">
<metadata>
Created by potrace 1.11, written by Peter Selinger 2001-2013
</metadata>
<g transform="translate(0.000000,600.000000) scale(0.100000,-0.100000)"
fill="#000000" stroke="none">
<path d="M1735 5663 c-164 -30 -331 -115 -455 -233 -55 -51 -58 -53 -73 -38
-8 7 -25 20 -37 28 -20 14 -49 36 -77 60 -7 5 -14 10 -17 10 -3 0 -31 15 -63
34 -65 38 -172 80 -233 90 -8 2 -33 7 -55 11 -89 18 -265 9 -370 -19 -5 -2
-23 -6 -40 -11 -16 -4 -36 -12 -43 -18 -6 -5 -12 -7 -12 -4 0 6 -109 -44 -140
-63 -8 -6 -31 -19 -51 -29 -50 -27 -69 -72 -65 -152 3 -73 13 -94 64 -130 40
-28 64 -37 127 -45 36 -5 44 -1 79 31 35 32 121 95 130 95 2 0 21 8 42 17 42
18 59 21 143 26 61 4 115 -7 178 -34 24 -11 47 -19 53 -19 5 0 10 -4 10 -10 0
-5 8 -10 18 -11 16 0 8 -5 -98 -51 -69 -30 -179 -107 -241 -169 -44 -45 -117
-138 -124 -159 -4 -11 -11 -20 -16 -20 -5 0 -9 -9 -9 -19 0 -11 -4 -21 -9 -23
-5 -1 -23 -44 -39 -93 -103 -301 -35 -586 197 -824 33 -33 62 -61 66 -61 4 0
13 -6 20 -12 95 -86 280 -171 461 -213 76 -18 100 -21 189 -30 33 -4 64 -11
69 -16 6 -5 16 -33 23 -61 8 -29 27 -80 43 -113 16 -33 28 -69 25 -80 -2 -11
-4 -20 -5 -20 0 0 -3 -20 -5 -45 -2 -25 -7 -58 -10 -75 -3 -16 -10 -55 -16
-85 -6 -30 -17 -77 -25 -105 -8 -27 -13 -52 -13 -55 1 -3 -8 -25 -21 -50 -13
-25 -22 -47 -21 -50 1 -3 -8 -15 -20 -28 -12 -12 -19 -25 -16 -29 18 -17 163
-8 217 14 8 3 19 5 24 4 5 -1 12 3 16 9 4 6 13 12 21 14 28 4 98 56 155 115
67 68 67 68 114 138 23 34 41 51 52 50 23 -4 35 -16 23 -25 -6 -4 -30 -47 -55
-96 -25 -49 -51 -95 -58 -103 -7 -7 -9 -13 -4 -13 10 0 53 52 102 125 19 28
38 55 42 60 4 6 16 20 26 32 12 16 32 25 70 29 48 6 52 4 52 -14 0 -32 -75
-207 -130 -304 -27 -48 -50 -91 -50 -94 0 -11 87 101 156 201 37 55 72 102 76
103 5 2 6 7 3 12 -3 4 1 10 9 13 8 3 36 -22 71 -64 54 -67 56 -71 45 -100 -7
-16 -16 -29 -21 -29 -4 0 -10 -8 -13 -18 -4 -10 -15 -28 -26 -40 -11 -11 -41
-47 -67 -79 -25 -32 -52 -62 -60 -66 -7 -4 -13 -13 -13 -18 0 -15 87 56 192
157 32 31 62 53 67 50 5 -4 16 -20 25 -36 8 -17 11 -28 8 -26 -14 8 -83 -42
-111 -80 -22 -30 -63 -131 -61 -151 3 -39 -21 -72 -135 -188 -69 -71 -115
-105 -142 -105 -17 -1 -17 -2 2 -15 11 -8 25 -18 31 -23 18 -16 54 -33 54 -26
0 3 6 2 13 -4 49 -40 216 -46 338 -11 24 7 49 11 54 10 19 -6 80 -11 135 -12
30 0 50 -3 44 -7 -5 -4 -21 -23 -34 -42 -29 -42 -54 -72 -95 -115 -16 -17 -37
-40 -45 -50 -42 -52 79 48 227 188 22 21 49 40 59 42 11 2 19 4 19 5 0 1 9 3
20 5 11 2 32 6 48 9 18 4 28 2 29 -6 5 -44 8 -35 -70 -183 -15 -27 -30 -52
-33 -55 -3 -3 -19 -25 -34 -50 -16 -24 -34 -51 -42 -58 -7 -7 -18 -23 -24 -35
-10 -22 103 94 171 174 19 23 46 54 60 70 29 33 25 37 80 -69 l33 -63 -74 -71
c-41 -39 -98 -89 -127 -111 -29 -22 -50 -42 -48 -45 6 -6 78 36 190 111 l89
60 18 -24 c41 -55 81 -130 75 -141 -31 -61 -161 -243 -190 -267 -9 -7 -16 -17
-16 -22 0 -13 32 16 152 136 64 64 112 105 115 98 2 -7 18 -27 34 -44 16 -17
29 -33 29 -36 0 -2 -9 -26 -21 -53 -18 -42 -33 -57 -102 -103 -116 -76 -204
-126 -211 -120 -3 4 -6 1 -6 -6 0 -7 -4 -9 -10 -6 -5 3 -10 2 -10 -2 0 -9 -25
-15 -76 -17 -38 -1 -35 -15 14 -71 42 -47 129 -100 201 -121 76 -23 239 -27
326 -9 115 24 114 26 41 -80 -36 -52 -66 -98 -66 -101 0 -9 105 104 143 153
26 34 44 46 94 63 71 23 83 21 101 -19 11 -25 10 -36 -8 -82 -39 -98 -150
-297 -173 -307 -4 -2 -5 -8 -1 -13 3 -5 0 -9 -7 -9 -7 0 -9 -3 -6 -7 8 -7 42
28 111 117 28 36 55 70 61 77 5 6 28 36 50 67 l39 56 48 -47 c44 -43 47 -49
41 -87 -3 -23 -10 -47 -15 -53 -6 -7 -8 -13 -5 -13 3 0 -6 -30 -20 -68 -14
-37 -25 -73 -26 -79 0 -7 -4 -13 -9 -13 -4 0 -8 -6 -8 -14 0 -25 -56 -137 -65
-129 -4 4 -5 2 -1 -5 6 -11 12 -9 27 7 10 11 19 24 19 29 0 5 9 17 20 27 10 9
18 22 17 29 -1 6 4 10 11 8 8 -1 11 2 7 8 -8 13 14 52 25 45 6 -3 7 1 4 9 -3
8 2 28 13 43 10 15 29 49 43 75 13 27 28 48 32 48 5 0 8 7 8 14 0 10 20 1 60
-26 51 -36 60 -46 56 -67 -2 -15 -5 -39 -5 -54 -1 -16 -4 -26 -8 -24 -5 3 -8
-16 -9 -41 0 -26 -4 -63 -8 -82 -4 -19 -8 -41 -8 -47 -1 -7 -4 -13 -7 -13 -3
0 -7 -14 -7 -31 -1 -27 0 -29 9 -13 6 10 20 47 32 81 12 34 24 61 26 59 2 -3
5 5 5 17 2 29 8 49 17 64 5 7 6 17 2 22 -3 5 0 13 6 16 5 4 8 13 5 21 -3 8 -1
15 4 15 6 1 16 2 23 3 6 1 17 -1 22 -5 9 -5 24 -10 85 -26 34 -9 78 -14 135
-16 79 -3 80 -4 100 -107 3 -14 8 -36 12 -50 4 -14 7 -29 8 -35 11 -89 37
-135 28 -49 -3 28 0 51 8 60 10 12 10 14 0 12 -9 -2 -13 18 -15 70 -2 40 0 74
3 76 3 2 40 0 81 -5 76 -9 348 -12 430 -5 35 3 48 0 62 -16 10 -12 18 -24 18
-28 0 -4 8 -16 18 -28 45 -53 52 -63 52 -70 0 -4 19 -27 41 -52 l39 -45 -31
60 c-17 33 -36 64 -40 70 -5 5 -9 17 -9 27 0 10 -4 18 -8 18 -9 0 -36 69 -30
75 2 2 19 7 38 10 19 4 40 8 45 9 6 1 15 4 20 7 6 4 18 5 28 4 9 -2 17 0 17 4
0 4 6 8 13 9 23 1 56 11 76 22 12 6 21 9 21 6 0 -2 33 12 73 32 39 20 75 38
79 40 4 2 51 -41 105 -95 139 -140 148 -143 54 -19 -45 59 -86 118 -90 129 -7
18 2 32 53 82 34 33 72 81 85 107 26 51 18 50 106 12 17 -7 33 -13 38 -13 4 0
20 -7 35 -16 45 -25 189 -76 167 -59 -11 9 -33 23 -50 30 -16 8 -48 26 -70 39
-22 14 -47 28 -55 32 -8 4 -17 9 -20 12 -3 3 -24 19 -47 35 -24 16 -43 31 -43
34 0 2 12 37 26 76 14 39 31 98 38 131 13 62 13 233 1 295 -8 40 -43 148 -55
169 -5 10 14 41 64 101 39 48 80 99 91 115 11 15 27 36 35 45 15 17 50 65 64
87 5 9 2 11 -9 7 -9 -4 -14 -8 -12 -11 9 -8 -222 -220 -264 -243 -13 -8 -26 3
-59 47 -23 31 -44 61 -46 67 -2 6 9 26 26 44 16 18 42 49 57 70 15 20 31 39
34 42 16 14 118 155 114 158 -2 2 -41 -34 -88 -80 -46 -45 -111 -104 -144
-130 l-60 -47 -29 30 c-16 17 -51 47 -77 66 -56 41 -56 26 -8 228 17 72 33
153 36 180 5 46 3 42 -28 -45 -43 -122 -78 -203 -91 -212 -6 -4 -7 -8 -3 -8 5
0 -1 -13 -12 -29 l-21 -29 -72 23 -73 23 5 39 c2 21 4 53 4 71 1 17 3 32 6 32
3 0 6 12 7 28 1 75 13 204 19 214 4 6 2 8 -4 4 -6 -3 -16 -32 -22 -64 -16 -78
-48 -196 -72 -259 l-19 -53 -94 0 c-52 0 -96 4 -100 10 -3 5 1 25 9 44 8 19
12 37 8 40 -3 3 0 6 6 6 7 0 11 3 10 8 -1 4 4 23 11 42 8 19 15 38 16 43 1 4
4 9 5 12 1 3 3 8 4 13 1 4 4 12 7 17 5 8 22 58 54 163 11 34 -9 2 -55 -90 -28
-56 -60 -114 -71 -129 -10 -15 -19 -32 -19 -38 0 -6 -4 -11 -9 -11 -5 0 -12
-8 -16 -17 -3 -10 -16 -31 -29 -47 l-24 -28 -68 45 c-66 43 -124 93 -152 129
-11 14 5 34 128 156 77 77 140 145 140 151 0 6 -8 3 -19 -8 -10 -10 -45 -38
-77 -62 -33 -24 -61 -46 -64 -49 -10 -10 -115 -77 -146 -93 -30 -15 -32 -15
-51 6 -28 32 -103 141 -103 151 0 5 55 63 122 130 180 178 229 240 108 136
-29 -25 -100 -77 -158 -117 -79 -53 -110 -69 -119 -61 -7 6 -13 14 -13 18 0 5
-22 47 -50 95 -27 48 -50 93 -50 100 0 8 40 94 88 192 95 189 117 241 110 248
-2 3 -15 -18 -29 -45 -13 -27 -27 -50 -31 -50 -5 0 -8 -5 -8 -10 0 -6 -5 -16
-10 -23 -6 -7 -27 -34 -47 -62 -73 -99 -124 -154 -139 -148 -8 3 -14 10 -15
17 0 6 -19 40 -42 75 l-42 63 130 133 c72 73 139 143 149 156 10 13 26 33 35
44 16 20 16 20 -9 0 -14 -11 -29 -24 -35 -30 -23 -24 -155 -125 -164 -125 -5
0 -11 -3 -13 -7 -4 -10 -82 -63 -92 -63 -4 0 -14 -7 -22 -15 -21 -21 -29 -19
-44 10 -7 14 -17 25 -22 25 -4 0 -8 6 -8 14 0 7 -7 19 -15 26 -8 7 -15 15 -15
19 0 3 24 31 53 62 128 139 280 318 256 304 -13 -8 -78 -66 -118 -106 -9 -8
-34 -28 -56 -44 -22 -16 -44 -34 -50 -39 -19 -21 -125 -86 -137 -85 -7 0 -47
47 -89 104 l-76 104 23 41 c13 22 24 43 24 45 1 3 17 40 37 82 20 43 37 80 38
83 3 8 17 41 41 98 26 60 18 70 -11 15 -11 -21 -23 -42 -27 -48 -4 -5 -29 -41
-54 -80 -26 -38 -52 -73 -58 -77 -6 -4 -7 -8 -3 -8 5 0 -5 -14 -22 -31 -17
-17 -31 -35 -31 -40 0 -21 -19 -6 -67 54 -28 34 -63 75 -78 91 -14 15 -25 34
-23 42 2 7 44 55 93 106 88 90 195 213 195 224 0 6 -36 -25 -89 -76 -48 -45
-171 -135 -238 -173 l-32 -17 -53 56 c-29 31 -79 82 -110 112 -32 31 -58 59
-58 63 0 4 43 71 95 148 52 78 91 141 87 141 -4 0 -2 4 4 8 12 7 44 65 44 78
0 5 -15 -12 -32 -37 -51 -69 -152 -177 -232 -246 l-37 -32 -114 94 c-62 51
-121 98 -131 103 -15 8 -14 14 12 58 16 27 34 55 41 62 7 7 13 17 13 22 0 5
13 28 29 52 37 55 115 198 107 198 -3 0 -19 -20 -36 -45 -43 -62 -99 -127
-183 -212 -67 -68 -72 -72 -92 -58 -11 8 -37 25 -59 37 -21 13 -46 28 -55 33
-9 6 -43 25 -76 44 -33 19 -61 35 -63 36 -6 5 32 75 40 75 4 0 8 4 8 9 0 5 22
45 49 88 78 126 138 252 74 158 -63 -94 -216 -265 -238 -265 -6 0 -20 8 -31
18 -26 24 -151 102 -164 102 -5 0 -10 5 -10 11 0 5 -4 8 -9 5 -5 -3 -14 1 -21
9 -9 11 -8 21 3 47 9 18 21 50 28 70 13 38 17 41 77 53 89 18 150 78 159 155
6 47 -14 140 -30 140 -6 0 -18 6 -26 14 -24 22 -168 91 -236 114 -136 46 -307
60 -440 35z m141 -351 c-2 -31 -7 -81 -11 -110 l-8 -52 -81 6 c-99 7 -131 7
-223 0 -40 -3 -74 -2 -77 2 -10 16 100 114 168 149 51 27 151 58 194 60 l41 3
-3 -58z m104 42 c43 -9 144 -62 177 -94 18 -16 36 -30 41 -30 24 0 17 -33 -20
-97 l-41 -68 -101 34 -101 35 -3 40 c-2 48 -10 129 -16 168 -3 23 -1 26 17 22
12 -3 33 -7 47 -10z"/>
<path d="M2996 642 c-3 -5 1 -9 9 -9 8 0 12 4 9 9 -3 4 -7 8 -9 8 -2 0 -6 -4
-9 -8z"/>
<path d="M3473 525 c0 -8 4 -12 9 -9 5 3 6 10 3 15 -9 13 -12 11 -12 -6z"/>
<path d="M3555 531 c-3 -5 -2 -12 3 -15 5 -3 9 1 9 9 0 17 -3 19 -12 6z"/>
<path d="M2510 441 c0 -6 4 -13 10 -16 6 -3 7 1 4 9 -7 18 -14 21 -14 7z"/>
</g>
</svg>
